Pretension-Italic[wght].glyphspackage
{
glyphname = numbersign;
layers = (
{
layerId = "7120DA8A-778D-4421-9957-14EBB73F7FEE";
shapes = (
{
closed = 1;
nodes = (
(630,0,l),
(1010,1490,l),
(1301,1490,l),
(920,0,l)
);
},
{
closed = 1;
nodes = (
(0,341,l),
(77,633,l),
(1275,633,l),
(1199,341,l)
);
},
{
closed = 1;
nodes = (
(106,0,l),
(486,1490,l),
(778,1490,l),
(397,0,l)
);
},
{
closed = 1;
nodes = (
(133,859,l),
(209,1151,l),
(1407,1151,l),
(1331,859,l)
);
}
);
width = 1341;
},
{
layerId = "496E469D-EE15-4086-9FDA-F7D1A66ADFFB";
shapes = (
{
closed = 1;
nodes = (
(645,0,l),
(1025,1490,l),
(1248,1490,l),
(868,0,l)
);
},
{
closed = 1;
nodes = (
(11,376,l),
(68,598,l),
(1226,598,l),
(1168,376,l)
);
},
{
closed = 1;
nodes = (
(121,0,l),
(502,1490,l),
(725,1490,l),
(344,0,l)
);
},
{
closed = 1;
nodes = (
(145,893,l),
(202,1116,l),
(1359,1116,l),
(1302,893,l)
);
}
);
width = 1304;
},
{
layerId = "C6CF8F4D-8996-4F76-ABC0-77690A781072";
shapes = (
{
closed = 1;
nodes = (
(661,0,l),
(1042,1490,l),
(1191,1490,l),
(811,0,l)
);
},
{
closed = 1;
nodes = (
(22,413,l),
(59,560,l),
(1173,560,l),
(1135,413,l)
);
},
{
closed = 1;
nodes = (
(138,0,l),
(519,1490,l),
(667,1490,l),
(287,0,l)
);
},
{
closed = 1;
nodes = (
(157,929,l),
(194,1078,l),
(1307,1078,l),
(1270,929,l)
);
}
);
width = 1263;
},
{
layerId = "CFE5CAE0-9991-40C5-8AD5-14528CBB0784";
shapes = (
{
closed = 1;
nodes = (
(699,0,l),
(1080,1490,l),
(1126,1490,l),
(746,0,l)
);
},
{
closed = 1;
nodes = (
(22,463,l),
(36,511,l),
(1146,511,l),
(1134,463,l)
);
},
{
closed = 1;
nodes = (
(175,0,l),
(556,1490,l),
(602,1490,l),
(222,0,l)
);
},
{
closed = 1;
nodes = (
(154,981,l),
(167,1027,l),
(1278,1027,l),
(1266,981,l)
);
}
);
width = 1235;
}
);
unicode = 35;
}
{
glyphname = percent;
layers = (
{
layerId = "7120DA8A-778D-4421-9957-14EBB73F7FEE";
shapes = (
{
closed = 1;
nodes = (
(456,719,o),
(394,735,o),
(345,767,cs),
(246,830,o),
(203,945,o),
(227,1088,cs),
(236,1142,ls),
(248,1215,o),
(274,1279,o),
(313,1335,cs),
(392,1446,o),
(515,1514,o),
(662,1514,cs),
(737,1514,o),
(799,1498,o),
(848,1466,cs),
(947,1402,o),
(990,1287,o),
(966,1142,cs),
(957,1088,ls),
(945,1016,o),
(919,952,o),
(880,897,cs),
(801,785,o),
(678,719,o),
(530,719,cs)
);
},
{
closed = 1;
nodes = (
(604,946,o),
(634,959,o),
(655,985,cs),
(676,1011,o),
(689,1045,o),
(696,1088,cs),
(705,1142,ls),
(712,1185,o),
(710,1221,o),
(698,1248,cs),
(686,1275,o),
(661,1288,o),
(624,1288,cs),
(588,1288,o),
(559,1274,o),
(538,1247,cs),
(517,1220,o),
(502,1185,o),
(495,1142,cs),
(486,1088,ls),
(479,1045,o),
(482,1011,o),
(495,985,cs),
(508,959,o),
(532,946,o),
(567,946,cs)
);
},
{
closed = 1;
nodes = (
(1442,-23,o),
(1380,-7,o),
(1331,25,cs),
(1232,88,o),
(1190,203,o),
(1213,346,cs),
(1222,400,ls),
(1234,473,o),
(1260,537,o),
(1300,593,cs),
(1379,704,o),
(1503,772,o),
(1648,772,cs),
(1723,772,o),
(1786,756,o),
(1835,724,cs),
(1934,660,o),
(1976,545,o),
(1952,400,cs),
(1943,346,ls),
(1932,274,o),
(1907,210,o),
(1868,155,cs),
(1790,43,o),
(1665,-23,o),
(1516,-23,cs)
);
},
{
closed = 1;
nodes = (
(1591,204,o),
(1620,217,o),
(1641,243,cs),
(1662,269,o),
(1677,303,o),
(1684,346,cs),
(1693,400,ls),
(1700,443,o),
(1698,479,o),
(1686,506,cs),
(1673,533,o),
(1648,546,o),
(1610,546,cs),
(1574,546,o),
(1546,532,o),
(1525,505,cs),
(1504,478,o),
(1490,443,o),
(1483,400,cs),
(1474,346,ls),
(1467,303,o),
(1469,269,o),
(1482,243,cs),
(1495,217,o),
(1519,204,o),
(1554,204,cs)
);
},
{
closed = 1;
nodes = (
(327,0,l),
(1598,1490,l),
(1847,1490,l),
(576,0,l)
);
}
);
width = 2112;
},
{
layerId = "496E469D-EE15-4086-9FDA-F7D1A66ADFFB";
shapes = (
{
closed = 1;
nodes = (
(460,767,o),
(404,782,o),
(359,812,cs),
(269,872,o),
(231,981,o),
(252,1112,cs),
(261,1166,ls),
(272,1233,o),
(296,1292,o),
(332,1345,cs),
(403,1449,o),
(517,1514,o),
(653,1514,cs),
(722,1514,o),
(779,1499,o),
(824,1469,cs),
(913,1408,o),
(951,1299,o),
(930,1166,cs),
(921,1112,ls),
(910,1047,o),
(886,988,o),
(851,936,cs),
(779,831,o),
(666,767,o),
(529,767,cs)
);
},
{
closed = 1;
nodes = (
(602,947,o),
(636,963,o),
(662,994,cs),
(687,1025,o),
(704,1064,o),
(711,1112,cs),
(720,1166,ls),
(729,1215,o),
(726,1256,o),
(711,1287,cs),
(696,1318,o),
(666,1334,o),
(623,1334,cs),
(581,1334,o),
(547,1318,o),
(521,1287,cs),
(495,1256,o),
(478,1215,o),
(469,1166,cs),
(460,1112,ls),
(453,1064,o),
(457,1025,o),
(472,994,cs),
(487,963,o),
(516,947,o),
(559,947,cs)
);
},
{
closed = 1;
nodes = (
(1341,-24,o),
(1285,-9,o),
(1240,21,cs),
(1150,81,o),
(1113,190,o),
(1133,322,cs),
(1142,376,ls),
(1153,442,o),
(1177,501,o),
(1213,554,cs),
(1285,658,o),
(1398,723,o),
(1534,723,cs),
(1604,723,o),
(1661,708,o),
(1706,678,cs),
(1795,617,o),
(1833,508,o),
(1810,376,cs),
(1801,322,ls),
(1791,256,o),
(1768,197,o),
(1733,145,cs),
(1661,40,o),
(1549,-24,o),
(1410,-24,cs)
);
},
{
closed = 1;
nodes = (
(1483,156,o),
(1517,172,o),
(1543,203,cs),
(1568,234,o),
(1585,273,o),
(1594,322,cs),
(1603,376,ls),
(1611,425,o),
(1608,465,o),
(1593,496,cs),
(1578,527,o),
(1548,543,o),
(1504,543,cs),
(1462,543,o),
(1428,527,o),
(1402,496,cs),
(1376,465,o),
(1359,425,o),
(1351,376,cs),
(1342,322,ls),
(1334,273,o),
(1338,234,o),
(1354,203,cs),
(1369,172,o),
(1398,156,o),
(1440,156,cs)
);
},
{
closed = 1;
nodes = (
(287,0,l),
(1558,1490,l),
(1770,1490,l),
(499,0,l)
);
}
);
width = 1996;
},
{
layerId = "C6CF8F4D-8996-4F76-ABC0-77690A781072";
shapes = (
{
closed = 1;
nodes = (
(465,818,o),
(413,832,o),
(373,861,cs),
(292,918,o),
(260,1020,o),
(280,1139,cs),
(289,1193,ls),
(299,1252,o),
(320,1306,o),
(352,1355,cs),
(416,1452,o),
(519,1514,o),
(644,1514,cs),
(707,1514,o),
(759,1500,o),
(799,1471,cs),
(878,1414,o),
(910,1312,o),
(890,1193,cs),
(881,1139,ls),
(871,1080,o),
(850,1026,o),
(819,977,cs),
(755,880,o),
(655,818,o),
(528,818,cs)
);
},
{
closed = 1;
nodes = (
(599,948,o),
(639,966,o),
(670,1003,cs),
(700,1039,o),
(719,1084,o),
(728,1139,cs),
(737,1193,ls),
(746,1248,o),
(742,1294,o),
(724,1330,cs),
(705,1366,o),
(671,1384,o),
(622,1384,cs),
(573,1384,o),
(533,1366,o),
(502,1330,cs),
(471,1294,o),
(450,1248,o),
(441,1193,cs),
(432,1139,ls),
(423,1084,o),
(428,1039,o),
(447,1003,cs),
(466,966,o),
(500,948,o),
(550,948,cs)
);
},
{
closed = 1;
nodes = (
(1232,-26,o),
(1180,-12,o),
(1140,17,cs),
(1059,74,o),
(1028,176,o),
(1047,295,cs),
(1056,349,ls),
(1066,408,o),
(1087,462,o),
(1120,511,cs),
(1184,608,o),
(1286,670,o),
(1411,670,cs),
(1474,670,o),
(1526,656,o),
(1566,627,cs),
(1646,570,o),
(1677,468,o),
(1657,349,cs),
(1648,295,ls),
(1639,236,o),
(1618,182,o),
(1587,133,cs),
(1523,36,o),
(1422,-26,o),
(1295,-26,cs)
);
},
{
closed = 1;
nodes = (
(1366,104,o),
(1406,122,o),
(1437,159,cs),
(1467,195,o),
(1487,240,o),
(1496,295,cs),
(1505,349,ls),
(1514,404,o),
(1510,450,o),
(1492,486,cs),
(1473,522,o),
(1439,540,o),
(1389,540,cs),
(1340,540,o),
(1301,522,o),
(1270,486,cs),
(1239,450,o),
(1218,404,o),
(1209,349,cs),
(1200,295,ls),
(1191,240,o),
(1195,195,o),
(1214,159,cs),
(1233,122,o),
(1267,104,o),
(1317,104,cs)
);
},
{
closed = 1;
nodes = (
(243,0,l),
(1514,1490,l),
(1686,1490,l),
(415,0,l)
);
}
);
width = 1870;
},
{
layerId = "CFE5CAE0-9991-40C5-8AD5-14528CBB0784";
shapes = (
{
closed = 1;
nodes = (
(438,879,o),
(395,892,o),
(360,917,cs),
(289,968,o),
(256,1062,o),
(276,1181,cs),
(280,1205,ls),
(291,1265,o),
(311,1318,o),
(340,1363,cs),
(399,1453,o),
(490,1506,o),
(590,1506,cs),
(640,1506,o),
(683,1493,o),
(718,1468,cs),
(788,1416,o),
(821,1323,o),
(801,1203,cs),
(797,1179,ls),
(787,1120,o),
(767,1067,o),
(737,1022,cs),
(677,931,o),
(588,879,o),
(489,879,cs)
);
},
{
closed = 1;
nodes = (
(556,924,o),
(611,948,o),
(660,996,cs),
(709,1043,o),
(739,1105,o),
(751,1181,cs),
(755,1205,ls),
(768,1282,o),
(758,1343,o),
(726,1390,cs),
(693,1437,o),
(646,1460,o),
(585,1460,cs),
(523,1460,o),
(468,1436,o),
(419,1389,cs),
(370,1342,o),
(339,1280,o),
(326,1203,cs),
(322,1179,ls),
(310,1103,o),
(320,1042,o),
(353,995,cs),
(385,948,o),
(432,924,o),
(494,924,cs)
);
},
{
closed = 1;
nodes = (
(1108,-15,o),
(1065,-2,o),
(1030,23,cs),
(959,74,o),
(927,168,o),
(946,287,cs),
(950,311,ls),
(961,371,o),
(981,424,o),
(1011,469,cs),
(1070,559,o),
(1160,612,o),
(1260,612,cs),
(1310,612,o),
(1353,599,o),
(1388,574,cs),
(1459,522,o),
(1491,429,o),
(1471,309,cs),
(1467,285,ls),
(1458,226,o),
(1438,173,o),
(1408,128,cs),
(1348,37,o),
(1258,-15,o),
(1159,-15,cs)
);
},
{
closed = 1;
nodes = (
(1226,30,o),
(1281,54,o),
(1330,102,cs),
(1379,149,o),
(1409,211,o),
(1422,287,cs),
(1426,311,ls),
(1439,388,o),
(1429,449,o),
(1397,496,cs),
(1364,543,o),
(1317,566,o),
(1255,566,cs),
(1193,566,o),
(1138,542,o),
(1089,495,cs),
(1040,448,o),
(1010,386,o),
(997,309,cs),
(993,285,ls),
(980,209,o),
(990,148,o),
(1023,101,cs),
(1055,54,o),
(1102,30,o),
(1164,30,cs)
);
},
{
closed = 1;
nodes = (
(212,0,l),
(1479,1490,l),
(1536,1490,l),
(267,0,l)
);
}
);
width = 1681;
}
);
unicode = 37;
}
{
glyphname = ampersand;
layers = (
{
layerId = "327A104B-2E28-4C21-9EEF-F371F9687223";
shapes = (
{
closed = 1;
nodes = (
(387,-24,o),
(295,-4,o),
(222,37,cs),
(74,117,o),
(6,259,o),
(33,423,cs),
(42,474,o),
(59,519,o),
(86,560,cs),
(138,640,o),
(224,708,o),
(336,777,c),
(711,985,ls),
(740,1002,o),
(764,1017,o),
(782,1031,cs),
(817,1059,o),
(833,1085,o),
(833,1116,cs),
(833,1140,o),
(823,1160,o),
(804,1175,cs),
(785,1190,o),
(759,1197,o),
(726,1197,cs),
(701,1197,o),
(679,1192,o),
(658,1183,c),
(616,1163,o),
(588,1125,o),
(588,1069,cs),
(588,1048,o),
(593,1024,o),
(602,999,cs),
(620,947,o),
(661,880,o),
(734,784,cs),
(1333,0,l),
(940,0,l),
(447,650,ls),
(423,683,o),
(396,722,o),
(367,769,cs),
(337,816,o),
(313,869,o),
(296,929,cs),
(279,989,o),
(276,1055,o),
(288,1127,cs),
(300,1198,o),
(328,1262,o),
(372,1321,cs),
(459,1438,o),
(599,1512,o),
(766,1512,cs),
(853,1512,o),
(926,1494,o),
(984,1458,cs),
(1099,1385,o),
(1150,1254,o),
(1125,1109,cs),
(1118,1064,o),
(1104,1022,o),
(1084,983,cs),
(1044,903,o),
(979,834,o),
(884,774,cs),
(537,557,ls),
(494,529,o),
(462,502,o),
(443,477,cs),
(423,452,o),
(413,424,o),
(413,393,cs),
(413,371,o),
(418,353,o),
(427,338,cs),
(446,308,o),
(482,291,o),
(533,291,cs),
(641,291,o),
(759,347,o),
(860,438,cs),
(960,529,o),
(1037,650,o),
(1058,777,c),
(1376,777,l),
(1362,688,o),
(1340,603,o),
(1310,522,cs),
(1250,360,o),
(1154,223,o),
(1011,132,c),
(889,82,l),
(823,43,o),
(756,15,o),
(687,-1,cs),
(618,-16,o),
(555,-24,o),
(498,-24,cs)
);
}
);
width = 1403;
},
{
layerId = "E369B2B9-8A8B-4879-8879-CDDEC6ABDA8D";
shapes = (
{
closed = 1;
nodes = (
(385,-22,o),
(298,-3,o),
(228,36,cs),
(87,113,o),
(21,250,o),
(48,414,cs),
(57,467,o),
(76,515,o),
(103,557,cs),
(158,641,o),
(252,714,o),
(385,799,c),
(704,988,l),
(731,1005,o),
(755,1022,o),
(776,1039,cs),
(816,1073,o),
(843,1111,o),
(847,1156,c),
(851,1189,o),
(842,1217,o),
(819,1239,cs),
(796,1261,o),
(763,1272,o),
(722,1272,cs),
(691,1272,o),
(663,1266,o),
(636,1253,cs),
(582,1227,o),
(544,1177,o),
(539,1110,c),
(536,1085,o),
(540,1058,o),
(549,1031,cs),
(567,975,o),
(609,906,o),
(681,805,cs),
(1257,0,l),
(952,0,l),
(480,666,l),
(443,721,o),
(408,773,o),
(377,824,cs),
(346,874,o),
(322,926,o),
(307,979,cs),
(292,1032,o),
(289,1089,o),
(300,1152,cs),
(311,1220,o),
(337,1281,o),
(378,1335,cs),
(458,1443,o),
(589,1508,o),
(744,1508,cs),
(825,1508,o),
(893,1492,o),
(948,1459,cs),
(1056,1394,o),
(1106,1276,o),
(1083,1141,cs),
(1076,1098,o),
(1063,1058,o),
(1042,1019,cs),
(1001,942,o),
(933,874,o),
(840,813,cs),
(498,594,ls),
(443,558,o),
(402,524,o),
(376,492,cs),
(349,459,o),
(334,424,o),
(330,385,cs),
(327,352,o),
(332,322,o),
(346,297,cs),
(373,246,o),
(430,216,o),
(507,216,cs),
(620,216,o),
(742,272,o),
(843,365,cs),
(944,457,o),
(1020,583,o),
(1043,718,c),
(1290,718,l),
(1277,632,o),
(1256,554,o),
(1227,483,cs),
(1169,341,o),
(1085,230,o),
(978,155,c),
(893,107,l),
(832,62,o),
(766,30,o),
(694,9,cs),
(622,-12,o),
(554,-22,o),
(489,-22,cs)
);
}
);
width = 1388;
},
{
layerId = "844D73DB-7C23-43E4-9FB2-A17A73FD39D0";
shapes = (
{
closed = 1;
nodes = (
(383,-20,o),
(301,-2,o),
(234,35,cs),
(100,108,o),
(38,241,o),
(65,405,cs),
(74,460,o),
(93,510,o),
(122,554,cs),
(179,641,o),
(282,720,o),
(439,823,cs),
(697,991,ls),
(722,1008,o),
(747,1026,o),
(770,1047,cs),
(816,1087,o),
(852,1138,o),
(863,1199,cs),
(870,1243,o),
(861,1280,o),
(834,1309,cs),
(807,1338,o),
(769,1353,o),
(718,1353,cs),
(680,1353,o),
(645,1345,o),
(612,1328,cs),
(546,1295,o),
(498,1232,o),
(485,1155,cs),
(480,1124,o),
(482,1094,o),
(491,1065,cs),
(508,1005,o),
(552,935,o),
(623,828,cs),
(1174,0,l),
(966,0,l),
(516,684,ls),
(465,763,o),
(422,829,o),
(389,883,cs),
(355,937,o),
(332,987,o),
(319,1033,cs),
(306,1078,o),
(303,1127,o),
(312,1180,cs),
(323,1245,o),
(348,1301,o),
(385,1350,cs),
(459,1447,o),
(577,1504,o),
(720,1504,cs),
(795,1504,o),
(858,1490,o),
(909,1461,cs),
(1011,1404,o),
(1058,1300,o),
(1037,1176,c),
(1031,1135,o),
(1017,1095,o),
(996,1058,cs),
(953,983,o),
(885,917,o),
(792,856,cs),
(456,635,ls),
(388,590,o),
(337,547,o),
(303,508,cs),
(269,468,o),
(248,424,o),
(241,377,cs),
(234,331,o),
(239,290,o),
(257,253,cs),
(293,180,o),
(372,134,o),
(479,134,cs),
(599,134,o),
(723,190,o),
(825,285,cs),
(927,380,o),
(1003,510,o),
(1027,655,c),
(1197,655,l),
(1184,572,o),
(1163,501,o),
(1136,440,cs),
(1080,319,o),
(1009,236,o),
(942,179,c),
(898,135,l),
(843,84,o),
(777,45,o),
(702,19,cs),
(627,-7,o),
(553,-20,o),
(480,-20,cs)
);
}
);
width = 1372;
},
{
layerId = "AAF7CECC-D58D-4734-9D16-9C2B5AF74B2F";
shapes = (
{
closed = 1;
nodes = (
(350,-18,o),
(282,-1,o),
(223,34,cs),
(106,103,o),
(47,226,o),
(71,373,cs),
(79,422,o),
(96,466,o),
(122,507,cs),
(173,588,o),
(262,662,o),
(393,750,cs),
(636,912,ls),
(677,940,o),
(714,969,o),
(749,999,cs),
(818,1058,o),
(867,1125,o),
(882,1212,cs),
(895,1285,o),
(881,1346,o),
(841,1393,cs),
(800,1440,o),
(744,1463,o),
(671,1463,cs),
(622,1463,o),
(575,1452,o),
(531,1429,cs),
(443,1383,o),
(378,1301,o),
(361,1201,c),
(355,1161,o),
(358,1124,o),
(369,1090,cs),
(391,1022,o),
(441,952,o),
(504,849,cs),
(1035,0,l),
(979,0,l),
(466,824,ls),
(434,875,o),
(405,921,o),
(380,961,cs),
(354,1001,o),
(335,1041,o),
(323,1080,cs),
(311,1119,o),
(309,1161,o),
(316,1208,cs),
(326,1265,o),
(348,1317,o),
(383,1362,cs),
(451,1453,o),
(559,1508,o),
(672,1508,cs),
(731,1508,o),
(781,1495,o),
(822,1469,cs),
(905,1416,o),
(947,1321,o),
(927,1204,c),
(920,1156,o),
(903,1113,o),
(877,1074,cs),
(825,997,o),
(748,933,o),
(660,874,cs),
(419,712,ls),
(324,649,o),
(253,592,o),
(205,541,cs),
(156,490,o),
(127,431,o),
(116,366,cs),
(106,303,o),
(113,246,o),
(137,195,cs),
(185,93,o),
(290,29,o),
(430,29,cs),
(575,29,o),
(709,89,o),
(817,191,cs),
(924,293,o),
(1004,434,o),
(1043,597,c),
(1089,593,l),
(1078,544,o),
(1063,496,o),
(1043,449,cs),
(1003,355,o),
(951,270,o),
(890,201,c),
(874,185,l),
(821,128,o),
(756,80,o),
(680,41,cs),
(604,2,o),
(520,-18,o),
(429,-18,cs)
);
}
);
width = 1196;
}
);
unicode = 38;
}
{
glyphname = quotesingle;
layers = (
{
layerId = "7120DA8A-778D-4421-9957-14EBB73F7FEE";
shapes = (
{
closed = 1;
nodes = (
(244,853,l),
(313,1490,l),
(675,1490,l),
(533,853,l)
);
}
);
width = 674;
},
{
layerId = "496E469D-EE15-4086-9FDA-F7D1A66ADFFB";
shapes = (
{
closed = 1;
nodes = (
(262,901,l),
(331,1490,l),
(606,1490,l),
(479,901,l)
);
}
);
width = 623;
},
{
layerId = "C6CF8F4D-8996-4F76-ABC0-77690A781072";
shapes = (
{
closed = 1;
nodes = (
(282,954,l),
(350,1490,l),
(531,1490,l),
(421,954,l)
);
}
);
width = 567;
},
{
layerId = "CFE5CAE0-9991-40C5-8AD5-14528CBB0784";
shapes = (
{
closed = 1;
nodes = (
(325,1049,l),
(393,1490,l),
(443,1490,l),
(365,1049,l)
);
}
);
width = 522;
}
);
leftKerningGroup = quotedbl2;
rightKerningGroup = quotedbl;
unicode = 39;
}
{
glyphname = slash;
layers = (
{
layerId = "327A104B-2E28-4C21-9EEF-F371F9687223";
shapes = (
{
closed = 1;
nodes = (
(993,1560,l),
(218,-224,l),
(-122,-224,l),
(653,1560,l)
);
}
);
width = 828;
},
{
layerId = "E369B2B9-8A8B-4879-8879-CDDEC6ABDA8D";
shapes = (
{
closed = 1;
nodes = (
(920,1560,l),
(145,-224,l),
(-110,-224,l),
(665,1560,l)
);
}
);
width = 768;
},
{
layerId = "844D73DB-7C23-43E4-9FB2-A17A73FD39D0";
shapes = (
{
closed = 1;
nodes = (
(841,1560,l),
(66,-224,l),
(-96,-224,l),
(679,1560,l)
);
}
);
width = 702;
},
{
layerId = "AAF7CECC-D58D-4734-9D16-9C2B5AF74B2F";
shapes = (
{
closed = 1;
nodes = (
(733,1560,l),
(-43,-224,l),
(-93,-224,l),
(682,1560,l)
);
}
);
width = 598;
}
);
unicode = 47;
}
{
glyphname = zero.tf;
layers = (
{
anchors = (
{
name = m.uni0302_1;
position = "{819, 1490}";
}
);
layerId = "327A104B-2E28-4C21-9EEF-F371F9687223";
shapes = (
{
closed = 1;
nodes = (
(472,-22,o),
(374,0,o),
(296,45,cs),
(139,134,o),
(62,307,o),
(62,544,cs),
(62,712,o),
(94,899,o),
(164,1067,cs),
(199,1150,o),
(245,1226,o),
(303,1294,cs),
(418,1429,o),
(580,1512,o),
(803,1512,cs),
(921,1512,o),
(1019,1490,o),
(1097,1445,cs),
(1252,1356,o),
(1330,1185,o),
(1330,946,cs),
(1330,862,o),
(1322,775,o),
(1306,685,cs),
(1290,594,o),
(1264,507,o),
(1229,424,cs),
(1194,340,o),
(1147,264,o),
(1090,197,cs),
(975,62,o),
(812,-22,o),
(589,-22,cs)
);
},
{
closed = 1;
nodes = (
(655,302,o),
(700,319,o),
(738,352,cs),
(776,385,o),
(808,428,o),
(834,481,cs),
(860,534,o),
(881,591,o),
(897,652,cs),
(928,774,o),
(941,895,o),
(941,976,cs),
(941,1048,o),
(929,1102,o),
(905,1137,cs),
(881,1172,o),
(843,1190,o),
(790,1190,cs),
(685,1190,o),
(609,1117,o),
(558,1012,cs),
(532,959,o),
(511,903,o),
(496,842,cs),
(480,781,o),
(469,721,o),
(462,664,cs),
(455,606,o),
(452,557,o),
(452,517,cs),
(452,445,o),
(464,391,o),
(488,356,c),
(511,320,o),
(549,302,o),
(602,302,cs)
);
}
);
width = 1324;
},
{
anchors = (
{
name = m.uni0302_1;
position = "{819, 1490}";
}
);
layerId = "E369B2B9-8A8B-4879-8879-CDDEC6ABDA8D";
shapes = (
{
closed = 1;
nodes = (
(479,-22,o),
(390,0,o),
(319,44,cs),
(175,132,o),
(102,301,o),
(102,533,cs),
(102,696,o),
(133,882,o),
(201,1053,cs),
(235,1138,o),
(280,1216,o),
(335,1286,cs),
(446,1425,o),
(599,1512,o),
(807,1512,cs),
(913,1512,o),
(1002,1490,o),
(1073,1446,cs),
(1216,1358,o),
(1289,1189,o),
(1289,956,cs),
(1289,875,o),
(1281,790,o),
(1266,700,cs),
(1250,610,o),
(1225,523,o),
(1191,438,cs),
(1157,353,o),
(1113,275,o),
(1058,206,cs),
(948,66,o),
(793,-22,o),
(584,-22,cs)
);
},
{
closed = 1;
nodes = (
(655,225,o),
(709,243,o),
(754,278,cs),
(799,313,o),
(838,360,o),
(870,417,cs),
(902,474,o),
(928,536,o),
(948,603,cs),
(987,738,o),
(1003,874,o),
(1003,973,cs),
(1003,1069,o),
(986,1142,o),
(952,1192,cs),
(918,1242,o),
(867,1267,o),
(798,1267,cs),
(675,1267,o),
(585,1190,o),
(522,1075,cs),
(490,1018,o),
(464,956,o),
(445,889,cs),
(425,822,o),
(411,755,o),
(402,690,cs),
(393,625,o),
(389,568,o),
(389,519,cs),
(389,423,o),
(406,350,o),
(440,300,cs),
(474,250,o),
(525,225,o),
(594,225,cs)
);
}
);
width = 1324;
},
{
anchors = (
{
name = m.uni0302_1;
position = "{819, 1490}";
}
);
layerId = "844D73DB-7C23-43E4-9FB2-A17A73FD39D0";
shapes = (
{
closed = 1;
nodes = (
(486,-22,o),
(408,-1,o),
(344,43,cs),
(215,129,o),
(146,294,o),
(146,522,cs),
(146,678,o),
(177,865,o),
(243,1039,cs),
(276,1126,o),
(318,1205,o),
(371,1277,cs),
(475,1420,o),
(620,1512,o),
(812,1512,cs),
(905,1512,o),
(983,1490,o),
(1048,1447,cs),
(1176,1360,o),
(1245,1195,o),
(1245,966,cs),
(1245,889,o),
(1237,806,o),
(1222,717,cs),
(1207,628,o),
(1183,540,o),
(1150,453,cs),
(1117,366,o),
(1074,286,o),
(1022,215,cs),
(918,71,o),
(772,-22,o),
(579,-22,cs)
);
},
{
closed = 1;
nodes = (
(656,141,o),
(719,160,o),
(772,198,cs),
(825,236,o),
(871,286,o),
(909,348,cs),
(947,409,o),
(978,477,o),
(1002,551,cs),
(1050,699,o),
(1071,851,o),
(1071,970,cs),
(1071,1091,o),
(1049,1185,o),
(1004,1251,cs),
(959,1317,o),
(893,1350,o),
(806,1350,cs),
(665,1350,o),
(558,1267,o),
(483,1143,cs),
(445,1081,o),
(414,1013,o),
(390,940,cs),
(366,866,o),
(349,792,o),
(338,719,cs),
(327,646,o),
(321,580,o),
(321,521,cs),
(321,400,o),
(344,306,o),
(389,240,cs),
(434,174,o),
(499,141,o),
(585,141,cs)
);
}
);
width = 1324;
},
{
anchors = (
{
name = m.uni0302_1;
position = "{820, 1490}";
}
);
layerId = "AAF7CECC-D58D-4734-9D16-9C2B5AF74B2F";
shapes = (
{
closed = 1;
nodes = (
(493,-18,o),
(425,4,o),
(369,47,cs),
(256,133,o),
(194,294,o),
(194,513,cs),
(194,670,o),
(228,858,o),
(294,1033,cs),
(327,1120,o),
(368,1200,o),
(419,1272,cs),
(519,1416,o),
(653,1508,o),
(822,1508,cs),
(901,1508,o),
(969,1487,o),
(1025,1444,cs),
(1137,1359,o),
(1198,1198,o),
(1198,979,cs),
(1198,904,o),
(1190,821,o),
(1175,732,cs),
(1159,642,o),
(1135,553,o),
(1102,465,cs),
(1069,377,o),
(1028,297,o),
(979,224,cs),
(880,78,o),
(745,-18,o),
(572,-18,cs)
);
},
{
closed = 1;
nodes = (
(654,28,o),
(726,49,o),
(789,92,cs),
(852,135,o),
(906,191,o),
(952,262,cs),
(998,332,o),
(1036,410,o),
(1066,495,cs),
(1125,665,o),
(1153,841,o),
(1153,984,cs),
(1153,1135,o),
(1124,1252,o),
(1066,1337,cs),
(1008,1421,o),
(926,1463,o),
(821,1463,cs),
(660,1463,o),
(533,1370,o),
(441,1229,cs),
(395,1158,o),
(357,1081,o),
(328,997,cs),
(298,912,o),
(276,827,o),
(261,742,cs),
(246,656,o),
(239,577,o),
(239,506,cs),
(239,356,o),
(268,239,o),
(327,155,cs),
(386,70,o),
(468,28,o),
(573,28,cs)
);
}
);
width = 1324;
}
);
unicode = (48,57457);
}
{
glyphname = one.tf.ss01;
layers = (
{
layerId = "7120DA8A-778D-4421-9957-14EBB73F7FEE";
shapes = (
{
closed = 1;
nodes = (
(413,0,l),
(581,1018,l),
(588,930,l),
(241,929,l),
(291,1236,l),
(361,1236,ls),
(566,1236,o),
(682,1315,o),
(711,1473,c),
(713,1489,l),
(1060,1489,l),
(814,0,l)
);
},
{
closed = 1;
nodes = (
(66,0,l),
(119,322,l),
(1174,322,l),
(1121,0,l)
);
}
);
width = 1324;
},
{
layerId = "496E469D-EE15-4086-9FDA-F7D1A66ADFFB";
shapes = (
{
closed = 1;
nodes = (
(467,0,l),
(650,1110,l),
(660,1020,l),
(287,1019,l),
(326,1251,l),
(427,1251,ls),
(609,1251,o),
(712,1320,o),
(736,1457,cs),
(741,1489,l),
(1008,1489,l),
(762,0,l)
);
},
{
closed = 1;
nodes = (
(98,0,l),
(138,244,l),
(1129,244,l),
(1089,0,l)
);
}
);
width = 1324;
},
{
layerId = "C6CF8F4D-8996-4F76-ABC0-77690A781072";
shapes = (
{
closed = 1;
nodes = (
(526,0,l),
(724,1210,l),
(738,1117,l),
(336,1117,l),
(363,1267,l),
(499,1267,ls),
(656,1267,o),
(745,1324,o),
(764,1439,cs),
(772,1490,l),
(952,1490,l),
(706,0,l)
);
},
{
closed = 1;
nodes = (
(133,0,l),
(159,160,l),
(1080,160,l),
(1054,0,l)
);
}
);
width = 1324;
},
{
layerId = "CFE5CAE0-9991-40C5-8AD5-14528CBB0784";
shapes = (
{
closed = 1;
nodes = (
(567,0,l),
(766,1205,l),
(771,1199,l),
(378,1199,l),
(386,1244,l),
(627,1244,ls),
(728,1244,o),
(788,1306,o),
(808,1430,cs),
(818,1490,l),
(859,1490,l),
(613,0,l)
);
},
{
closed = 1;
nodes = (
(163,0,l),
(171,46,l),
(988,46,l),
(980,0,l)
);
}
);
width = 1324;
}
);
unicode = (49,57458,57468);
}
{
glyphname = question;
layers = (
{
layerId = "327A104B-2E28-4C21-9EEF-F371F9687223";
shapes = (
{
closed = 1;
nodes = (
(396,482,l),
(401,515,l),
(414,586,o),
(430,643,o),
(450,687,cs),
(470,731,o),
(497,768,o),
(530,798,cs),
(563,827,o),
(606,855,o),
(657,880,c),
(708,907,o),
(749,935,o),
(780,964,cs),
(811,993,o),
(830,1027,o),
(836,1064,cs),
(841,1091,o),
(838,1115,o),
(829,1135,cs),
(810,1175,o),
(768,1199,o),
(712,1199,cs),
(681,1199,o),
(653,1192,o),
(626,1179,c),
(572,1151,o),
(535,1102,o),
(524,1038,c),
(152,1038,l),
(169,1139,o),
(204,1224,o),
(256,1295,cs),
(359,1435,o),
(524,1510,o),
(728,1510,cs),
(833,1510,o),
(927,1494,o),
(1010,1461,cs),
(1092,1428,o),
(1154,1382,o),
(1197,1321,cs),
(1240,1260,o),
(1254,1186,o),
(1240,1101,cs),
(1227,1018,o),
(1196,947,o),
(1149,889,cs),
(1102,831,o),
(1041,782,o),
(966,741,c),
(926,718,o),
(890,695,o),
(858,673,cs),
(826,650,o),
(800,626,o),
(781,599,cs),
(761,572,o),
(748,541,o),
(741,504,cs),
(737,482,l)
);
},
{
closed = 1;
nodes = (
(425,-21,o),
(378,-2,o),
(345,36,cs),
(312,74,o),
(300,123,o),
(309,183,cs),
(318,242,o),
(346,290,o),
(393,329,cs),
(439,367,o),
(493,386,o),
(554,386,cs),
(615,386,o),
(663,367,o),
(696,329,cs),
(729,290,o),
(741,242,o),
(731,183,cs),
(721,123,o),
(693,74,o),
(648,36,cs),
(602,-2,o),
(548,-21,o),
(486,-21,cs)
);
}
);
width = 1234;
},
{
layerId = "E369B2B9-8A8B-4879-8879-CDDEC6ABDA8D";
shapes = (
{
closed = 1;
nodes = (
(391,462,l),
(397,501,ls),
(410,578,o),
(429,638,o),
(452,683,cs),
(475,727,o),
(504,763,o),
(540,792,cs),
(576,821,o),
(619,849,o),
(670,876,c),
(723,906,o),
(766,939,o),
(799,975,cs),
(831,1010,o),
(851,1050,o),
(858,1093,cs),
(864,1130,o),
(861,1162,o),
(848,1189,cs),
(823,1242,o),
(765,1273,o),
(688,1273,cs),
(647,1273,o),
(610,1265,o),
(575,1248,cs),
(506,1215,o),
(455,1151,o),
(439,1060,c),
(157,1060,l),
(174,1155,o),
(207,1236,o),
(257,1303,cs),
(356,1438,o),
(512,1511,o),
(701,1511,cs),
(798,1511,o),
(882,1495,o),
(955,1462,cs),
(1028,1429,o),
(1082,1382,o),
(1119,1322,cs),
(1155,1262,o),
(1166,1192,o),
(1153,1111,cs),
(1140,1031,o),
(1111,962,o),
(1064,903,cs),
(1017,844,o),
(957,793,o),
(882,752,c),
(838,726,o),
(801,702,o),
(770,679,cs),
(739,656,o),
(715,630,o),
(697,601,cs),
(679,572,o),
(666,536,o),
(658,492,cs),
(653,462,l)
);
},
{
closed = 1;
nodes = (
(395,-18,o),
(357,-2,o),
(330,30,cs),
(303,62,o),
(293,102,o),
(300,150,cs),
(307,198,o),
(330,238,o),
(369,270,cs),
(407,302,o),
(451,318,o),
(500,318,cs),
(549,318,o),
(588,302,o),
(615,270,cs),
(642,238,o),
(652,198,o),
(644,150,cs),
(636,102,o),
(613,62,o),
(576,30,cs),
(538,-2,o),
(494,-18,o),
(444,-18,cs)
);
}
);
width = 1150;
},
{
layerId = "844D73DB-7C23-43E4-9FB2-A17A73FD39D0";
shapes = (
{
closed = 1;
nodes = (
(385,441,l),
(392,486,l),
(407,569,o),
(427,632,o),
(454,677,cs),
(480,722,o),
(512,758,o),
(551,786,cs),
(590,813,o),
(634,842,o),
(685,872,cs),
(741,906,o),
(786,944,o),
(819,986,cs),
(852,1028,o),
(873,1074,o),
(881,1125,cs),
(889,1172,o),
(885,1213,o),
(869,1247,cs),
(836,1315,o),
(762,1354,o),
(661,1354,cs),
(610,1354,o),
(563,1344,o),
(520,1324,cs),
(433,1283,o),
(370,1203,o),
(347,1083,c),
(162,1083,l),
(179,1172,o),
(211,1248,o),
(258,1312,cs),
(353,1440,o),
(499,1512,o),
(671,1512,cs),
(758,1512,o),
(833,1495,o),
(896,1462,cs),
(959,1429,o),
(1005,1383,o),
(1034,1324,cs),
(1063,1265,o),
(1072,1198,o),
(1059,1122,cs),
(1047,1045,o),
(1018,977,o),
(972,918,cs),
(926,858,o),
(866,806,o),
(792,763,cs),
(743,734,o),
(704,708,o),
(675,685,cs),
(645,661,o),
(622,634,o),
(606,603,cs),
(590,572,o),
(577,530,o),
(568,478,cs),
(562,441,l)
);
},
{
closed = 1;
nodes = (
(363,-15,o),
(335,-2,o),
(314,23,cs),
(293,48,o),
(285,79,o),
(291,115,cs),
(296,151,o),
(314,182,o),
(344,207,cs),
(373,232,o),
(406,245,o),
(442,245,cs),
(479,245,o),
(507,232,o),
(528,207,cs),
(549,182,o),
(556,151,o),
(550,115,cs),
(544,79,o),
(527,48,o),
(498,23,cs),
(469,-2,o),
(436,-15,o),
(399,-15,cs)
);
}
);
width = 1060;
},
{
layerId = "AAF7CECC-D58D-4734-9D16-9C2B5AF74B2F";
shapes = (
{
closed = 1;
nodes = (
(392,443,l),
(409,544,ls),
(416,589,o),
(429,629,o),
(447,664,cs),
(465,699,o),
(491,732,o),
(526,764,cs),
(560,795,o),
(605,829,o),
(660,864,cs),
(743,915,o),
(802,963,o),
(838,1007,cs),
(873,1051,o),
(895,1099,o),
(904,1151,cs),
(914,1214,o),
(908,1268,o),
(887,1315,cs),
(843,1408,o),
(748,1465,o),
(623,1465,cs),
(557,1465,o),
(496,1450,o),
(439,1420,cs),
(326,1359,o),
(245,1251,o),
(222,1119,c),
(176,1119,l),
(189,1194,o),
(216,1261,o),
(259,1320,cs),
(343,1438,o),
(475,1510,o),
(623,1510,cs),
(694,1510,o),
(757,1494,o),
(810,1463,cs),
(863,1432,o),
(903,1389,o),
(929,1334,cs),
(954,1279,o),
(961,1217,o),
(949,1147,cs),
(938,1084,o),
(913,1028,o),
(874,980,cs),
(834,932,o),
(769,880,o),
(680,823,cs),
(629,790,o),
(588,759,o),
(558,732,cs),
(528,705,o),
(505,677,o),
(490,648,cs),
(475,619,o),
(464,584,o),
(457,544,cs),
(440,443,l)
);
},
{
closed = 1;
nodes = (
(326,-10,o),
(315,-5,o),
(306,6,cs),
(297,16,o),
(294,29,o),
(297,44,cs),
(299,59,o),
(306,71,o),
(319,82,cs),
(331,92,o),
(344,97,o),
(359,97,cs),
(374,97,o),
(386,92,o),
(395,82,cs),
(404,71,o),
(406,59,o),
(403,44,cs),
(400,29,o),
(393,16,o),
(382,6,cs),
(370,-5,o),
(356,-10,o),
(341,-10,cs)
);
}
);
width = 951;
}
);
leftKerningGroup = uni203D_2;
rightKerningGroup = uni203D;
unicode = 63;
}
{
glyphname = at;
layers = (
{
layerId = "7120DA8A-778D-4421-9957-14EBB73F7FEE";
shapes = (
{
closed = 1;
nodes = (
(620,-453,o),
(374,-362,o),
(218,-194,cs),
(62,-26,o),
(3,217,o),
(52,520,cs),
(101,817,o),
(230,1064,o),
(429,1241,cs),
(528,1329,o),
(645,1397,o),
(778,1445,cs),
(911,1493,o),
(1058,1517,o),
(1221,1517,cs),
(1526,1517,o),
(1768,1429,o),
(1924,1270,cs),
(2080,1110,o),
(2147,884,o),
(2100,604,cs),
(2069,413,o),
(2000,264,o),
(1901,163,cs),
(1802,62,o),
(1675,9,o),
(1527,9,cs),
(1476,9,o),
(1431,15,o),
(1394,28,cs),
(1319,53,o),
(1276,102,o),
(1275,170,c),
(1270,170,l),
(1245,123,o),
(1204,84,o),
(1145,54,cs),
(1086,24,o),
(1016,9,o),
(934,9,cs),
(839,9,o),
(760,30,o),
(697,73,cs),
(633,115,o),
(588,175,o),
(561,252,cs),
(534,329,o),
(530,421,o),
(547,527,cs),
(566,638,o),
(602,732,o),
(656,809,cs),
(710,886,o),
(775,945,o),
(852,985,cs),
(929,1025,o),
(1010,1045,o),
(1097,1045,cs),
(1164,1045,o),
(1222,1034,o),
(1269,1011,cs),
(1316,988,o),
(1345,957,o),
(1358,917,c),
(1365,917,l),
(1382,1023,l),
(1634,1023,l),
(1520,335,ls),
(1515,308,o),
(1517,290,o),
(1525,281,cs),
(1533,272,o),
(1546,268,o),
(1563,268,cs),
(1598,268,o),
(1629,280,o),
(1657,305,cs),
(1713,354,o),
(1755,451,o),
(1776,584,cs),
(1811,791,o),
(1779,950,o),
(1684,1056,cs),
(1588,1162,o),
(1434,1216,o),
(1222,1216,cs),
(1106,1216,o),
(1000,1200,o),
(905,1169,cs),
(810,1137,o),
(726,1091,o),
(653,1032,cs),
(508,913,o),
(415,741,o),
(379,529,cs),
(344,314,o),
(378,144,o),
(479,28,cs),
(579,-89,o),
(745,-151,o),
(972,-151,cs),
(1029,-151,o),
(1083,-148,o),
(1136,-142,cs),
(1240,-129,o),
(1332,-105,o),
(1400,-77,c),
(1480,-345,l),
(1443,-361,o),
(1399,-377,o),
(1347,-394,cs),
(1243,-427,o),
(1108,-453,o),
(937,-453,cs)
);
},
{
closed = 1;
nodes = (
(1054,289,o),
(1095,298,o),
(1132,317,cs),
(1204,354,o),
(1255,427,o),
(1271,527,cs),
(1280,578,o),
(1279,620,o),
(1270,655,c),
(1250,724,o),
(1196,762,o),
(1103,762,cs),
(1056,762,o),
(1013,753,o),
(976,735,cs),
(939,717,o),
(908,691,o),
(884,656,cs),
(860,621,o),
(844,578,o),
(835,527,cs),
(826,477,o),
(827,434,o),
(837,399,cs),
(856,328,o),
(914,289,o),
(1009,289,cs)
);
}
);
width = 2145;
},
{
layerId = "496E469D-EE15-4086-9FDA-F7D1A66ADFFB";
shapes = (
{
closed = 1;
nodes = (
(609,-427,o),
(377,-337,o),
(230,-173,cs),
(83,-8,o),
(28,230,o),
(76,523,cs),
(124,812,o),
(251,1050,o),
(443,1220,cs),
(539,1305,o),
(650,1370,o),
(776,1416,cs),
(902,1461,o),
(1041,1484,o),
(1192,1484,cs),
(1479,1484,o),
(1701,1393,o),
(1842,1236,cs),
(1983,1079,o),
(2042,861,o),
(1998,601,cs),
(1971,429,o),
(1912,285,o),
(1827,182,cs),
(1742,78,o),
(1626,21,o),
(1482,21,cs),
(1427,21,o),
(1382,29,o),
(1346,44,cs),
(1274,74,o),
(1239,128,o),
(1238,189,c),
(1234,189,l),
(1209,143,o),
(1169,104,o),
(1113,72,cs),
(1057,39,o),
(989,23,o),
(909,23,cs),
(818,23,o),
(742,45,o),
(683,88,cs),
(624,131,o),
(582,191,o),
(559,267,cs),
(535,343,o),
(531,430,o),
(547,529,cs),
(564,631,o),
(599,719,o),
(650,794,cs),
(701,869,o),
(763,926,o),
(837,967,cs),
(910,1008,o),
(989,1028,o),
(1072,1028,cs),
(1139,1028,o),
(1194,1016,o),
(1238,992,cs),
(1281,968,o),
(1310,939,o),
(1323,905,c),
(1329,905,l),
(1346,1005,l),
(1553,1005,l),
(1442,334,ls),
(1436,298,o),
(1438,271,o),
(1449,253,cs),
(1460,235,o),
(1480,226,o),
(1509,226,cs),
(1550,226,o),
(1587,240,o),
(1619,267,cs),
(1682,321,o),
(1727,430,o),
(1752,589,cs),
(1787,793,o),
(1755,960,o),
(1659,1076,cs),
(1563,1192,o),
(1406,1256,o),
(1187,1256,cs),
(1072,1256,o),
(966,1239,o),
(869,1206,cs),
(772,1173,o),
(687,1124,o),
(612,1061,cs),
(463,934,o),
(366,751,o),
(327,526,cs),
(290,299,o),
(324,118,o),
(427,-7,cs),
(530,-131,o),
(700,-198,o),
(933,-198,cs),
(990,-198,o),
(1045,-194,o),
(1099,-186,cs),
(1206,-170,o),
(1299,-145,o),
(1359,-122,c),
(1412,-330,l),
(1379,-343,o),
(1337,-358,o),
(1287,-373,cs),
(1186,-403,o),
(1058,-427,o),
(910,-427,cs)
);
},
{
closed = 1;
nodes = (
(1014,242,o),
(1060,253,o),
(1101,276,cs),
(1181,320,o),
(1236,407,o),
(1256,531,cs),
(1267,594,o),
(1267,645,o),
(1257,686,cs),
(1236,767,o),
(1176,809,o),
(1071,809,cs),
(1020,809,o),
(974,798,o),
(933,776,cs),
(892,753,o),
(858,721,o),
(831,680,cs),
(804,639,o),
(785,589,o),
(775,531,cs),
(766,472,o),
(766,422,o),
(775,379,cs),
(794,293,o),
(854,242,o),
(961,242,cs)
);
}
);
width = 2068;
},
{
layerId = "C6CF8F4D-8996-4F76-ABC0-77690A781072";
shapes = (
{
closed = 1;
nodes = (
(597,-398,o),
(380,-309,o),
(244,-149,cs),
(107,12,o),
(56,243,o),
(103,526,cs),
(148,806,o),
(274,1035,o),
(459,1197,cs),
(551,1278,o),
(656,1340,o),
(775,1383,cs),
(893,1426,o),
(1021,1448,o),
(1160,1448,cs),
(1428,1448,o),
(1629,1356,o),
(1754,1201,cs),
(1879,1045,o),
(1928,836,o),
(1888,597,cs),
(1864,446,o),
(1819,306,o),
(1748,202,cs),
(1676,97,o),
(1574,33,o),
(1433,33,cs),
(1375,33,o),
(1329,42,o),
(1295,60,cs),
(1226,96,o),
(1198,154,o),
(1198,209,c),
(1194,209,l),
(1169,164,o),
(1131,125,o),
(1078,91,cs),
(1025,56,o),
(959,39,o),
(881,39,cs),
(794,39,o),
(723,61,o),
(668,106,cs),
(613,150,o),
(576,209,o),
(556,284,cs),
(535,359,o),
(532,441,o),
(547,531,cs),
(562,624,o),
(594,706,o),
(643,778,cs),
(691,850,o),
(750,907,o),
(820,948,cs),
(890,989,o),
(965,1010,o),
(1044,1010,cs),
(1111,1010,o),
(1164,997,o),
(1205,972,cs),
(1245,947,o),
(1272,920,o),
(1285,893,c),
(1291,893,l),
(1306,986,l),
(1466,986,l),
(1357,332,ls),
(1350,287,o),
(1353,251,o),
(1366,223,cs),
(1379,194,o),
(1408,180,o),
(1451,180,cs),
(1499,180,o),
(1541,195,o),
(1577,225,cs),
(1648,285,o),
(1696,407,o),
(1727,594,cs),
(1762,795,o),
(1729,971,o),
(1633,1099,cs),
(1536,1226,o),
(1376,1300,o),
(1149,1300,cs),
(1034,1300,o),
(928,1282,o),
(830,1247,cs),
(731,1211,o),
(644,1159,o),
(567,1092,cs),
(414,957,o),
(311,763,o),
(271,522,cs),
(231,282,o),
(266,89,o),
(371,-44,cs),
(475,-176,o),
(650,-248,o),
(890,-248,cs),
(947,-248,o),
(1004,-243,o),
(1059,-234,cs),
(1169,-215,o),
(1263,-187,o),
(1315,-170,c),
(1339,-313,l),
(1308,-324,o),
(1269,-337,o),
(1221,-350,cs),
(1125,-377,o),
(1005,-398,o),
(881,-398,cs)
);
},
{
closed = 1;
nodes = (
(969,191,o),
(1022,204,o),
(1067,230,cs),
(1157,282,o),
(1215,385,o),
(1239,536,cs),
(1252,611,o),
(1253,673,o),
(1242,720,cs),
(1221,815,o),
(1154,859,o),
(1037,859,cs),
(982,859,o),
(932,846,o),
(887,819,cs),
(841,792,o),
(803,754,o),
(773,706,cs),
(742,657,o),
(722,600,o),
(711,535,cs),
(700,468,o),
(699,408,o),
(708,357,cs),
(727,253,o),
(791,191,o),
(908,191,cs)
);
}
);
width = 1985;
},
{
layerId = "CFE5CAE0-9991-40C5-8AD5-14528CBB0784";
shapes = (
{
closed = 1;
nodes = (
(586,-390,o),
(387,-290,o),
(256,-123,cs),
(125,45,o),
(71,271,o),
(112,523,cs),
(155,776,o),
(285,1002,o),
(471,1170,cs),
(564,1253,o),
(667,1319,o),
(780,1366,cs),
(893,1413,o),
(1010,1437,o),
(1133,1437,cs),
(1377,1437,o),
(1575,1337,o),
(1706,1170,cs),
(1837,1002,o),
(1893,776,o),
(1850,523,cs),
(1827,386,o),
(1773,269,o),
(1698,186,cs),
(1623,103,o),
(1528,56,o),
(1423,56,cs),
(1381,56,o),
(1348,64,o),
(1325,80,c),
(1277,111,o),
(1265,179,o),
(1282,288,c),
(1279,288,l),
(1236,213,o),
(1180,153,o),
(1112,108,cs),
(1044,63,o),
(969,40,o),
(887,40,cs),
(808,40,o),
(741,62,o),
(686,105,cs),
(631,148,o),
(591,206,o),
(567,279,cs),
(543,352,o),
(538,434,o),
(553,524,cs),
(568,613,o),
(600,695,o),
(648,768,cs),
(696,841,o),
(755,899,o),
(824,942,cs),
(893,985,o),
(968,1006,o),
(1047,1006,cs),
(1129,1006,o),
(1197,984,o),
(1250,939,cs),
(1303,894,o),
(1338,833,o),
(1357,758,c),
(1361,758,l),
(1398,989,l),
(1445,989,l),
(1328,288,ls),
(1317,218,o),
(1317,170,o),
(1330,143,cs),
(1343,116,o),
(1374,102,o),
(1423,102,cs),
(1484,102,o),
(1540,120,o),
(1593,155,cs),
(1698,225,o),
(1776,356,o),
(1804,524,cs),
(1844,765,o),
(1793,980,o),
(1670,1139,cs),
(1547,1298,o),
(1362,1391,o),
(1133,1391,cs),
(1018,1391,o),
(907,1369,o),
(800,1324,cs),
(692,1279,o),
(593,1218,o),
(504,1139,cs),
(324,981,o),
(198,766,o),
(158,523,cs),
(118,282,o),
(171,67,o),
(292,-92,cs),
(413,-250,o),
(601,-344,o),
(830,-344,cs),
(885,-344,o),
(940,-339,o),
(995,-328,cs),
(1105,-307,o),
(1214,-266,o),
(1311,-206,c),
(1332,-245,l),
(1281,-276,o),
(1227,-302,o),
(1172,-324,cs),
(1061,-367,o),
(946,-390,o),
(830,-390,cs)
);
},
{
closed = 1;
nodes = (
(957,86,o),
(1023,105,o),
(1084,144,cs),
(1206,221,o),
(1294,359,o),
(1321,524,cs),
(1335,606,o),
(1333,680,o),
(1316,746,cs),
(1280,877,o),
(1188,960,o),
(1048,960,cs),
(979,960,o),
(912,941,o),
(849,902,cs),
(785,863,o),
(731,810,o),
(687,745,cs),
(642,679,o),
(613,605,o),
(600,523,cs),
(586,442,o),
(589,368,o),
(609,302,cs),
(649,170,o),
(747,86,o),
(887,86,cs)
);
}
);
width = 1969;
}
);
leftKerningGroup = C2;
rightKerningGroup = D;
unicode = 64;
}
{
glyphname = D;
layers = (
{
anchors = (
{
name = m.uni0347;
position = "{580, 0}";
},
{
name = m.uni0302_1;
position = "{748, 1490}";
}
);
layerId = "7120DA8A-778D-4421-9957-14EBB73F7FEE";
shapes = (
{
closed = 1;
nodes = (
(169,0,l),
(225,344,l),
(615,344,ls),
(693,344,o),
(760,357,o),
(817,384,cs),
(930,436,o),
(1002,552,o),
(1033,744,cs),
(1050,842,o),
(1050,920,o),
(1033,979,cs),
(1000,1096,o),
(903,1146,o),
(740,1146,cs),
(352,1146,l),
(410,1490,l),
(797,1490,ls),
(951,1490,o),
(1081,1460,o),
(1187,1400,cs),
(1292,1339,o),
(1368,1253,o),
(1415,1142,cs),
(1462,1031,o),
(1472,898,o),
(1446,744,cs),
(1421,591,o),
(1374,459,o),
(1305,348,cs),
(1166,125,o),
(945,0,o),
(640,0,cs)
);
},
{
closed = 1;
nodes = (
(655,1490,l),
(408,0,l),
(-2,0,l),
(245,1490,l)
);
}
);
width = 1468;
},
{
anchors = (
{
name = m.uni0347;
position = "{580, 0}";
},
{
name = m.uni0302_1;
position = "{748, 1490}";
}
);
layerId = "496E469D-EE15-4086-9FDA-F7D1A66ADFFB";
shapes = (
{
closed = 1;
nodes = (
(173,0,l),
(215,258,l),
(584,258,ls),
(683,258,o),
(769,276,o),
(841,312,cs),
(985,384,o),
(1074,531,o),
(1109,746,cs),
(1127,855,o),
(1127,945,o),
(1108,1017,cs),
(1070,1161,o),
(957,1232,o),
(761,1232,cs),
(370,1232,l),
(413,1490,l),
(792,1490,ls),
(942,1490,o),
(1068,1460,o),
(1169,1400,cs),
(1270,1340,o),
(1342,1255,o),
(1385,1144,cs),
(1428,1033,o),
(1437,900,o),
(1411,745,cs),
(1386,591,o),
(1338,458,o),
(1269,347,cs),
(1130,124,o),
(908,0,o),
(604,0,cs)
);
},
{
closed = 1;
nodes = (
(583,1490,l),
(336,0,l),
(34,0,l),
(281,1490,l)
);
}
);
width = 1457;
},
{
anchors = (
{
name = m.uni0347;
position = "{580, 0}";
},
{
name = m.uni0302_1;
position = "{748, 1490}";
}
);
layerId = "C6CF8F4D-8996-4F76-ABC0-77690A781072";
shapes = (
{
closed = 1;
nodes = (
(178,0,l),
(204,164,l),
(551,164,ls),
(674,164,o),
(779,188,o),
(868,235,cs),
(1044,329,o),
(1152,508,o),
(1191,748,cs),
(1211,868,o),
(1210,971,o),
(1189,1058,cs),
(1145,1230,o),
(1015,1326,o),
(783,1326,cs),
(389,1326,l),
(417,1490,l),
(787,1490,ls),
(932,1490,o),
(1053,1460,o),
(1149,1401,cs),
(1245,1342,o),
(1313,1257,o),
(1353,1146,cs),
(1392,1035,o),
(1399,902,o),
(1373,747,cs),
(1348,591,o),
(1300,457,o),
(1230,346,cs),
(1090,123,o),
(866,0,o),
(565,0,cs)
);
},
{
closed = 1;
nodes = (
(506,1490,l),
(259,0,l),
(74,0,l),
(321,1490,l)
);
}
);
width = 1445;
},
{
anchors = (
{
name = m.uni0347;
position = "{529, 0}";
},
{
name = m.uni0302_1;
position = "{747, 1490}";
}
);
layerId = "CFE5CAE0-9991-40C5-8AD5-14528CBB0784";
shapes = (
{
closed = 1;
nodes = (
(135,0,l),
(142,46,l),
(504,46,ls),
(642,46,o),
(764,74,o),
(871,130,cs),
(1083,242,o),
(1223,458,o),
(1270,750,cs),
(1294,895,o),
(1292,1020,o),
(1263,1123,cs),
(1205,1330,o),
(1045,1444,o),
(785,1444,cs),
(373,1444,l),
(382,1490,l),
(785,1490,ls),
(923,1490,o),
(1036,1461,o),
(1123,1402,cs),
(1210,1343,o),
(1271,1259,o),
(1305,1149,cs),
(1339,1038,o),
(1343,905,o),
(1316,750,cs),
(1291,592,o),
(1242,457,o),
(1169,345,cs),
(1024,121,o),
(796,0,o),
(504,0,cs)
);
},
{
closed = 1;
nodes = (
(403,1490,l),
(156,0,l),
(110,0,l),
(357,1490,l)
);
}
);
width = 1397;
}
);
leftKerningGroup = B2;
rightKerningGroup = D;
unicode = 68;
}
{
glyphname = F;
layers = (
{
anchors = (
{
name = m.uni0347;
position = "{204, 0}";
},
{
name = m.uni0302_1;
position = "{787, 1490}";
}
);
layerId = "327A104B-2E28-4C21-9EEF-F371F9687223";
shapes = (
{
closed = 1;
nodes = (
(-2,0,l),
(245,1490,l),
(1329,1490,l),
(1273,1152,l),
(599,1152,l),
(549,851,l),
(1171,851,l),
(1116,524,l),
(495,524,l),
(408,0,l)
);
}
);
width = 1219;
},
{
anchors = (
{
name = m.uni0347;
position = "{204, 0}";
},
{
name = m.uni0302_1;
position = "{787, 1490}";
}
);
layerId = "E369B2B9-8A8B-4879-8879-CDDEC6ABDA8D";
shapes = (
{
closed = 1;
nodes = (
(34,0,l),
(281,1490,l),
(1286,1490,l),
(1244,1236,l),
(541,1236,l),
(476,839,l),
(1121,839,l),
(1079,591,l),
(435,591,l),
(336,0,l)
);
}
);
width = 1197;
},
{
anchors = (
{
name = m.uni0347;
position = "{204, 0}";
},
{
name = m.uni0302_1;
position = "{787, 1490}";
}
);
layerId = "844D73DB-7C23-43E4-9FB2-A17A73FD39D0";
shapes = (
{
closed = 1;
nodes = (
(74,0,l),
(321,1490,l),
(1240,1490,l),
(1213,1327,l),
(479,1327,l),
(396,827,l),
(1066,827,l),
(1039,664,l),
(369,664,l),
(259,0,l)
);
}
);
width = 1173;
},
{
anchors = (
{
name = m.uni0347;
position = "{171, 0}";
},
{
name = m.uni0302_1;
position = "{779, 1490}";
}
);
layerId = "AAF7CECC-D58D-4734-9D16-9C2B5AF74B2F";
shapes = (
{
closed = 1;
nodes = (
(110,0,l),
(357,1490,l),
(1187,1490,l),
(1180,1445,l),
(396,1445,l),
(285,776,l),
(987,776,l),
(979,731,l),
(277,731,l),
(156,0,l)
);
}
);
width = 1144;
}
);
leftKerningGroup = B2;
rightKerningGroup = F;
unicode = 70;
}
{
glyphname = G.1;
layers = (
{
anchors = (
{
name = m.uni0347;
position = "{678, 3}";
},
{
name = m.uni0302_1;
position = "{938, 1490}";
}
);
layerId = "7120DA8A-778D-4421-9957-14EBB73F7FEE";
shapes = (
{
closed = 1;
nodes = (
(516,-22,o),
(408,9,o),
(315,72,cs),
(222,134,o),
(155,222,o),
(113,337,cs),
(70,452,o),
(62,587,o),
(88,743,cs),
(129,991,o),
(241,1183,o),
(395,1314,cs),
(549,1445,o),
(739,1512,o),
(942,1512,cs),
(1121,1512,o),
(1271,1461,o),
(1376,1367,cs),
(1481,1273,o),
(1536,1143,o),
(1525,988,c),
(1109,988,l),
(1106,1040,o),
(1087,1083,o),
(1051,1112,cs),
(1015,1141,o),
(963,1156,o),
(895,1156,cs),
(827,1156,o),
(766,1140,o),
(713,1109,cs),
(660,1077,o),
(616,1030,o),
(581,969,cs),
(546,908,o),
(522,833,o),
(507,746,cs),
(492,659,o),
(492,584,o),
(507,523,cs),
(535,400,o),
(622,334,o),
(766,334,cs),
(823,334,o),
(872,343,o),
(915,361,cs),
(1000,397,o),
(1053,463,o),
(1068,548,c),
(1238,548,l),
(1222,449,ls),
(1198,301,o),
(1129,183,o),
(1026,103,cs),
(922,22,o),
(792,-22,o),
(641,-22,cs)
);
},
{
closed = 1;
nodes = (
(1126,0,l),
(1128,337,l),
(1161,540,l),
(797,540,l),
(846,832,l),
(1514,832,l),
(1376,0,l)
);
}
);
width = 1531;
},
{
anchors = (
{
name = m.uni0347;
position = "{678, 3}";
},
{
name = m.uni0302_1;
position = "{938, 1490}";
}
);
layerId = "496E469D-EE15-4086-9FDA-F7D1A66ADFFB";
shapes = (
{
closed = 1;
nodes = (
(532,-22,o),
(423,10,o),
(332,73,cs),
(241,136,o),
(175,225,o),
(135,340,cs),
(94,455,o),
(87,589,o),
(112,743,cs),
(153,983,o),
(258,1175,o),
(406,1308,cs),
(554,1441,o),
(739,1512,o),
(939,1512,cs),
(1107,1512,o),
(1248,1461,o),
(1349,1370,cs),
(1449,1278,o),
(1502,1152,o),
(1498,1001,c),
(1191,1001,l),
(1184,1076,o),
(1155,1136,o),
(1106,1179,cs),
(1057,1222,o),
(988,1244,o),
(900,1244,cs),
(821,1244,o),
(748,1224,o),
(681,1185,cs),
(614,1146,o),
(558,1089,o),
(513,1014,cs),
(468,939,o),
(436,850,o),
(418,746,cs),
(401,641,o),
(402,552,o),
(423,477,cs),
(464,328,o),
(575,246,o),
(742,246,cs),
(813,246,o),
(876,260,o),
(933,287,cs),
(1046,342,o),
(1124,444,o),
(1148,580,c),
(1278,580,l),
(1259,468,ls),
(1238,331,o),
(1170,209,o),
(1066,121,cs),
(961,32,o),
(823,-22,o),
(659,-22,cs)
);
},
{
closed = 1;
nodes = (
(1144,0,l),
(1153,310,l),
(1195,561,l),
(816,561,l),
(854,791,l),
(1476,791,l),
(1345,0,l)
);
}
);
width = 1522;
},
{
anchors = (
{
name = m.uni0347;
position = "{678, 3}";
},
{
name = m.uni0302_1;
position = "{938, 1490}";
}
);
layerId = "C6CF8F4D-8996-4F76-ABC0-77690A781072";
shapes = (
{
closed = 1;
nodes = (
(549,-22,o),
(440,10,o),
(351,74,cs),
(261,138,o),
(197,228,o),
(159,343,cs),
(120,458,o),
(114,591,o),
(139,744,cs),
(178,975,o),
(278,1166,o),
(419,1302,cs),
(560,1437,o),
(739,1512,o),
(935,1512,cs),
(1094,1512,o),
(1224,1462,o),
(1319,1374,cs),
(1414,1285,o),
(1466,1161,o),
(1469,1016,c),
(1280,1016,l),
(1269,1113,o),
(1230,1194,o),
(1166,1251,cs),
(1102,1308,o),
(1014,1340,o),
(906,1340,cs),
(813,1340,o),
(726,1316,o),
(645,1269,cs),
(564,1221,o),
(495,1153,o),
(438,1064,cs),
(381,975,o),
(343,868,o),
(322,745,cs),
(301,622,o),
(305,517,o),
(333,428,cs),
(388,250,o),
(525,150,o),
(716,150,cs),
(801,150,o),
(880,169,o),
(953,207,cs),
(1097,282,o),
(1202,423,o),
(1234,615,c),
(1321,615,l),
(1300,489,ls),
(1280,364,o),
(1215,238,o),
(1109,140,cs),
(1003,42,o),
(858,-22,o),
(678,-22,cs)
);
},
{
closed = 1;
nodes = (
(1164,0,l),
(1180,281,l),
(1231,584,l),
(836,584,l),
(863,747,l),
(1434,747,l),
(1311,0,l)
);
}
);
width = 1512;
},
{
anchors = (
{
name = m.uni0347;
position = "{646, 3}";
},
{
name = m.uni0302_1;
position = "{897, 1490}";
}
);
layerId = "CFE5CAE0-9991-40C5-8AD5-14528CBB0784";
shapes = (
{
closed = 1;
nodes = (
(520,-20,o),
(416,12,o),
(333,77,cs),
(250,141,o),
(193,231,o),
(161,346,cs),
(128,461,o),
(124,593,o),
(149,744,cs),
(188,973,o),
(280,1165,o),
(412,1301,cs),
(543,1436,o),
(709,1510,o),
(894,1510,cs),
(1067,1510,o),
(1190,1446,o),
(1269,1348,cs),
(1348,1250,o),
(1384,1130,o),
(1384,1025,c),
(1337,1025,l),
(1336,1125,o),
(1300,1233,o),
(1225,1320,cs),
(1150,1407,o),
(1038,1464,o),
(886,1464,cs),
(772,1464,o),
(667,1434,o),
(572,1375,cs),
(476,1315,o),
(395,1231,o),
(330,1123,cs),
(264,1014,o),
(219,888,o),
(195,744,cs),
(172,603,o),
(175,478,o),
(204,370,cs),
(263,154,o),
(419,26,o),
(652,26,cs),
(761,26,o),
(859,51,o),
(947,101,cs),
(1123,201,o),
(1245,388,o),
(1286,637,c),
(1325,637,l),
(1324,628,ls),
(1300,431,o),
(1218,269,o),
(1097,156,cs),
(976,43,o),
(820,-20,o),
(645,-20,cs)
);
},
{
closed = 1;
nodes = (
(1178,0,l),
(1224,280,l),
(1294,626,l),
(766,626,l),
(773,672,l),
(1335,672,l),
(1224,0,l)
);
}
);
width = 1448;
}
);
leftKerningGroup = C2;
rightKerningGroup = R;
unicode = (71,57346);
}
{
glyphname = H;
layers = (
{
anchors = (
{
name = m.uni0347;
position = "{667, 0}";
},
{
name = m.uni0302_1;
position = "{914, 1490}";
},
{
name = m.uni0327_3;
position = "{204, 0}";
}
);
layerId = "327A104B-2E28-4C21-9EEF-F371F9687223";
shapes = (
{
closed = 1;
nodes = (
(-2,0,l),
(245,1490,l),
(655,1490,l),
(562,929,l),
(1078,929,l),
(1171,1490,l),
(1581,1490,l),
(1334,0,l),
(924,0,l),
(1022,590,l),
(506,590,l),
(408,0,l)
);
}
);
width = 1513;
},
{
anchors = (
{
name = m.uni0347;
position = "{667, 0}";
},
{
name = m.uni0302_1;
position = "{914, 1490}";
},
{
name = m.uni0327_3;
position = "{204, 0}";
}
);
layerId = "E369B2B9-8A8B-4879-8879-CDDEC6ABDA8D";
shapes = (
{
closed = 1;
nodes = (
(34,0,l),
(281,1490,l),
(583,1490,l),
(484,889,l),
(1130,889,l),
(1230,1490,l),
(1532,1490,l),
(1285,0,l),
(983,0,l),
(1088,634,l),
(442,634,l),
(336,0,l)
);
}
);
width = 1501;
},
{
anchors = (
{
name = m.uni0347;
position = "{667, 0}";
},
{
name = m.uni0302_1;
position = "{914, 1490}";
},
{
name = m.uni0327_3;
position = "{204, 0}";
}
);
layerId = "844D73DB-7C23-43E4-9FB2-A17A73FD39D0";
shapes = (
{
closed = 1;
nodes = (
(74,0,l),
(321,1490,l),
(506,1490,l),
(399,845,l),
(1187,845,l),
(1294,1490,l),
(1479,1490,l),
(1232,0,l),
(1047,0,l),
(1160,681,l),
(372,681,l),
(259,0,l)
);
}
);
width = 1487;
},
{
anchors = (
{
name = m.uni0347;
position = "{647, 0}";
},
{
name = m.uni0302_1;
position = "{894, 1490}";
},
{
name = m.uni0327_3;
position = "{170, 0}";
}
);
layerId = "AAF7CECC-D58D-4734-9D16-9C2B5AF74B2F";
shapes = (
{
closed = 1;
nodes = (
(110,0,l),
(357,1490,l),
(405,1490,l),
(288,785,l),
(1236,785,l),
(1353,1490,l),
(1399,1490,l),
(1152,0,l),
(1106,0,l),
(1228,739,l),
(281,739,l),
(158,0,l)
);
}
);
width = 1443;
}
);
leftKerningGroup = B2;
rightKerningGroup = H;
unicode = 72;
}
{
glyphname = I;
layers = (
{
anchors = (
{
name = m.uni0347;
position = "{203, 0}";
},
{
name = m.uni0302_1;
position = "{452, 1490}";
},
{
name = m.uni0328_4;
position = "{408, 0}";
}
);
layerId = "327A104B-2E28-4C21-9EEF-F371F9687223";
shapes = (
{
closed = 1;
nodes = (
(655,1490,l),
(408,0,l),
(-2,0,l),
(245,1490,l)
);
}
);
width = 587;
},
{
anchors = (
{
name = m.uni0347;
position = "{203, 0}";
},
{
name = m.uni0302_1;
position = "{452, 1490}";
},
{
name = m.uni0328_4;
position = "{408, 0}";
}
);
layerId = "E369B2B9-8A8B-4879-8879-CDDEC6ABDA8D";
shapes = (
{
closed = 1;
nodes = (
(583,1490,l),
(336,0,l),
(34,0,l),
(281,1490,l)
);
}
);
width = 552;
},
{
anchors = (
{
name = m.uni0347;
position = "{203, 0}";
},
{
name = m.uni0302_1;
position = "{452, 1490}";
},
{
name = m.uni0328_4;
position = "{408, 0}";
}
);
layerId = "844D73DB-7C23-43E4-9FB2-A17A73FD39D0";
shapes = (
{
closed = 1;
nodes = (
(506,1490,l),
(259,0,l),
(74,0,l),
(321,1490,l)
);
}
);
width = 514;
},
{
anchors = (
{
name = m.uni0347;
position = "{170, 0}";
},
{
name = m.uni0302_1;
position = "{419, 1490}";
},
{
name = m.uni0328_4;
position = "{305, 0}";
}
);
layerId = "AAF7CECC-D58D-4734-9D16-9C2B5AF74B2F";
shapes = (
{
closed = 1;
nodes = (
(403,1490,l),
(156,0,l),
(110,0,l),
(357,1490,l)
);
}
);
width = 447;
}
);
leftKerningGroup = B2;
rightKerningGroup = H;
unicode = 73;
}
{
glyphname = J;
layers = (
{
anchors = (
{
name = m.uni0302_1;
position = "{1075, 1490}";
}
);
layerId = "327A104B-2E28-4C21-9EEF-F371F9687223";
shapes = (
{
closed = 1;
nodes = (
(350,-22,o),
(232,11,o),
(148,78,cs),
(63,145,o),
(21,241,o),
(21,366,cs),
(21,377,o),
(22,389,o),
(23,404,cs),
(26,432,o),
(33,481,o),
(49,576,c),
(443,576,l),
(436,533,o),
(431,502,o),
(428,482,cs),
(422,441,o),
(421,430,o),
(421,421,cs),
(421,346,o),
(462,308,o),
(538,308,cs),
(582,308,o),
(618,321,o),
(647,348,cs),
(676,374,o),
(694,413,o),
(703,465,cs),
(873,1490,l),
(1280,1490,l),
(1109,465,ls),
(1083,309,o),
(1019,189,o),
(917,105,cs),
(815,20,o),
(677,-22,o),
(503,-22,cs)
);
}
);
width = 1211;
},
{
anchors = (
{
name = m.uni0302_1;
position = "{1075, 1490}";
}
);
layerId = "E369B2B9-8A8B-4879-8879-CDDEC6ABDA8D";
shapes = (
{
closed = 1;
nodes = (
(343,-21,o),
(236,11,o),
(158,75,cs),
(79,139,o),
(40,231,o),
(40,351,cs),
(40,361,o),
(41,373,o),
(42,386,cs),
(44,413,o),
(51,458,o),
(64,542,c),
(358,542,l),
(351,503,o),
(347,474,o),
(344,454,cs),
(338,414,o),
(337,401,o),
(337,389,cs),
(337,285,o),
(397,229,o),
(502,229,cs),
(561,229,o),
(612,247,o),
(654,284,cs),
(695,321,o),
(722,375,o),
(734,446,cs),
(908,1490,l),
(1208,1490,l),
(1034,446,ls),
(1009,297,o),
(949,182,o),
(852,101,cs),
(755,20,o),
(631,-21,o),
(478,-21,cs)
);
}
);
width = 1174;
},
{
anchors = (
{
name = m.uni0302_1;
position = "{1075, 1490}";
}
);
layerId = "844D73DB-7C23-43E4-9FB2-A17A73FD39D0";
shapes = (
{
closed = 1;
nodes = (
(334,-20,o),
(240,11,o),
(168,72,cs),
(96,133,o),
(60,220,o),
(60,334,cs),
(60,343,o),
(61,354,o),
(62,367,cs),
(64,391,o),
(69,432,o),
(81,505,c),
(266,505,l),
(261,470,o),
(257,443,o),
(254,424,cs),
(248,385,o),
(247,370,o),
(247,355,cs),
(247,218,o),
(327,144,o),
(462,144,cs),
(538,144,o),
(604,168,o),
(661,215,cs),
(717,262,o),
(753,332,o),
(768,425,cs),
(945,1490,l),
(1130,1490,l),
(953,425,ls),
(930,283,o),
(873,173,o),
(782,96,cs),
(691,19,o),
(581,-20,o),
(450,-20,cs)
);
}
);
width = 1133;
},
{
anchors = (
{
name = m.uni0302_1;
position = "{1090, 1490}";
}
);
layerId = "AAF7CECC-D58D-4734-9D16-9C2B5AF74B2F";
shapes = (
{
closed = 1;
nodes = (
(336,-20,o),
(253,9,o),
(194,67,cs),
(134,125,o),
(104,205,o),
(104,308,cs),
(104,317,o),
(104,327,o),
(105,339,cs),
(106,362,o),
(111,400,o),
(122,464,c),
(168,464,l),
(163,431,o),
(159,405,o),
(156,386,cs),
(151,347,o),
(150,329,o),
(150,310,cs),
(150,133,o),
(252,27,o),
(441,27,cs),
(548,27,o),
(638,60,o),
(711,126,cs),
(784,191,o),
(829,281,o),
(848,396,cs),
(1029,1490,l),
(1076,1490,l),
(895,396,ls),
(874,268,o),
(824,167,o),
(743,92,cs),
(662,17,o),
(562,-20,o),
(442,-20,cs)
);
}
);
width = 1090;
}
);
leftKerningGroup = J2;
rightKerningGroup = J;
unicode = 74;
}
{
glyphname = K;
layers = (
{
anchors = (
{
name = m.uni0347;
position = "{652, 0}";
},
{
name = m.uni0302_1;
position = "{899, 1490}";
}
);
layerId = "7120DA8A-778D-4421-9957-14EBB73F7FEE";
shapes = (
{
closed = 1;
nodes = (
(344,237,l),
(395,661,l),
(434,714,o),
(473,764,o),
(511,811,cs),
(586,904,o),
(666,995,o),
(770,1108,cs),
(1130,1490,l),
(1630,1490,l),
(880,723,l),
(843,732,l)
);
},
{
closed = 1;
nodes = (
(-2,0,l),
(245,1490,l),
(662,1490,l),
(608,1171,l),
(533,741,l),
(504,545,l),
(415,0,l)
);
},
{
closed = 1;
nodes = (
(959,0,l),
(699,600,l),
(978,904,l),
(1412,0,l)
);
}
);
width = 1524;
},
{
anchors = (
{
name = m.uni0347;
position = "{652, 0}";
},
{
name = m.uni0302_1;
position = "{899, 1490}";
}
);
layerId = "496E469D-EE15-4086-9FDA-F7D1A66ADFFB";
shapes = (
{
closed = 1;
nodes = (
(309,328,l),
(350,654,l),
(390,702,o),
(430,748,o),
(469,792,cs),
(548,879,o),
(629,963,o),
(724,1060,c),
(1165,1490,l),
(1545,1490,l),
(796,765,l),
(771,770,l)
);
},
{
closed = 1;
nodes = (
(34,0,l),
(281,1490,l),
(588,1490,l),
(518,1077,l),
(453,701,l),
(432,556,l),
(341,0,l)
);
},
{
closed = 1;
nodes = (
(980,0,l),
(645,678,l),
(849,905,l),
(1314,0,l)
);
}
);
width = 1435;
},
{
anchors = (
{
name = m.uni0347;
position = "{652, 0}";
},
{
name = m.uni0302_1;
position = "{899, 1490}";
}
);
layerId = "C6CF8F4D-8996-4F76-ABC0-77690A781072";
shapes = (
{
closed = 1;
nodes = (
(271,426,l),
(301,646,l),
(342,689,o),
(384,730,o),
(425,770,cs),
(507,850,o),
(589,928,o),
(674,1007,cs),
(1203,1490,l),
(1453,1490,l),
(704,810,l),
(694,811,l)
);
},
{
closed = 1;
nodes = (
(74,0,l),
(321,1490,l),
(507,1490,l),
(421,976,l),
(366,657,l),
(353,567,l),
(260,0,l)
);
},
{
closed = 1;
nodes = (
(1002,0,l),
(586,762,l),
(709,907,l),
(1207,0,l)
);
}
);
width = 1338;
},
{
anchors = (
{
name = m.uni0347;
position = "{598, 0}";
},
{
name = m.uni0302_1;
position = "{845, 1490}";
}
);
layerId = "CFE5CAE0-9991-40C5-8AD5-14528CBB0784";
shapes = (
{
closed = 1;
nodes = (
(240,536,l),
(230,585,l),
(277,628,o),
(322,670,o),
(366,709,cs),
(453,788,o),
(537,865,o),
(630,953,cs),
(1217,1490,l),
(1283,1490,l),
(560,828,l),
(546,818,l)
);
},
{
closed = 1;
nodes = (
(110,0,l),
(357,1490,l),
(404,1490,l),
(315,961,l),
(254,592,l),
(249,561,l),
(157,0,l)
);
},
{
closed = 1;
nodes = (
(983,0,l),
(532,827,l),
(569,853,l),
(1035,0,l)
);
}
);
width = 1172;
}
);
leftKerningGroup = B2;
rightKerningGroup = K;
unicode = 75;
}
{
glyphname = L;
layers = (
{
anchors = (
{
name = m.uni0347;
position = "{505, 0}";
},
{
name = m.uni0302_1;
position = "{449, 1490}";
}
);
layerId = "7120DA8A-778D-4421-9957-14EBB73F7FEE";
shapes = (
{
closed = 1;
nodes = (
(-2,0,l),
(245,1490,l),
(655,1490,l),
(465,340,l),
(1087,340,l),
(1030,0,l)
);
}
);
width = 1168;
},
{
anchors = (
{
name = m.uni0347;
position = "{505, 0}";
},
{
name = m.uni0302_1;
position = "{449, 1490}";
}
);
layerId = "496E469D-EE15-4086-9FDA-F7D1A66ADFFB";
shapes = (
{
closed = 1;
nodes = (
(34,0,l),
(281,1490,l),
(583,1490,l),
(379,256,l),
(1040,256,l),
(998,0,l)
);
}
);
width = 1148;
},
{
anchors = (
{
name = m.uni0347;
position = "{505, 0}";
},
{
name = m.uni0302_1;
position = "{449, 1490}";
}
);
layerId = "C6CF8F4D-8996-4F76-ABC0-77690A781072";
shapes = (
{
closed = 1;
nodes = (
(74,0,l),
(321,1490,l),
(506,1490,l),
(286,164,l),
(990,164,l),
(963,0,l)
);
}
);
width = 1127;
},
{
anchors = (
{
name = m.uni0347;
position = "{500, 0}";
},
{
name = m.uni0302_1;
position = "{417, 1490}";
}
);
layerId = "CFE5CAE0-9991-40C5-8AD5-14528CBB0784";
shapes = (
{
closed = 1;
nodes = (
(110,0,l),
(357,1490,l),
(405,1490,l),
(167,47,l),
(923,47,l),
(914,0,l)
);
}
);
width = 1099;
}
);
leftKerningGroup = B2;
rightKerningGroup = L;
unicode = 76;
}
{
glyphname = M;
layers = (
{
anchors = (
{
name = m.uni0347;
position = "{874, 0}";
},
{
name = m.uni0302_1;
position = "{1120, 1490}";
}
);
layerId = "327A104B-2E28-4C21-9EEF-F371F9687223";
shapes = (
{
closed = 1;
nodes = (
(-2,0,l),
(246,1490,l),
(875,1490,l),
(932,1025,ls),
(943,945,o),
(951,814,o),
(959,675,cs),
(967,536,o),
(972,401,o),
(973,313,c),
(881,313,l),
(910,402,o),
(960,535,o),
(1013,675,cs),
(1040,744,o),
(1066,810,o),
(1091,872,cs),
(1116,934,o),
(1137,985,o),
(1155,1024,cs),
(1365,1490,l),
(1996,1490,l),
(1748,0,l),
(1340,0,l),
(1435,577,ls),
(1447,645,o),
(1471,760,o),
(1496,892,cs),
(1521,1023,o),
(1549,1161,o),
(1568,1276,c),
(1603,1276,l),
(1556,1156,o),
(1501,1018,o),
(1447,890,cs),
(1393,761,o),
(1345,648,o),
(1310,577,c),
(1042,0,l),
(707,0,l),
(625,576,ls),
(618,624,o),
(611,688,o),
(603,767,cs),
(595,846,o),
(587,930,o),
(580,1021,cs),
(572,1111,o),
(565,1196,o),
(560,1276,c),
(601,1276,l),
(582,1161,o),
(563,1023,o),
(546,892,cs),
(529,760,o),
(514,645,o),
(502,577,cs),
(407,0,l)
);
}
);
width = 1927;
},
{
anchors = (
{
name = m.uni0347;
position = "{874, 0}";
},
{
name = m.uni0302_1;
position = "{1120, 1490}";
}
);
layerId = "E369B2B9-8A8B-4879-8879-CDDEC6ABDA8D";
shapes = (
{
closed = 1;
nodes = (
(34,0,l),
(282,1490,l),
(732,1490,l),
(865,791,ls),
(876,728,o),
(885,627,o),
(896,520,cs),
(907,412,o),
(914,307,o),
(919,238,c),
(851,241,l),
(879,313,o),
(922,416,o),
(967,524,cs),
(990,577,o),
(1011,628,o),
(1032,676,cs),
(1053,723,o),
(1071,762,o),
(1086,793,c),
(1448,1490,l),
(1900,1490,l),
(1652,0,l),
(1353,0,l),
(1471,713,ls),
(1482,780,o),
(1501,878,o),
(1522,986,cs),
(1542,1094,o),
(1565,1206,o),
(1581,1302,c),
(1609,1299,l),
(1562,1192,o),
(1510,1075,o),
(1462,969,cs),
(1413,863,o),
(1371,770,o),
(1340,710,cs),
(969,0,l),
(720,0,l),
(581,712,l),
(574,752,o),
(567,804,o),
(558,869,cs),
(549,934,o),
(539,1004,o),
(530,1080,cs),
(520,1155,o),
(511,1229,o),
(502,1302,c),
(535,1299,l),
(520,1202,o),
(505,1089,o),
(490,982,cs),
(475,874,o),
(462,777,o),
(451,710,cs),
(334,0,l)
);
}
);
width = 1867;
},
{
anchors = (
{
name = m.uni0347;
position = "{874, 0}";
},
{
name = m.uni0302_1;
position = "{1120, 1490}";
}
);
layerId = "844D73DB-7C23-43E4-9FB2-A17A73FD39D0";
shapes = (
{
closed = 1;
nodes = (
(74,0,l),
(321,1490,l),
(578,1490,l),
(792,537,l),
(803,493,o),
(815,424,o),
(828,352,cs),
(841,279,o),
(852,207,o),
(860,156,c),
(819,162,l),
(844,215,o),
(880,287,o),
(917,360,cs),
(935,396,o),
(952,430,o),
(969,462,cs),
(985,494,o),
(999,521,o),
(1011,542,cs),
(1537,1490,l),
(1796,1490,l),
(1549,0,l),
(1367,0,l),
(1509,861,ls),
(1520,926,o),
(1534,1006,o),
(1550,1089,cs),
(1565,1172,o),
(1582,1255,o),
(1595,1330,c),
(1616,1324,l),
(1569,1231,o),
(1521,1137,o),
(1478,1054,cs),
(1435,971,o),
(1399,902,o),
(1372,855,cs),
(890,0,l),
(734,0,l),
(533,860,ls),
(526,891,o),
(518,931,o),
(508,980,cs),
(498,1029,o),
(487,1083,o),
(476,1144,cs),
(464,1204,o),
(452,1266,o),
(439,1330,c),
(464,1324,l),
(453,1247,o),
(441,1162,o),
(429,1080,cs),
(417,998,o),
(406,919,o),
(395,855,cs),
(254,0,l)
);
}
);
width = 1803;
},
{
anchors = (
{
name = m.uni0347;
position = "{859, 0}";
},
{
name = m.uni0302_1;
position = "{1105, 1490}";
}
);
layerId = "AAF7CECC-D58D-4734-9D16-9C2B5AF74B2F";
shapes = (
{
closed = 1;
nodes = (
(110,0,l),
(358,1490,l),
(419,1490,l),
(737,305,ls),
(749,260,o),
(761,214,o),
(774,168,cs),
(786,122,o),
(797,75,o),
(810,28,c),
(785,28,l),
(813,76,o),
(839,120,o),
(867,167,cs),
(881,190,o),
(895,214,o),
(908,237,cs),
(921,260,o),
(935,282,o),
(948,304,cs),
(1659,1490,l),
(1726,1490,l),
(1478,0,l),
(1432,0,l),
(1620,1137,ls),
(1629,1190,o),
(1639,1244,o),
(1648,1299,cs),
(1657,1354,o),
(1667,1407,o),
(1675,1460,c),
(1689,1460,l),
(1657,1405,o),
(1626,1352,o),
(1594,1298,cs),
(1562,1244,o),
(1531,1189,o),
(1498,1137,c),
(817,0,l),
(772,0,l),
(466,1136,ls),
(457,1172,o),
(447,1208,o),
(438,1244,cs),
(429,1279,o),
(420,1315,o),
(411,1352,cs),
(402,1388,o),
(392,1424,o),
(383,1460,c),
(397,1460,l),
(388,1407,o),
(379,1353,o),
(371,1299,cs),
(362,1245,o),
(354,1190,o),
(345,1137,cs),
(157,0,l)
);
}
);
width = 1769;
}
);
leftKerningGroup = B2;
rightKerningGroup = H;
unicode = 77;
}
{
glyphname = N;
layers = (
{
anchors = (
{
name = m.uni0347;
position = "{684, 0}";
},
{
name = m.uni0302_1;
position = "{931, 1490}";
}
);
layerId = "327A104B-2E28-4C21-9EEF-F371F9687223";
shapes = (
{
closed = 1;
nodes = (
(-2,0,l),
(245,1490,l),
(678,1490,l),
(939,906,ls),
(956,867,o),
(974,825,o),
(992,778,cs),
(1027,684,o),
(1062,572,o),
(1090,447,c),
(1038,389,l),
(1044,442,o),
(1051,504,o),
(1059,575,cs),
(1066,645,o),
(1075,713,o),
(1084,780,cs),
(1093,847,o),
(1100,901,o),
(1106,944,c),
(1198,1490,l),
(1614,1490,l),
(1367,0,l),
(935,0,l),
(690,544,ls),
(669,592,o),
(649,642,o),
(629,694,cs),
(588,798,o),
(548,920,o),
(505,1065,c),
(568,1077,l),
(562,1006,o),
(555,937,o),
(548,869,cs),
(532,733,o),
(516,615,o),
(504,544,cs),
(415,0,l)
);
}
);
width = 1545;
},
{
anchors = (
{
name = m.uni0347;
position = "{684, 0}";
},
{
name = m.uni0302_1;
position = "{931, 1490}";
}
);
layerId = "E369B2B9-8A8B-4879-8879-CDDEC6ABDA8D";
shapes = (
{
closed = 1;
nodes = (
(34,0,l),
(281,1490,l),
(606,1490,l),
(959,725,ls),
(973,695,o),
(988,659,o),
(1005,618,cs),
(1038,534,o),
(1074,432,o),
(1105,320,c),
(1068,281,l),
(1073,331,o),
(1079,386,o),
(1086,447,cs),
(1093,507,o),
(1100,565,o),
(1108,621,cs),
(1116,676,o),
(1123,721,o),
(1128,756,cs),
(1250,1490,l),
(1555,1490,l),
(1308,0,l),
(985,0,l),
(663,693,l),
(646,732,o),
(627,775,o),
(608,822,cs),
(569,915,o),
(526,1032,o),
(474,1181,c),
(519,1199,l),
(511,1124,o),
(503,1055,o),
(495,990,cs),
(479,860,o),
(466,757,o),
(455,694,cs),
(341,0,l)
);
}
);
width = 1523;
},
{
anchors = (
{
name = m.uni0347;
position = "{684, 0}";
},
{
name = m.uni0302_1;
position = "{931, 1490}";
}
);
layerId = "844D73DB-7C23-43E4-9FB2-A17A73FD39D0";
shapes = (
{
closed = 1;
nodes = (
(74,0,l),
(321,1490,l),
(528,1490,l),
(981,529,ls),
(991,508,o),
(1004,480,o),
(1020,445,cs),
(1051,373,o),
(1089,280,o),
(1121,183,c),
(1101,165,l),
(1105,211,o),
(1110,259,o),
(1116,309,cs),
(1122,358,o),
(1128,405,o),
(1135,448,cs),
(1142,491,o),
(1147,526,o),
(1151,552,cs),
(1307,1490,l),
(1492,1490,l),
(1245,0,l),
(1039,0,l),
(634,855,l),
(621,885,o),
(605,920,o),
(587,961,cs),
(550,1042,o),
(504,1154,o),
(441,1307,c),
(465,1331,l),
(455,1252,o),
(446,1181,o),
(438,1120,cs),
(422,997,o),
(410,909,o),
(401,857,cs),
(260,0,l)
);
}
);
width = 1499;
},
{
anchors = (
{
name = m.uni0347;
position = "{693, 0}";
},
{
name = m.uni0302_1;
position = "{940, 1490}";
}
);
layerId = "AAF7CECC-D58D-4734-9D16-9C2B5AF74B2F";
shapes = (
{
closed = 1;
nodes = (
(110,0,l),
(357,1490,l),
(398,1490,l),
(1035,360,l),
(1056,325,o),
(1075,290,o),
(1094,256,cs),
(1131,187,o),
(1168,118,o),
(1207,49,c),
(1191,49,l),
(1198,83,o),
(1203,117,o),
(1208,152,cs),
(1213,187,o),
(1218,221,o),
(1224,256,cs),
(1229,291,o),
(1234,325,o),
(1239,359,c),
(1428,1490,l),
(1474,1490,l),
(1227,0,l),
(1186,0,l),
(549,1129,ls),
(530,1164,o),
(511,1199,o),
(492,1234,cs),
(453,1302,o),
(417,1371,o),
(378,1442,c),
(392,1442,l),
(386,1407,o),
(381,1372,o),
(376,1338,cs),
(366,1269,o),
(355,1198,o),
(343,1129,cs),
(157,0,l)
);
}
);
width = 1517;
}
);
leftKerningGroup = B2;
rightKerningGroup = H;
unicode = 78;
}
{
glyphname = P;
layers = (
{
anchors = (
{
name = m.uni0302_1;
position = "{813, 1490}";
}
);
layerId = "327A104B-2E28-4C21-9EEF-F371F9687223";
shapes = (
{
closed = 1;
nodes = (
(-2,0,l),
(245,1490,l),
(883,1490,ls),
(998,1490,o),
(1094,1469,o),
(1172,1426,cs),
(1327,1341,o),
(1398,1179,o),
(1363,966,cs),
(1346,860,o),
(1307,768,o),
(1247,690,cs),
(1126,534,o),
(934,446,o),
(702,446,cs),
(314,446,l),
(368,775,l),
(700,775,ls),
(745,775,o),
(785,783,o),
(820,799,cs),
(889,830,o),
(936,888,o),
(948,967,c),
(955,1007,o),
(953,1041,o),
(940,1070,cs),
(914,1126,o),
(855,1158,o),
(764,1158,cs),
(600,1158,l),
(408,0,l)
);
}
);
width = 1334;
},
{
anchors = (
{
name = m.uni0302_1;
position = "{813, 1490}";
}
);
layerId = "E369B2B9-8A8B-4879-8879-CDDEC6ABDA8D";
shapes = (
{
closed = 1;
nodes = (
(34,0,l),
(281,1490,l),
(862,1490,ls),
(975,1490,o),
(1068,1469,o),
(1142,1428,cs),
(1289,1345,o),
(1352,1191,o),
(1320,994,cs),
(1304,895,o),
(1268,809,o),
(1213,735,cs),
(1101,587,o),
(921,502,o),
(694,502,cs),
(302,502,l),
(343,751,l),
(704,751,ls),
(764,751,o),
(816,761,o),
(859,782,cs),
(946,823,o),
(1001,899,o),
(1016,996,c),
(1025,1045,o),
(1022,1088,o),
(1007,1125,cs),
(977,1197,o),
(904,1239,o),
(785,1239,cs),
(542,1239,l),
(336,0,l)
);
}
);
width = 1309;
},
{
anchors = (
{
name = m.uni0302_1;
position = "{813, 1490}";
}
);
layerId = "844D73DB-7C23-43E4-9FB2-A17A73FD39D0";
shapes = (
{
closed = 1;
nodes = (
(74,0,l),
(321,1490,l),
(839,1490,ls),
(949,1490,o),
(1039,1470,o),
(1108,1431,cs),
(1247,1351,o),
(1303,1205,o),
(1274,1024,cs),
(1259,933,o),
(1227,853,o),
(1176,784,cs),
(1074,645,o),
(906,562,o),
(686,562,cs),
(288,562,l),
(315,726,l),
(709,726,ls),
(784,726,o),
(849,739,o),
(902,765,cs),
(1008,816,o),
(1071,911,o),
(1090,1028,cs),
(1100,1087,o),
(1097,1139,o),
(1080,1184,cs),
(1046,1273,o),
(957,1327,o),
(808,1327,cs),
(479,1327,l),
(259,0,l)
);
}
);
width = 1281;
},
{
anchors = (
{
name = m.uni0302_1;
position = "{785, 1490}";
}
);
layerId = "AAF7CECC-D58D-4734-9D16-9C2B5AF74B2F";
shapes = (
{
closed = 1;
nodes = (
(110,0,l),
(357,1490,l),
(819,1490,ls),
(902,1490,o),
(973,1472,o),
(1031,1436,cs),
(1147,1364,o),
(1202,1230,o),
(1174,1059,cs),
(1160,975,o),
(1130,901,o),
(1083,837,cs),
(989,708,o),
(844,631,o),
(677,631,cs),
(239,631,l),
(247,678,l),
(684,678,ls),
(759,678,o),
(827,694,o),
(890,726,cs),
(1015,790,o),
(1104,908,o),
(1127,1060,c),
(1140,1136,o),
(1136,1203,o),
(1113,1261,cs),
(1067,1376,o),
(960,1445,o),
(812,1445,cs),
(396,1445,l),
(156,0,l)
);
}
);
width = 1183;
}
);
leftKerningGroup = B2;
rightKerningGroup = P;
unicode = 80;
}
{
glyphname = Q;
rightMetricsKey = "=43";
layers = (
{
anchors = (
{
name = m.uni0347;
position = "{780, 0}";
},
{
name = m.uni0302_1;
position = "{1027, 1490}";
},
{
name = m.uni0328_4;
position = "{1626, 744}";
}
);
layerId = "7120DA8A-778D-4421-9957-14EBB73F7FEE";
rightMetricsKey = "=-8";
shapes = (
{
closed = 1;
nodes = (
(994,277,o),
(1230,356,o),
(1584,356,cs),
(1604,356,l),
(1545,0,l),
(1004,0,ls),
(905,0,o),
(806,-22,o),
(706,-22,c)
);
},
{
alignment = -1;
ref = O;
}
);
width = 1628;
},
{
anchors = (
{
name = m.uni0347;
position = "{691, 0}";
},
{
name = m.uni0302_1;
position = "{937, 1490}";
},
{
name = m.uni0328_4;
position = "{1548, 893}";
}
);
guides = (
{
position = "{0, 1490}";
}
);
layerId = "496E469D-EE15-4086-9FDA-F7D1A66ADFFB";
shapes = (
{
closed = 1;
nodes = (
(968.052,202,o),
(1159.296,268,o),
(1420.296,268,cs),
(1568.296,268,l),
(1517,0,l),
(990,0,ls),
(894,0,o),
(798.252,-22,o),
(702.252,-22,c)
);
},
{
alignment = -1;
ref = O;
}
);
width = 1657;
},
{
anchors = (
{
name = m.uni0347;
position = "{780, 0}";
},
{
name = m.uni0302_1;
position = "{1027, 1490}";
},
{
name = m.uni0328_4;
position = "{1626, 744}";
}
);
guides = (
{
position = "{0, 1490}";
}
);
layerId = "C6CF8F4D-8996-4F76-ABC0-77690A781072";
shapes = (
{
closed = 1;
nodes = (
(925.866,120,o),
(1066.474,172,o),
(1226.474,172,cs),
(1514.474,172,l),
(1486,0,l),
(974,0,ls),
(883,0,o),
(789.358,-22,o),
(698.358,-22,c)
);
},
{
alignment = -1;
ref = O;
}
);
width = 1620;
},
{
anchors = (
{
name = m.uni0347;
position = "{739, 0}";
},
{
name = m.uni0302_1;
position = "{986, 1490}";
},
{
name = m.uni0328_4;
position = "{1532, 744}";
}
);
layerId = "CFE5CAE0-9991-40C5-8AD5-14528CBB0784";
shapes = (
{
closed = 1;
nodes = (
(721,25,o),
(829,46,o),
(959,46,cs),
(1412,46,l),
(1404,0,l),
(916,0,ls),
(817,0,o),
(721,-22,o),
(622,-20,c)
);
},
{
alignment = -1;
ref = O;
}
);
width = 1530;
}
);
leftKerningGroup = C2;
rightKerningGroup = D;
unicode = 81;
}
{
glyphname = R;
layers = (
{
anchors = (
{
name = m.uni0347;
position = "{603, 0}";
},
{
name = m.uni0302_1;
position = "{831, 1490}";
}
);
layerId = "327A104B-2E28-4C21-9EEF-F371F9687223";
shapes = (
{
closed = 1;
nodes = (
(-2,0,l),
(245,1490,l),
(883,1490,ls),
(998,1490,o),
(1094,1469,o),
(1172,1428,cs),
(1327,1345,o),
(1400,1190,o),
(1364,977,cs),
(1347,872,o),
(1309,783,o),
(1248,709,cs),
(1127,560,o),
(933,480,o),
(697,480,cs),
(328,480,l),
(380,797,l),
(704,797,ls),
(749,797,o),
(789,804,o),
(824,818,cs),
(892,845,o),
(938,898,o),
(951,977,cs),
(961,1036,o),
(949,1082,o),
(916,1113,cs),
(882,1144,o),
(831,1160,o),
(764,1160,cs),
(601,1160,l),
(408,0,l)
);
},
{
closed = 1;
nodes = (
(818,0,l),
(586,681,l),
(1009,681,l),
(1250,0,l)
);
}
);
width = 1366;
},
{
anchors = (
{
name = m.uni0347;
position = "{603, 0}";
},
{
name = m.uni0302_1;
position = "{831, 1490}";
}
);
layerId = "E369B2B9-8A8B-4879-8879-CDDEC6ABDA8D";
shapes = (
{
closed = 1;
nodes = (
(34,0,l),
(281,1490,l),
(867,1490,ls),
(980,1490,o),
(1073,1470,o),
(1147,1430,cs),
(1294,1350,o),
(1359,1203,o),
(1326,1004,cs),
(1310,907,o),
(1274,822,o),
(1218,751,cs),
(1106,608,o),
(924,529,o),
(697,529,cs),
(302,529,l),
(342,773,l),
(713,773,ls),
(772,773,o),
(824,782,o),
(867,801,cs),
(953,837,o),
(1007,909,o),
(1023,1006,cs),
(1036,1081,o),
(1022,1139,o),
(982,1180,cs),
(941,1220,o),
(877,1240,o),
(789,1240,cs),
(542,1240,l),
(336,0,l)
);
},
{
closed = 1;
nodes = (
(879,0,l),
(639,676,l),
(955,676,l),
(1202,0,l)
);
}
);
width = 1338;
},
{
anchors = (
{
name = m.uni0347;
position = "{603, 0}";
},
{
name = m.uni0302_1;
position = "{831, 1490}";
}
);
layerId = "844D73DB-7C23-43E4-9FB2-A17A73FD39D0";
shapes = (
{
closed = 1;
nodes = (
(74,0,l),
(321,1490,l),
(849,1490,ls),
(960,1490,o),
(1050,1471,o),
(1119,1433,cs),
(1258,1356,o),
(1315,1215,o),
(1284,1034,cs),
(1269,944,o),
(1237,865,o),
(1186,797,cs),
(1084,661,o),
(915,582,o),
(696,582,cs),
(274,582,l),
(301,746,l),
(723,746,ls),
(797,746,o),
(860,758,o),
(913,782,cs),
(1018,830,o),
(1081,921,o),
(1101,1038,cs),
(1116,1130,o),
(1100,1201,o),
(1053,1252,cs),
(1005,1302,o),
(926,1327,o),
(817,1327,cs),
(479,1327,l),
(259,0,l)
);
},
{
closed = 1;
nodes = (
(946,0,l),
(697,671,l),
(896,671,l),
(1151,0,l)
);
}
);
width = 1307;
},
{
anchors = (
{
name = m.uni0347;
position = "{560, 0}";
},
{
name = m.uni0302_1;
position = "{800, 1490}";
}
);
layerId = "AAF7CECC-D58D-4734-9D16-9C2B5AF74B2F";
shapes = (
{
closed = 1;
nodes = (
(110,0,l),
(357,1490,l),
(820,1490,ls),
(903,1490,o),
(973,1472,o),
(1031,1437,cs),
(1147,1366,o),
(1205,1236,o),
(1174,1064,c),
(1161,981,o),
(1131,907,o),
(1084,844,cs),
(990,717,o),
(844,643,o),
(679,643,cs),
(241,643,l),
(249,688,l),
(679,688,ls),
(753,688,o),
(822,704,o),
(886,735,cs),
(1013,798,o),
(1104,913,o),
(1129,1064,cs),
(1148,1179,o),
(1130,1272,o),
(1073,1341,cs),
(1016,1410,o),
(931,1445,o),
(819,1445,cs),
(396,1445,l),
(156,0,l)
);
},
{
closed = 1;
nodes = (
(992,0,l),
(742,679,l),
(791,679,l),
(1041,0,l)
);
}
);
width = 1223;
}
);
leftKerningGroup = B2;
rightKerningGroup = R;
unicode = 82;
}
{
glyphname = S;
layers = (
{
anchors = (
{
name = m.uni0347;
position = "{608, 0}";
},
{
name = m.uni0302_1;
position = "{850, 1490}";
},
{
name = m.uni0327_3;
position = "{604, 0}";
}
);
layerId = "7120DA8A-778D-4421-9957-14EBB73F7FEE";
shapes = (
{
closed = 1;
nodes = (
(497,-21,o),
(383,-1,o),
(290,39,cs),
(105,119,o),
(19,277,o),
(56,510,c),
(445,510,l),
(440,467,o),
(445,431,o),
(461,401,cs),
(492,341,o),
(561,309,o),
(664,309,cs),
(708,309,o),
(746,315,o),
(779,326,cs),
(844,348,o),
(886,387,o),
(894,438,cs),
(898,461,o),
(894,482,o),
(882,500,cs),
(857,535,o),
(797,563,o),
(690,584,cs),
(545,614,ls),
(412,642,o),
(313,693,o),
(248,766,cs),
(182,839,o),
(159,933,o),
(179,1050,cs),
(194,1143,o),
(231,1224,o),
(291,1293,cs),
(410,1432,o),
(603,1512,o),
(838,1512,cs),
(961,1512,o),
(1065,1492,o),
(1151,1453,cs),
(1322,1373,o),
(1407,1224,o),
(1376,1021,c),
(992,1021,l),
(995,1072,o),
(982,1112,o),
(952,1141,c),
(921,1169,o),
(874,1183,o),
(809,1183,cs),
(769,1183,o),
(734,1178,o),
(704,1168,cs),
(644,1147,o),
(608,1109,o),
(600,1061,cs),
(596,1038,o),
(600,1017,o),
(611,1000,cs),
(633,965,o),
(687,941,o),
(783,921,cs),
(899,897,ls),
(1062,864,o),
(1174,809,o),
(1239,733,cs),
(1304,657,o),
(1325,560,o),
(1305,441,cs),
(1290,342,o),
(1253,258,o),
(1196,189,cs),
(1080,52,o),
(889,-21,o),
(632,-21,cs)
);
}
);
width = 1384;
},
{
anchors = (
{
name = m.uni0347;
position = "{608, 0}";
},
{
name = m.uni0302_1;
position = "{850, 1490}";
},
{
name = m.uni0327_3;
position = "{604, 0}";
}
);
layerId = "496E469D-EE15-4086-9FDA-F7D1A66ADFFB";
shapes = (
{
closed = 1;
nodes = (
(477,-23,o),
(372,-4,o),
(287,36,cs),
(116,114,o),
(36,263,o),
(67,474,c),
(360,474,l),
(353,421,o),
(360,377,o),
(380,340,cs),
(419,267,o),
(503,229,o),
(622,229,cs),
(679,229,o),
(730,237,o),
(775,254,cs),
(865,286,o),
(925,346,o),
(937,425,c),
(943,458,o),
(939,487,o),
(924,510,cs),
(894,557,o),
(823,590,o),
(710,617,cs),
(555,655,ls),
(425,686,o),
(329,736,o),
(267,804,cs),
(204,871,o),
(182,960,o),
(201,1071,cs),
(215,1160,o),
(250,1237,o),
(306,1304,cs),
(418,1436,o),
(599,1512,o),
(816,1512,cs),
(929,1512,o),
(1025,1493,o),
(1104,1455,cs),
(1262,1379,o),
(1341,1238,o),
(1314,1050,c),
(1028,1050,l),
(1032,1117,o),
(1014,1169,o),
(973,1206,cs),
(932,1243,o),
(873,1261,o),
(794,1261,cs),
(741,1261,o),
(695,1253,o),
(654,1238,cs),
(572,1206,o),
(518,1149,o),
(506,1077,cs),
(501,1044,o),
(506,1015,o),
(521,992,cs),
(552,945,o),
(622,916,o),
(722,891,cs),
(855,859,ls),
(991,828,o),
(1096,779,o),
(1164,708,cs),
(1231,637,o),
(1258,543,o),
(1238,423,cs),
(1223,331,o),
(1188,252,o),
(1133,186,cs),
(1022,53,o),
(841,-23,o),
(601,-23,cs)
);
}
);
width = 1337;
},
{
anchors = (
{
name = m.uni0347;
position = "{608, 0}";
},
{
name = m.uni0302_1;
position = "{850, 1490}";
},
{
name = m.uni0327_3;
position = "{604, 0}";
}
);
layerId = "C6CF8F4D-8996-4F76-ABC0-77690A781072";
shapes = (
{
closed = 1;
nodes = (
(456,-25,o),
(361,-6,o),
(284,32,cs),
(129,107,o),
(55,248,o),
(79,435,c),
(268,435,l),
(260,372,o),
(268,318,o),
(292,275,cs),
(339,187,o),
(440,142,o),
(576,142,cs),
(647,142,o),
(712,153,o),
(771,176,cs),
(887,220,o),
(967,303,o),
(984,411,cs),
(991,455,o),
(986,492,o),
(969,522,c),
(933,581,o),
(852,620,o),
(732,653,cs),
(565,700,ls),
(439,735,o),
(346,783,o),
(287,845,cs),
(228,907,o),
(207,990,o),
(224,1094,cs),
(237,1178,o),
(270,1252,o),
(323,1315,cs),
(427,1441,o),
(594,1512,o),
(793,1512,cs),
(894,1512,o),
(980,1494,o),
(1052,1458,cs),
(1196,1386,o),
(1270,1254,o),
(1246,1082,c),
(1066,1082,l),
(1072,1165,o),
(1049,1229,o),
(997,1276,cs),
(944,1323,o),
(871,1346,o),
(777,1346,cs),
(712,1346,o),
(653,1335,o),
(600,1314,cs),
(494,1270,o),
(421,1191,o),
(405,1094,cs),
(398,1050,o),
(404,1013,o),
(425,984,c),
(465,924,o),
(551,888,o),
(655,859,cs),
(807,817,ls),
(914,789,o),
(1012,745,o),
(1081,681,cs),
(1150,616,o),
(1185,526,o),
(1165,403,cs),
(1152,320,o),
(1119,246,o),
(1066,182,cs),
(961,53,o),
(790,-25,o),
(567,-25,cs)
);
}
);
width = 1286;
},
{
anchors = (
{
name = m.uni0347;
position = "{558, 0}";
},
{
name = m.uni0302_1;
position = "{806, 1490}";
},
{
name = m.uni0327_3;
position = "{555, 0}";
}
);
layerId = "CFE5CAE0-9991-40C5-8AD5-14528CBB0784";
shapes = (
{
closed = 1;
nodes = (
(407,-22,o),
(331,-6,o),
(268,25,cs),
(143,88,o),
(81,203,o),
(94,350,c),
(140,350,l),
(134,283,o),
(144,226,o),
(171,177,cs),
(223,80,o),
(335,24,o),
(498,24,cs),
(585,24,o),
(663,39,o),
(733,69,cs),
(873,129,o),
(968,239,o),
(991,380,cs),
(1000,433,o),
(996,480,o),
(981,520,cs),
(949,600,o),
(863,660,o),
(707,712,cs),
(547,766,ls),
(436,803,o),
(357,851,o),
(308,911,cs),
(259,970,o),
(243,1043,o),
(258,1130,c),
(269,1203,o),
(299,1269,o),
(347,1327,cs),
(443,1442,o),
(593,1512,o),
(761,1512,cs),
(846,1512,o),
(919,1495,o),
(978,1461,cs),
(1097,1393,o),
(1155,1273,o),
(1139,1118,c),
(1094,1118,l),
(1103,1221,o),
(1078,1305,o),
(1020,1370,cs),
(962,1435,o),
(875,1467,o),
(760,1467,cs),
(685,1467,o),
(614,1452,o),
(549,1423,cs),
(418,1364,o),
(324,1258,o),
(303,1127,cs),
(295,1077,o),
(299,1032,o),
(315,993,cs),
(346,913,o),
(429,853,o),
(564,808,cs),
(724,754,ls),
(847,714,o),
(932,665,o),
(984,604,cs),
(1035,543,o),
(1052,469,o),
(1037,377,cs),
(1025,300,o),
(995,231,o),
(946,171,cs),
(848,51,o),
(693,-22,o),
(498,-22,cs)
);
}
);
width = 1191;
}
);
leftKerningGroup = S2;
rightKerningGroup = S;
unicode = 83;
}
{
glyphname = T;
layers = (
{
anchors = (
{
name = m.uni0347;
position = "{597, 0}";
},
{
name = m.uni0302_1;
position = "{845, 1490}";
},
{
name = m.uni0327_3;
position = "{591, 0}";
}
);
layerId = "7120DA8A-778D-4421-9957-14EBB73F7FEE";
shapes = (
{
closed = 1;
nodes = (
(149,1152,l),
(205,1490,l),
(1484,1490,l),
(1428,1152,l),
(993,1152,l),
(803,0,l),
(393,0,l),
(583,1152,l)
);
}
);
width = 1376;
},
{
anchors = (
{
name = m.uni0347;
position = "{597, 0}";
},
{
name = m.uni0302_1;
position = "{845, 1490}";
},
{
name = m.uni0327_3;
position = "{591, 0}";
}
);
layerId = "496E469D-EE15-4086-9FDA-F7D1A66ADFFB";
shapes = (
{
closed = 1;
nodes = (
(176,1236,l),
(218,1490,l),
(1429,1490,l),
(1387,1236,l),
(933,1236,l),
(729,0,l),
(427,0,l),
(631,1236,l)
);
}
);
width = 1334;
},
{
anchors = (
{
name = m.uni0347;
position = "{597, 0}";
},
{
name = m.uni0302_1;
position = "{845, 1490}";
},
{
name = m.uni0327_3;
position = "{591, 0}";
}
);
layerId = "C6CF8F4D-8996-4F76-ABC0-77690A781072";
shapes = (
{
closed = 1;
nodes = (
(205,1327,l),
(232,1490,l),
(1370,1490,l),
(1343,1327,l),
(867,1327,l),
(648,0,l),
(463,0,l),
(682,1327,l)
);
}
);
width = 1288;
},
{
anchors = (
{
name = m.uni0347;
position = "{569, 0}";
},
{
name = m.uni0302_1;
position = "{817, 1490}";
},
{
name = m.uni0327_3;
position = "{563, 0}";
}
);
layerId = "CFE5CAE0-9991-40C5-8AD5-14528CBB0784";
shapes = (
{
closed = 1;
nodes = (
(244,1445,l),
(252,1490,l),
(1298,1490,l),
(1290,1445,l),
(790,1445,l),
(551,0,l),
(505,0,l),
(744,1445,l)
);
}
);
width = 1236;
}
);
leftKerningGroup = T2;
rightKerningGroup = T;
unicode = 84;
}
{
glyphname = U;
layers = (
{
anchors = (
{
name = m.uni0347;
position = "{640, 0}";
},
{
name = m.uni0302_1;
position = "{887, 1490}";
},
{
name = m.uni0328_4;
position = "{1370, 521}";
}
);
layerId = "327A104B-2E28-4C21-9EEF-F371F9687223";
shapes = (
{
closed = 1;
nodes = (
(525,-21,o),
(413,3,o),
(321,50,cs),
(229,97,o),
(163,164,o),
(122,249,cs),
(81,334,o),
(70,433,o),
(89,546,cs),
(245,1490,l),
(649,1490,l),
(495,554,ls),
(488,508,o),
(490,468,o),
(503,435,cs),
(515,402,o),
(536,376,o),
(566,357,cs),
(596,338,o),
(632,329,o),
(674,329,cs),
(724,329,o),
(771,340,o),
(814,363,cs),
(857,386,o),
(892,416,o),
(921,454,cs),
(950,492,o),
(968,534,o),
(975,581,cs),
(1126,1490,l),
(1530,1490,l),
(1370,521,ls),
(1351,408,o),
(1310,311,o),
(1245,230,cs),
(1180,149,o),
(1097,87,o),
(997,44,cs),
(896,1,o),
(783,-21,o),
(657,-21,cs)
);
}
);
width = 1462;
},
{
anchors = (
{
name = m.uni0347;
position = "{640, 0}";
},
{
name = m.uni0302_1;
position = "{887, 1490}";
},
{
name = m.uni0328_4;
position = "{1370, 521}";
}
);
layerId = "E369B2B9-8A8B-4879-8879-CDDEC6ABDA8D";
shapes = (
{
closed = 1;
nodes = (
(532,-22,o),
(426,2,o),
(339,49,cs),
(252,96,o),
(189,161,o),
(151,244,cs),
(113,327,o),
(103,423,o),
(121,530,cs),
(280,1490,l),
(578,1490,l),
(421,535,ls),
(412,476,o),
(415,425,o),
(432,382,cs),
(449,338,o),
(478,304,o),
(519,279,cs),
(560,254,o),
(610,242,o),
(670,242,cs),
(736,242,o),
(796,256,o),
(850,284,cs),
(904,311,o),
(949,349,o),
(984,396,cs),
(1019,443,o),
(1042,497,o),
(1051,556,cs),
(1206,1490,l),
(1505,1490,l),
(1344,511,ls),
(1326,403,o),
(1286,309,o),
(1223,229,cs),
(1160,149,o),
(1081,87,o),
(984,44,cs),
(887,0,o),
(778,-22,o),
(657,-22,cs)
);
}
);
width = 1472;
},
{
anchors = (
{
name = m.uni0347;
position = "{640, 0}";
},
{
name = m.uni0302_1;
position = "{887, 1490}";
},
{
name = m.uni0328_4;
position = "{1370, 521}";
}
);
layerId = "844D73DB-7C23-43E4-9FB2-A17A73FD39D0";
shapes = (
{
closed = 1;
nodes = (
(539,-24,o),
(439,-1,o),
(358,47,cs),
(277,94,o),
(218,158,o),
(183,239,cs),
(148,320,o),
(138,411,o),
(155,513,cs),
(317,1490,l),
(502,1490,l),
(341,515,ls),
(329,442,o),
(334,379,o),
(356,324,cs),
(377,269,o),
(414,226,o),
(467,195,cs),
(520,164,o),
(586,148,o),
(665,148,cs),
(748,148,o),
(823,165,o),
(890,198,cs),
(956,231,o),
(1010,276,o),
(1053,333,cs),
(1095,390,o),
(1122,455,o),
(1134,528,cs),
(1293,1490,l),
(1478,1490,l),
(1315,501,ls),
(1298,398,o),
(1260,308,o),
(1200,229,cs),
(1139,150,o),
(1063,88,o),
(970,43,cs),
(877,-2,o),
(773,-24,o),
(658,-24,cs)
);
}
);
width = 1482;
},
{
anchors = (
{
name = m.uni0347;
position = "{605, 0}";
},
{
name = m.uni0302_1;
position = "{852, 1490}";
},
{
name = m.uni0328_4;
position = "{1292, 527}";
}
);
layerId = "AAF7CECC-D58D-4734-9D16-9C2B5AF74B2F";
shapes = (
{
closed = 1;
nodes = (
(514,-19,o),
(426,4,o),
(352,50,cs),
(278,96,o),
(224,159,o),
(191,239,cs),
(157,318,o),
(148,408,o),
(165,509,cs),
(327,1490,l),
(373,1490,l),
(211,505,ls),
(196,413,o),
(203,331,o),
(233,260,cs),
(263,188,o),
(312,131,o),
(379,90,cs),
(446,48,o),
(525,27,o),
(617,27,cs),
(712,27,o),
(800,48,o),
(881,90,cs),
(962,132,o),
(1030,190,o),
(1085,263,cs),
(1140,336,o),
(1175,418,o),
(1190,510,cs),
(1353,1490,l),
(1399,1490,l),
(1237,506,ls),
(1220,405,o),
(1182,315,o),
(1122,236,cs),
(1062,157,o),
(988,94,o),
(900,49,cs),
(812,4,o),
(717,-19,o),
(616,-19,cs)
);
}
);
width = 1413;
}
);
leftKerningGroup = U;
rightKerningGroup = J;
unicode = 85;
}
{
glyphname = V;
layers = (
{
anchors = (
{
name = m.uni0347;
position = "{701, 0}";
},
{
name = m.uni0302_1;
position = "{948, 1490}";
}
);
layerId = "327A104B-2E28-4C21-9EEF-F371F9687223";
shapes = (
{
closed = 1;
nodes = (
(433,0,l),
(180,1490,l),
(632,1490,l),
(709,912,ls),
(726,787,o),
(741,661,o),
(753,534,cs),
(764,406,o),
(775,277,o),
(784,147,c),
(678,147,l),
(782,406,o),
(884,663,o),
(997,912,cs),
(1258,1490,l),
(1716,1490,l),
(985,0,l)
);
}
);
width = 1583;
},
{
anchors = (
{
name = m.uni0347;
position = "{701, 0}";
},
{
name = m.uni0302_1;
position = "{948, 1490}";
}
);
layerId = "E369B2B9-8A8B-4879-8879-CDDEC6ABDA8D";
shapes = (
{
closed = 1;
nodes = (
(463,0,l),
(186,1490,l),
(512,1490,l),
(635,762,l),
(648,671,o),
(661,573,o),
(674,468,cs),
(686,363,o),
(699,246,o),
(712,119,c),
(636,119,l),
(745,371,o),
(836,583,o),
(921,762,cs),
(1276,1490,l),
(1610,1490,l),
(851,0,l)
);
}
);
width = 1484;
},
{
anchors = (
{
name = m.uni0347;
position = "{701, 0}";
},
{
name = m.uni0302_1;
position = "{948, 1490}";
}
);
layerId = "844D73DB-7C23-43E4-9FB2-A17A73FD39D0";
shapes = (
{
closed = 1;
nodes = (
(495,0,l),
(193,1490,l),
(383,1490,l),
(554,599,ls),
(564,545,o),
(576,478,o),
(589,397,cs),
(602,316,o),
(617,213,o),
(634,89,c),
(591,89,l),
(706,334,o),
(785,496,o),
(838,599,cs),
(1296,1490,l),
(1496,1490,l),
(706,0,l)
);
}
);
width = 1376;
},
{
anchors = (
{
name = m.uni0347;
position = "{646, 0}";
},
{
name = m.uni0302_1;
position = "{893, 1490}";
}
);
layerId = "AAF7CECC-D58D-4734-9D16-9C2B5AF74B2F";
shapes = (
{
closed = 1;
nodes = (
(511,0,l),
(200,1490,l),
(246,1490,l),
(487,336,ls),
(498,283,o),
(509,230,o),
(520,177,cs),
(531,124,o),
(541,70,o),
(552,16,c),
(534,16,l),
(590,123,o),
(648,231,o),
(705,336,cs),
(1326,1490,l),
(1378,1490,l),
(574,0,l)
);
}
);
width = 1265;
}
);
leftKerningGroup = V2;
rightKerningGroup = V;
unicode = 86;
}
{
glyphname = W;
layers = (
{
anchors = (
{
name = m.uni0347;
position = "{995, 0}";
},
{
name = m.uni0302_1;
position = "{1242, 1490}";
}
);
layerId = "327A104B-2E28-4C21-9EEF-F371F9687223";
shapes = (
{
closed = 1;
nodes = (
(328,0,l),
(180,1490,l),
(632,1490,l),
(655,912,ls),
(658,840,o),
(660,764,o),
(660,684,cs),
(659,524,o),
(655,364,o),
(656,217,c),
(567,217,l),
(594,290,o),
(620,367,o),
(647,446,cs),
(700,604,o),
(755,768,o),
(812,912,cs),
(1040,1490,l),
(1444,1490,l),
(1480,912,ls),
(1485,840,o),
(1488,764,o),
(1489,684,cs),
(1492,524,o),
(1490,364,o),
(1494,217,c),
(1404,217,l),
(1429,290,o),
(1454,367,o),
(1479,446,cs),
(1528,604,o),
(1581,768,o),
(1636,912,cs),
(1852,1490,l),
(2304,1490,l),
(1662,0,l),
(1205,0,l),
(1154,648,ls),
(1147,727,o),
(1145,817,o),
(1147,916,cs),
(1148,1015,o),
(1147,1120,o),
(1142,1233,c),
(1256,1233,l),
(1211,1120,o),
(1174,1015,o),
(1145,916,cs),
(1115,817,o),
(1084,728,o),
(1051,648,cs),
(785,0,l)
);
}
);
width = 2170;
},
{
anchors = (
{
name = m.uni0347;
position = "{995, 0}";
},
{
name = m.uni0302_1;
position = "{1242, 1490}";
}
);
layerId = "E369B2B9-8A8B-4879-8879-CDDEC6ABDA8D";
shapes = (
{
closed = 1;
nodes = (
(340,0,l),
(186,1490,l),
(510,1490,l),
(562,747,ls),
(566,686,o),
(569,623,o),
(571,558,cs),
(574,427,o),
(574,298,o),
(575,171,c),
(518,171,l),
(541,234,o),
(564,298,o),
(587,363,cs),
(633,492,o),
(681,626,o),
(730,747,cs),
(1039,1490,l),
(1350,1490,l),
(1412,747,ls),
(1417,686,o),
(1420,623,o),
(1423,558,cs),
(1428,427,o),
(1430,298,o),
(1434,171,c),
(1374,171,l),
(1396,234,o),
(1418,298,o),
(1440,363,cs),
(1484,492,o),
(1531,626,o),
(1579,747,cs),
(1879,1490,l),
(2207,1490,l),
(1559,0,l),
(1217,0,l),
(1143,794,ls),
(1136,866,o),
(1133,944,o),
(1132,1029,cs),
(1131,1114,o),
(1129,1205,o),
(1126,1303,c),
(1204,1303,l),
(1167,1206,o),
(1135,1116,o),
(1107,1032,cs),
(1079,947,o),
(1050,868,o),
(1019,794,cs),
(681,0,l)
);
}
);
width = 2079;
},
{
anchors = (
{
name = m.uni0347;
position = "{995, 0}";
},
{
name = m.uni0302_1;
position = "{1242, 1490}";
}
);
layerId = "844D73DB-7C23-43E4-9FB2-A17A73FD39D0";
shapes = (
{
closed = 1;
nodes = (
(352,0,l),
(193,1490,l),
(377,1490,l),
(462,568,ls),
(467,520,o),
(471,471,o),
(474,422,cs),
(481,323,o),
(485,225,o),
(488,122,c),
(465,122,l),
(484,173,o),
(503,224,o),
(522,274,cs),
(560,373,o),
(600,472,o),
(641,568,cs),
(1037,1490,l),
(1249,1490,l),
(1338,568,ls),
(1343,520,o),
(1347,471,o),
(1351,422,cs),
(1359,323,o),
(1364,225,o),
(1368,122,c),
(1342,122,l),
(1361,173,o),
(1380,224,o),
(1399,274,cs),
(1437,373,o),
(1477,472,o),
(1518,568,cs),
(1908,1490,l),
(2102,1490,l),
(1447,0,l),
(1231,0,l),
(1131,952,ls),
(1124,1017,o),
(1119,1083,o),
(1116,1152,cs),
(1112,1221,o),
(1109,1296,o),
(1108,1378,c),
(1147,1378,l),
(1120,1299,o),
(1093,1225,o),
(1067,1156,cs),
(1041,1087,o),
(1013,1019,o),
(984,952,cs),
(569,0,l)
);
}
);
width = 1981;
},
{
anchors = (
{
name = m.uni0347;
position = "{933, 0}";
},
{
name = m.uni0302_1;
position = "{1180, 1490}";
}
);
layerId = "AAF7CECC-D58D-4734-9D16-9C2B5AF74B2F";
shapes = (
{
closed = 1;
nodes = (
(375,0,l),
(200,1490,l),
(248,1490,l),
(380,352,ls),
(385,315,o),
(389,278,o),
(394,241,c),
(402,165,o),
(410,92,o),
(419,17,c),
(406,17,l),
(422,54,o),
(438,92,o),
(454,129,cs),
(486,203,o),
(519,279,o),
(551,352,cs),
(1049,1490,l),
(1119,1490,l),
(1240,352,ls),
(1244,315,o),
(1248,278,o),
(1252,241,cs),
(1260,165,o),
(1266,92,o),
(1274,17,c),
(1262,17,l),
(1279,54,o),
(1295,92,o),
(1311,129,cs),
(1343,203,o),
(1377,279,o),
(1410,352,cs),
(1921,1490,l),
(1970,1490,l),
(1301,0,l),
(1231,0,l),
(1113,1104,ls),
(1106,1166,o),
(1100,1228,o),
(1094,1289,cs),
(1087,1350,o),
(1081,1411,o),
(1076,1473,c),
(1088,1473,l),
(1061,1411,o),
(1035,1350,o),
(1009,1289,cs),
(982,1228,o),
(955,1166,o),
(928,1104,cs),
(445,0,l)
);
}
);
width = 1856;
}
);
leftKerningGroup = W2;
rightKerningGroup = W;
unicode = 87;
}
{
glyphname = Y;
layers = (
{
anchors = (
{
name = m.uni0347;
position = "{686, 0}";
},
{
name = m.uni0302_1;
position = "{928, 1490}";
},
{
name = m.uni0328_4;
position = "{890, 0}";
}
);
layerId = "7120DA8A-778D-4421-9957-14EBB73F7FEE";
shapes = (
{
closed = 1;
nodes = (
(488,0,l),
(573,513,l),
(180,1490,l),
(639,1490,l),
(781,1057,ls),
(794,1019,o),
(806,981,o),
(815,942,cs),
(824,903,o),
(832,862,o),
(841,817,c),
(782,817,l),
(804,862,o),
(826,903,o),
(847,942,cs),
(868,981,o),
(890,1019,o),
(913,1057,cs),
(1187,1490,l),
(1676,1490,l),
(975,513,l),
(890,0,l)
);
}
);
width = 1542;
},
{
anchors = (
{
name = m.uni0347;
position = "{686, 0}";
},
{
name = m.uni0302_1;
position = "{928, 1490}";
},
{
name = m.uni0328_4;
position = "{890, 0}";
}
);
layerId = "496E469D-EE15-4086-9FDA-F7D1A66ADFFB";
shapes = (
{
closed = 1;
nodes = (
(491,0,l),
(584,561,l),
(186,1490,l),
(521,1490,l),
(699,1034,ls),
(717,989,o),
(733,945,o),
(747,902,cs),
(760,859,o),
(774,811,o),
(787,758,c),
(719,758,l),
(749,811,o),
(778,860,o),
(806,903,cs),
(833,946,o),
(862,990,o),
(893,1034,cs),
(1216,1490,l),
(1579,1490,l),
(881,561,l),
(789,0,l)
);
}
);
width = 1451;
},
{
anchors = (
{
name = m.uni0347;
position = "{686, 0}";
},
{
name = m.uni0302_1;
position = "{928, 1490}";
},
{
name = m.uni0328_4;
position = "{890, 0}";
}
);
layerId = "C6CF8F4D-8996-4F76-ABC0-77690A781072";
shapes = (
{
closed = 1;
nodes = (
(494,0,l),
(595,612,l),
(193,1490,l),
(393,1490,l),
(610,1009,ls),
(633,958,o),
(654,908,o),
(673,860,cs),
(692,811,o),
(710,756,o),
(728,695,c),
(651,695,l),
(689,757,o),
(726,812,o),
(761,861,cs),
(796,910,o),
(832,959,o),
(871,1009,cs),
(1247,1490,l),
(1474,1490,l),
(780,612,l),
(679,0,l)
);
}
);
width = 1353;
},
{
anchors = (
{
name = m.uni0347;
position = "{643, 0}";
},
{
name = m.uni0302_1;
position = "{885, 1490}";
},
{
name = m.uni0328_4;
position = "{778, 0}";
}
);
layerId = "CFE5CAE0-9991-40C5-8AD5-14528CBB0784";
shapes = (
{
closed = 1;
nodes = (
(521,0,l),
(638,706,l),
(200,1490,l),
(252,1490,l),
(530,993,ls),
(554,950,o),
(578,907,o),
(601,865,cs),
(624,822,o),
(648,780,o),
(671,737,c),
(653,737,l),
(690,780,o),
(728,822,o),
(766,865,cs),
(803,907,o),
(841,950,o),
(878,993,cs),
(1320,1490,l),
(1380,1490,l),
(684,706,l),
(567,0,l)
);
}
);
width = 1266;
}
);
leftKerningGroup = Y2;
rightKerningGroup = Y;
unicode = 89;
}
{
glyphname = Z;
layers = (
{
anchors = (
{
name = m.uni0347;
position = "{615, 0}";
},
{
name = m.uni0302_1;
position = "{866, 1490}";
}
);
layerId = "327A104B-2E28-4C21-9EEF-F371F9687223";
shapes = (
{
closed = 1;
nodes = (
(5,0,l),
(42,224,l),
(902,1165,l),
(200,1165,l),
(254,1490,l),
(1470,1490,l),
(1433,1266,l),
(573,327,l),
(1275,327,l),
(1221,0,l)
);
}
);
width = 1407;
},
{
anchors = (
{
name = m.uni0347;
position = "{615, 0}";
},
{
name = m.uni0302_1;
position = "{866, 1490}";
}
);
layerId = "E369B2B9-8A8B-4879-8879-CDDEC6ABDA8D";
shapes = (
{
closed = 1;
nodes = (
(15,0,l),
(44,180,l),
(969,1243,l),
(217,1243,l),
(259,1490,l),
(1386,1490,l),
(1357,1309,l),
(431,249,l),
(1183,249,l),
(1142,0,l)
);
}
);
width = 1333;
},
{
anchors = (
{
name = m.uni0347;
position = "{615, 0}";
},
{
name = m.uni0302_1;
position = "{866, 1490}";
}
);
layerId = "844D73DB-7C23-43E4-9FB2-A17A73FD39D0";
shapes = (
{
closed = 1;
nodes = (
(25,0,l),
(47,132,l),
(1042,1327,l),
(236,1327,l),
(264,1490,l),
(1296,1490,l),
(1274,1356,l),
(278,164,l),
(1084,164,l),
(1057,0,l)
);
}
);
width = 1253;
},
{
anchors = (
{
name = m.uni0347;
position = "{579, 0}";
},
{
name = m.uni0302_1;
position = "{827, 1490}";
}
);
layerId = "AAF7CECC-D58D-4734-9D16-9C2B5AF74B2F";
shapes = (
{
closed = 1;
nodes = (
(33,0,l),
(40,46,l),
(1146,1443,l),
(277,1443,l),
(286,1490,l),
(1211,1490,l),
(1204,1442,l),
(98,47,l),
(977,47,l),
(969,0,l)
);
}
);
width = 1177;
}
);
leftKerningGroup = Z2;
rightKerningGroup = Z;
unicode = 90;
}
{
glyphname = backslash;
layers = (
{
layerId = "7120DA8A-778D-4421-9957-14EBB73F7FEE";
shapes = (
{
closed = 1;
nodes = (
(357,-224,l),
(173,1560,l),
(508,1560,l),
(693,-224,l)
);
}
);
width = 825;
},
{
layerId = "496E469D-EE15-4086-9FDA-F7D1A66ADFFB";
shapes = (
{
closed = 1;
nodes = (
(370,-224,l),
(185,1560,l),
(436,1560,l),
(621,-224,l)
);
}
);
width = 765;
},
{
layerId = "C6CF8F4D-8996-4F76-ABC0-77690A781072";
shapes = (
{
closed = 1;
nodes = (
(384,-224,l),
(199,1560,l),
(359,1560,l),
(543,-224,l)
);
}
);
width = 701;
},
{
layerId = "CFE5CAE0-9991-40C5-8AD5-14528CBB0784";
shapes = (
{
closed = 1;
nodes = (
(387,-224,l),
(203,1560,l),
(250,1560,l),
(434,-224,l)
);
}
);
width = 595;
}
);
leftKerningGroup = V2;
unicode = 92;
}
{
glyphname = asciicircum;
layers = (
{
layerId = "7120DA8A-778D-4421-9957-14EBB73F7FEE";
shapes = (
{
closed = 1;
nodes = (
(611,1306,l),
(663,1306,l),
(649,1223,l),
(597,1223,l)
);
},
{
closed = 1;
nodes = (
(96,814,l),
(515,1467,l),
(800,1467,l),
(1004,814,l),
(733,814,l),
(622,1251,l),
(633,1251,l),
(378,814,l)
);
}
);
width = 1009;
},
{
layerId = "496E469D-EE15-4086-9FDA-F7D1A66ADFFB";
shapes = (
{
closed = 1;
nodes = (
(595,1332,l),
(647,1332,l),
(634,1254,l),
(582,1254,l)
);
},
{
closed = 1;
nodes = (
(104,814,l),
(515,1455,l),
(758,1455,l),
(959,814,l),
(736,814,l),
(606,1283,l),
(620,1283,l),
(336,814,l)
);
}
);
width = 972;
},
{
layerId = "C6CF8F4D-8996-4F76-ABC0-77690A781072";
shapes = (
{
closed = 1;
nodes = (
(578,1361,l),
(630,1361,l),
(618,1287,l),
(566,1287,l)
);
},
{
closed = 1;
nodes = (
(112,814,l),
(514,1443,l),
(713,1443,l),
(910,814,l),
(739,814,l),
(588,1317,l),
(605,1317,l),
(291,814,l)
);
}
);
width = 931;
},
{
layerId = "CFE5CAE0-9991-40C5-8AD5-14528CBB0784";
shapes = (
{
closed = 1;
nodes = (
(511,1414,l),
(539,1414,l),
(532,1369,l),
(504,1369,l)
);
},
{
closed = 1;
nodes = (
(108,814,l),
(509,1443,l),
(545,1443,l),
(737,814,l),
(684,814,l),
(511,1397,l),
(534,1397,l),
(161,814,l)
);
}
);
width = 757;
}
);
rightKerningGroup = degree;
unicode = 94;
}
{
glyphname = underscore;
layers = (
{
layerId = "327A104B-2E28-4C21-9EEF-F371F9687223";
shapes = (
{
closed = 1;
nodes = (
(920,0,l),
(874,-286,l),
(-136,-286,l),
(-90,0,l)
);
}
);
width = 1011;
},
{
layerId = "E369B2B9-8A8B-4879-8879-CDDEC6ABDA8D";
shapes = (
{
closed = 1;
nodes = (
(883,0,l),
(846,-227,l),
(-126,-227,l),
(-90,0,l)
);
}
);
width = 974;
},
{
layerId = "844D73DB-7C23-43E4-9FB2-A17A73FD39D0";
shapes = (
{
closed = 1;
nodes = (
(842,0,l),
(816,-163,l),
(-116,-163,l),
(-90,0,l)
);
}
);
width = 933;
},
{
layerId = "AAF7CECC-D58D-4734-9D16-9C2B5AF74B2F";
shapes = (
{
closed = 1;
nodes = (
(795,0,l),
(787,-46,l),
(-97,-46,l),
(-89,0,l)
);
}
);
width = 885;
}
);
unicode = 95;
}
{
glyphname = a;
layers = (
{
anchors = (
{
name = m.uni0347;
position = "{569, 0}";
},
{
name = m.uni0302_1;
position = "{750, 1087}";
},
{
name = m.uni0328_4;
position = "{1113, 0}";
}
);
layerId = "7120DA8A-778D-4421-9957-14EBB73F7FEE";
shapes = (
{
closed = 1;
nodes = (
(323,-19,o),
(250,3,o),
(189,47,cs),
(68,134,o),
(13,304,o),
(54,545,cs),
(74,666,o),
(111,769,o),
(166,852,cs),
(220,935,o),
(284,999,o),
(359,1042,cs),
(433,1085,o),
(511,1106,o),
(592,1106,cs),
(642,1106,o),
(685,1098,o),
(722,1083,cs),
(795,1052,o),
(843,996,o),
(866,924,c),
(871,924,l),
(899,1087,l),
(1293,1087,l),
(1113,0,l),
(720,0,l),
(748,171,l),
(741,171,l),
(720,132,o),
(692,99,o),
(659,71,cs),
(592,14,o),
(508,-19,o),
(408,-19,cs)
);
},
{
closed = 1;
nodes = (
(631,292,o),
(664,302,o),
(695,323,cs),
(756,364,o),
(801,441,o),
(818,545,cs),
(826,597,o),
(826,642,o),
(817,679,cs),
(799,754,o),
(751,797,o),
(676,797,cs),
(640,797,o),
(608,787,o),
(579,766,cs),
(521,725,o),
(481,648,o),
(462,545,c),
(454,493,o),
(454,448,o),
(461,411,cs),
(476,335,o),
(521,292,o),
(594,292,cs)
);
}
);
width = 1298;
},
{
anchors = (
{
name = m.uni0347;
position = "{569, 0}";
},
{
name = m.uni0302_1;
position = "{750, 1087}";
},
{
name = m.uni0328_4;
position = "{1113, 0}";
}
);
layerId = "496E469D-EE15-4086-9FDA-F7D1A66ADFFB";
shapes = (
{
closed = 1;
nodes = (
(344,-20,o),
(269,3,o),
(208,48,cs),
(85,138,o),
(31,309,o),
(70,544,cs),
(89,661,o),
(126,762,o),
(180,846,cs),
(234,929,o),
(299,993,o),
(375,1038,cs),
(451,1083,o),
(532,1105,o),
(619,1105,cs),
(673,1105,o),
(719,1097,o),
(757,1080,cs),
(833,1047,o),
(880,989,o),
(904,922,c),
(911,922,l),
(939,1087,l),
(1227,1087,l),
(1047,0,l),
(761,0,l),
(788,169,l),
(779,169,l),
(756,134,o),
(728,102,o),
(695,73,cs),
(628,16,o),
(541,-20,o),
(433,-20,cs)
);
},
{
closed = 1;
nodes = (
(607,217,o),
(653,231,o),
(694,258,cs),
(777,312,o),
(835,412,o),
(856,545,cs),
(867,611,o),
(866,668,o),
(855,717,cs),
(831,813,o),
(766,869,o),
(663,869,cs),
(612,869,o),
(567,856,o),
(527,829,cs),
(446,776,o),
(391,676,o),
(367,545,c),
(357,478,o),
(358,421,o),
(369,372,cs),
(391,274,o),
(455,217,o),
(556,217,cs)
);
}
);
width = 1255;
},
{
anchors = (
{
name = m.uni0347;
position = "{569, 0}";
},
{
name = m.uni0302_1;
position = "{750, 1087}";
},
{
name = m.uni0328_4;
position = "{1113, 0}";
}
);
layerId = "C6CF8F4D-8996-4F76-ABC0-77690A781072";
shapes = (
{
closed = 1;
nodes = (
(368,-22,o),
(291,2,o),
(229,49,cs),
(104,143,o),
(51,316,o),
(88,543,cs),
(107,656,o),
(143,755,o),
(196,839,cs),
(249,923,o),
(315,988,o),
(393,1035,cs),
(471,1081,o),
(556,1104,o),
(648,1104,cs),
(707,1104,o),
(756,1095,o),
(796,1077,cs),
(875,1040,o),
(921,980,o),
(946,920,c),
(954,920,l),
(982,1087,l),
(1155,1087,l),
(975,0,l),
(805,0,l),
(832,167,l),
(820,167,l),
(796,136,o),
(767,106,o),
(734,77,cs),
(666,19,o),
(577,-22,o),
(460,-22,cs)
);
},
{
closed = 1;
nodes = (
(581,135,o),
(640,152,o),
(693,187,cs),
(798,255,o),
(871,381,o),
(898,544,cs),
(911,625,o),
(911,696,o),
(896,757,cs),
(866,877,o),
(781,948,o),
(648,948,cs),
(582,948,o),
(523,931,o),
(470,898,cs),
(365,830,o),
(293,707,o),
(265,544,cs),
(252,462,o),
(253,390,o),
(268,329,cs),
(299,206,o),
(383,135,o),
(514,135,cs)
);
}
);
width = 1208;
},
{
anchors = (
{
name = m.uni0347;
position = "{545, 0}";
},
{
name = m.uni0302_1;
position = "{709, 1087}";
},
{
name = m.uni0328_4;
position = "{1037, 0}";
}
);
layerId = "CFE5CAE0-9991-40C5-8AD5-14528CBB0784";
shapes = (
{
closed = 1;
nodes = (
(365,-20,o),
(291,4,o),
(232,52,cs),
(113,147,o),
(62,322,o),
(99,543,cs),
(117,652,o),
(152,748,o),
(205,833,cs),
(257,918,o),
(321,984,o),
(396,1032,cs),
(471,1079,o),
(553,1103,o),
(640,1103,cs),
(703,1103,o),
(759,1090,o),
(808,1065,cs),
(907,1013,o),
(970,921,o),
(982,802,c),
(985,802,l),
(1033,1087,l),
(1079,1087,l),
(899,0,l),
(853,0,l),
(899,281,l),
(895,281,l),
(869,222,o),
(833,170,o),
(788,125,cs),
(697,34,o),
(581,-20,o),
(453,-20,cs)
);
},
{
closed = 1;
nodes = (
(538,26,o),
(612,48,o),
(679,92,cs),
(813,180,o),
(908,339,o),
(943,543,cs),
(960,644,o),
(958,734,o),
(939,811,cs),
(900,966,o),
(796,1058,o),
(636,1058,cs),
(557,1058,o),
(484,1036,o),
(416,993,cs),
(279,905,o),
(179,744,o),
(144,543,cs),
(127,442,o),
(129,352,o),
(150,275,cs),
(191,119,o),
(299,26,o),
(458,26,cs)
);
}
);
width = 1156;
}
);
leftKerningGroup = a2;
rightKerningGroup = a;
unicode = 97;
}
{
glyphname = c;
layers = (
{
anchors = (
{
name = m.uni0347;
position = "{536, 0}";
},
{
name = m.uni0302_1;
position = "{716, 1087}";
},
{
name = m.uni0327_3;
position = "{536, 0}";
}
);
layerId = "7120DA8A-778D-4421-9957-14EBB73F7FEE";
shapes = (
{
closed = 1;
nodes = (
(448,-22,o),
(358,-2,o),
(283,37,cs),
(133,116,o),
(48,260,o),
(48,451,cs),
(48,622,o),
(105,784,o),
(216,908,cs),
(327,1031,o),
(489,1106,o),
(698,1106,cs),
(850,1106,o),
(976,1063,o),
(1064,986,cs),
(1152,909,o),
(1196,799,o),
(1183,663,c),
(802,636,l),
(805,684,o),
(800,726,o),
(784,756,cs),
(768,786,o),
(740,802,o),
(696,802,cs),
(611,802,o),
(549,751,o),
(509,676,cs),
(469,601,o),
(451,513,o),
(451,436,cs),
(451,403,o),
(455,376,o),
(464,353,cs),
(481,307,o),
(516,284,o),
(568,284,cs),
(615,284,o),
(658,301,o),
(695,331,cs),
(731,361,o),
(760,403,o),
(773,454,c),
(1144,427,l),
(1115,290,o),
(1045,179,o),
(942,101,cs),
(839,23,o),
(708,-22,o),
(553,-22,cs)
);
}
);
width = 1214;
},
{
anchors = (
{
name = m.uni0347;
position = "{536, 0}";
},
{
name = m.uni0302_1;
position = "{716, 1087}";
},
{
name = m.uni0327_3;
position = "{536, 0}";
}
);
layerId = "496E469D-EE15-4086-9FDA-F7D1A66ADFFB";
shapes = (
{
closed = 1;
nodes = (
(433,-23,o),
(349,-4,o),
(280,35,cs),
(141,111,o),
(62,252,o),
(62,437,cs),
(62,609,o),
(119,773,o),
(227,901,cs),
(334,1028,o),
(488,1106,o),
(685,1106,cs),
(820,1106,o),
(931,1067,o),
(1011,999,cs),
(1091,930,o),
(1134,832,o),
(1130,712,c),
(848,689,l),
(848,742,o),
(835,788,o),
(808,821,cs),
(781,854,o),
(741,873,o),
(682,873,cs),
(574,873,o),
(493,814,o),
(438,727,cs),
(383,639,o),
(356,531,o),
(356,431,cs),
(356,386,o),
(363,348,o),
(376,315,cs),
(403,249,o),
(457,212,o),
(540,212,cs),
(601,212,o),
(656,231,o),
(701,265,cs),
(746,299,o),
(782,346,o),
(801,402,c),
(1076,374,l),
(1041,254,o),
(973,155,o),
(878,86,cs),
(783,17,o),
(665,-23,o),
(530,-23,cs)
);
}
);
width = 1169;
},
{
anchors = (
{
name = m.uni0347;
position = "{536, 0}";
},
{
name = m.uni0302_1;
position = "{716, 1087}";
},
{
name = m.uni0327_3;
position = "{536, 0}";
}
);
layerId = "C6CF8F4D-8996-4F76-ABC0-77690A781072";
shapes = (
{
closed = 1;
nodes = (
(417,-24,o),
(341,-6,o),
(278,32,cs),
(150,106,o),
(78,243,o),
(78,422,cs),
(78,594,o),
(134,762,o),
(238,893,cs),
(341,1024,o),
(487,1106,o),
(670,1106,cs),
(786,1106,o),
(883,1072,o),
(954,1012,cs),
(1025,952,o),
(1067,868,o),
(1072,765,c),
(898,746,l),
(894,806,o),
(873,856,o),
(835,892,cs),
(797,928,o),
(741,949,o),
(666,949,cs),
(534,949,o),
(432,884,o),
(361,782,cs),
(290,680,o),
(254,552,o),
(254,425,cs),
(254,368,o),
(263,318,o),
(282,274,cs),
(318,186,o),
(393,134,o),
(509,134,cs),
(588,134,o),
(654,156,o),
(709,194,cs),
(764,232,o),
(805,285,o),
(832,346,c),
(1002,317,l),
(963,216,o),
(896,131,o),
(809,71,cs),
(722,11,o),
(618,-24,o),
(505,-24,cs)
);
}
);
width = 1121;
},
{
anchors = (
{
name = m.uni0347;
position = "{510, 0}";
},
{
name = m.uni0302_1;
position = "{694, 1087}";
},
{
name = m.uni0327_3;
position = "{511, 0}";
}
);
layerId = "CFE5CAE0-9991-40C5-8AD5-14528CBB0784";
shapes = (
{
closed = 1;
nodes = (
(388,-16,o),
(316,6,o),
(257,49,cs),
(137,135,o),
(76,290,o),
(93,483,cs),
(106,648,o),
(170,801,o),
(270,917,cs),
(370,1033,o),
(502,1103,o),
(651,1103,cs),
(768,1103,o),
(855,1059,o),
(913,998,cs),
(971,937,o),
(1000,864,o),
(1004,804,c),
(960,795,l),
(956,850,o),
(930,914,o),
(880,967,cs),
(830,1020,o),
(753,1058,o),
(652,1058,cs),
(511,1058,o),
(391,990,o),
(300,882,cs),
(208,773,o),
(151,629,o),
(139,476,cs),
(131,388,o),
(140,311,o),
(165,244,cs),
(215,110,o),
(321,31,o),
(472,31,cs),
(577,31,o),
(667,69,o),
(737,124,cs),
(807,179,o),
(858,245,o),
(879,298,c),
(922,285,l),
(899,225,o),
(845,151,o),
(767,90,cs),
(689,29,o),
(589,-16,o),
(473,-16,cs)
);
}
);
width = 1058;
}
);
leftKerningGroup = a2;
rightKerningGroup = b;
unicode = 99;
}
{
glyphname = e;
layers = (
{
anchors = (
{
name = m.uni0347;
position = "{551, 0}";
},
{
name = m.uni0302_1;
position = "{728, 1087}";
},
{
name = m.uni0327_3;
position = "{548, 0}";
},
{
name = m.uni0328_4;
position = "{1135, 347}";
}
);
layerId = "327A104B-2E28-4C21-9EEF-F371F9687223";
shapes = (
{
closed = 1;
nodes = (
(446,-24,o),
(350,-4,o),
(270,35,cs),
(110,114,o),
(28,266,o),
(48,482,cs),
(63,661,o),
(133,815,o),
(250,928,cs),
(366,1040,o),
(525,1106,o),
(714,1106,cs),
(799,1106,o),
(876,1093,o),
(947,1067,cs),
(1087,1015,o),
(1177,914,o),
(1177,759,cs),
(1177,600,o),
(1079,514,o),
(900,473,cs),
(721,432,o),
(471,426,o),
(162,426,c),
(199,652,l),
(464,652,o),
(620,658,o),
(705,671,cs),
(789,684,o),
(813,708,o),
(813,741,cs),
(813,768,o),
(801,788,o),
(777,803,cs),
(753,817,o),
(718,824,o),
(673,824,cs),
(564,824,o),
(506,771,o),
(477,697,cs),
(448,623,o),
(442,536,o),
(437,471,cs),
(433,429,o),
(434,392,o),
(439,360,cs),
(450,295,o),
(494,257,o),
(591,257,cs),
(641,257,o),
(682,266,o),
(713,285,cs),
(744,304,o),
(764,329,o),
(774,361,c),
(1135,347,l),
(1100,236,o),
(1033,147,o),
(934,79,cs),
(835,10,o),
(710,-24,o),
(559,-24,cs)
);
}
);
width = 1217;
},
{
anchors = (
{
name = m.uni0347;
position = "{551, 0}";
},
{
name = m.uni0302_1;
position = "{728, 1087}";
},
{
name = m.uni0327_3;
position = "{548, 0}";
},
{
name = m.uni0328_4;
position = "{1135, 347}";
}
);
layerId = "E369B2B9-8A8B-4879-8879-CDDEC6ABDA8D";
shapes = (
{
closed = 1;
nodes = (
(434,-24,o),
(348,-6,o),
(276,31,cs),
(131,104,o),
(54,248,o),
(63,456,cs),
(71,643,o),
(138,805,o),
(251,923,cs),
(364,1041,o),
(517,1108,o),
(697,1108,cs),
(776,1108,o),
(846,1096,o),
(909,1071,cs),
(1033,1021,o),
(1109,924,o),
(1109,784,cs),
(1109,640,o),
(1027,554,o),
(869,506,cs),
(711,458,o),
(480,444,o),
(183,444,c),
(213,628,l),
(469,628,o),
(626,638,o),
(716,661,cs),
(806,684,o),
(836,722,o),
(836,775,cs),
(836,810,o),
(821,838,o),
(792,857,cs),
(763,876,o),
(721,886,o),
(667,886,cs),
(540,886,o),
(462,824,o),
(415,736,cs),
(367,647,o),
(351,540,o),
(348,448,cs),
(346,401,o),
(350,359,o),
(361,321,c),
(381,244,o),
(441,197,o),
(556,197,cs),
(618,197,o),
(670,210,o),
(713,236,cs),
(756,261,o),
(786,295,o),
(804,337,c),
(1072,319,l),
(1035,216,o),
(970,134,o),
(877,71,cs),
(784,8,o),
(670,-24,o),
(535,-24,cs)
);
}
);
width = 1175;
},
{
anchors = (
{
name = m.uni0347;
position = "{551, 0}";
},
{
name = m.uni0302_1;
position = "{728, 1087}";
},
{
name = m.uni0327_3;
position = "{548, 0}";
},
{
name = m.uni0328_4;
position = "{1135, 347}";
}
);
layerId = "844D73DB-7C23-43E4-9FB2-A17A73FD39D0";
shapes = (
{
closed = 1;
nodes = (
(421,-24,o),
(346,-7,o),
(282,27,cs),
(154,94,o),
(80,228,o),
(80,427,cs),
(80,623,o),
(144,793,o),
(253,917,cs),
(362,1040,o),
(510,1111,o),
(678,1111,cs),
(750,1111,o),
(813,1099,o),
(867,1075,cs),
(974,1027,o),
(1036,936,o),
(1036,811,cs),
(1036,684,o),
(971,597,o),
(835,542,cs),
(699,487,o),
(492,463,o),
(205,463,c),
(229,603,l),
(473,603,o),
(632,618,o),
(728,651,cs),
(823,683,o),
(860,736,o),
(860,812,cs),
(860,856,o),
(843,891,o),
(808,916,cs),
(773,941,o),
(724,954,o),
(661,954,cs),
(514,954,o),
(413,883,o),
(347,779,cs),
(281,674,o),
(251,543,o),
(251,423,cs),
(251,371,o),
(259,323,o),
(275,279,cs),
(307,190,o),
(383,132,o),
(518,132,cs),
(593,132,o),
(658,149,o),
(713,182,cs),
(768,215,o),
(809,258,o),
(836,312,c),
(1004,288,l),
(965,194,o),
(902,119,o),
(815,62,cs),
(727,5,o),
(625,-24,o),
(508,-24,cs)
);
}
);
width = 1130;
},
{
anchors = (
{
name = m.uni0347;
position = "{520, 0}";
},
{
name = m.uni0302_1;
position = "{713, 1087}";
},
{
name = m.uni0327_3;
position = "{516, 0}";
},
{
name = m.uni0328_4;
position = "{1056, 310}";
}
);
layerId = "AAF7CECC-D58D-4734-9D16-9C2B5AF74B2F";
shapes = (
{
closed = 1;
nodes = (
(400,-16,o),
(332,2,o),
(273,37,cs),
(156,108,o),
(88,238,o),
(88,409,cs),
(88,598,o),
(147,770,o),
(252,899,cs),
(356,1027,o),
(501,1103,o),
(673,1103,cs),
(744,1103,o),
(803,1091,o),
(851,1066,cs),
(947,1017,o),
(996,928,o),
(996,816,cs),
(996,668,o),
(909,590,o),
(754,553,cs),
(598,516,o),
(382,512,o),
(123,512,c),
(123,558,l),
(372,558,o),
(578,561,o),
(723,592,cs),
(868,623,o),
(950,690,o),
(950,815,cs),
(950,887,o),
(927,945,o),
(881,990,cs),
(834,1035,o),
(765,1057,o),
(673,1057,cs),
(514,1057,o),
(381,985,o),
(285,866,cs),
(189,747,o),
(134,586,o),
(134,410,cs),
(134,333,o),
(148,266,o),
(176,209,cs),
(232,96,o),
(338,30,o),
(477,30,cs),
(564,30,o),
(643,52,o),
(715,97,cs),
(787,142,o),
(843,199,o),
(884,270,c),
(926,255,l),
(883,177,o),
(822,112,o),
(742,61,cs),
(661,10,o),
(573,-16,o),
(477,-16,cs)
);
}
);
width = 1067;
}
);
leftKerningGroup = a2;
rightKerningGroup = b;
unicode = 101;
}
{
glyphname = f;
layers = (
{
anchors = (
{
name = m.uni0347;
position = "{316, 0}";
},
{
name = m.uni0302_1;
position = "{689, 1515}";
}
);
layerId = "327A104B-2E28-4C21-9EEF-F371F9687223";
shapes = (
{
closed = 1;
nodes = (
(921,1087,l),
(871,789,l),
(61,789,l),
(111,1087,l)
);
},
{
closed = 1;
nodes = (
(-2,-437,o),
(-28,-437,o),
(-55,-437,cs),
(-107,-436,o),
(-155,-433,o),
(-184,-429,c),
(-120,-130,l),
(-93,-131,o),
(-54,-135,o),
(-23,-135,cs),
(60,-135,o),
(101,-98,o),
(116,-10,cs),
(302,1121,ls),
(317,1211,o),
(346,1286,o),
(388,1345,cs),
(471,1464,o),
(607,1524,o),
(799,1524,cs),
(882,1524,o),
(959,1522,o),
(1008,1513,c),
(935,1217,l),
(907,1220,o),
(871,1221,o),
(827,1221,cs),
(751,1221,o),
(715,1190,o),
(703,1115,cs),
(513,-29,ls),
(498,-120,o),
(470,-195,o),
(429,-255,cs),
(346,-375,o),
(212,-437,o),
(24,-437,cs)
);
}
);
width = 881;
},
{
anchors = (
{
name = m.uni0347;
position = "{316, 0}";
},
{
name = m.uni0302_1;
position = "{689, 1515}";
}
);
layerId = "E369B2B9-8A8B-4879-8879-CDDEC6ABDA8D";
shapes = (
{
closed = 1;
nodes = (
(828,1087,l),
(790,862,l),
(72,862,l),
(110,1087,l)
);
},
{
closed = 1;
nodes = (
(-34,-435,o),
(-53,-435,o),
(-71,-435,c),
(-107,-434,o),
(-140,-431,o),
(-171,-427,c),
(-120,-194,l),
(-93,-197,o),
(-61,-200,o),
(-33,-200,cs),
(58,-200,o),
(100,-160,o),
(116,-63,cs),
(319,1169,ls),
(332,1246,o),
(358,1311,o),
(395,1364,cs),
(469,1469,o),
(588,1524,o),
(749,1524,cs),
(813,1524,o),
(873,1522,o),
(918,1514,c),
(862,1288,l),
(835,1291,o),
(795,1292,o),
(755,1292,cs),
(668,1292,o),
(626,1252,o),
(611,1160,cs),
(406,-73,ls),
(393,-152,o),
(369,-219,o),
(334,-273,cs),
(263,-380,o),
(149,-435,o),
(-14,-435,cs)
);
}
);
width = 792;
},
{
anchors = (
{
name = m.uni0347;
position = "{316, 0}";
},
{
name = m.uni0302_1;
position = "{689, 1515}";
}
);
layerId = "844D73DB-7C23-43E4-9FB2-A17A73FD39D0";
shapes = (
{
closed = 1;
nodes = (
(727,1087,l),
(703,941,l),
(84,941,l),
(108,1087,l)
);
},
{
closed = 1;
nodes = (
(-69,-433,o),
(-81,-433,o),
(-90,-432,cs),
(-108,-431,o),
(-125,-428,o),
(-157,-424,c),
(-121,-264,l),
(-93,-267,o),
(-70,-270,o),
(-43,-270,cs),
(54,-270,o),
(98,-228,o),
(115,-121,cs),
(337,1220,ls),
(348,1285,o),
(370,1340,o),
(402,1385,cs),
(465,1476,o),
(566,1525,o),
(695,1525,cs),
(738,1525,o),
(779,1520,o),
(820,1515,c),
(783,1365,l),
(756,1368,o),
(713,1369,o),
(677,1369,cs),
(580,1369,o),
(530,1320,o),
(511,1208,cs),
(290,-120,ls),
(279,-188,o),
(260,-245,o),
(231,-292,cs),
(174,-384,o),
(80,-433,o),
(-56,-433,cs)
);
}
);
width = 696;
},
{
anchors = (
{
name = m.uni0347;
position = "{234, 0}";
},
{
name = m.uni0302_1;
position = "{611, 1515}";
}
);
layerId = "AAF7CECC-D58D-4734-9D16-9C2B5AF74B2F";
shapes = (
{
closed = 1;
nodes = (
(597,1087,l),
(590,1041,l),
(88,1041,l),
(96,1087,l)
);
},
{
closed = 1;
nodes = (
(-147,-442,o),
(-157,-442,o),
(-166,-442,c),
(-185,-441,o),
(-203,-437,o),
(-220,-434,c),
(-205,-390,l),
(-180,-394,o),
(-160,-396,o),
(-133,-396,cs),
(-21,-396,o),
(63,-334,o),
(83,-214,cs),
(332,1296,ls),
(341,1345,o),
(357,1387,o),
(382,1420,cs),
(431,1487,o),
(506,1523,o),
(598,1523,cs),
(629,1523,o),
(656,1520,o),
(681,1515,c),
(665,1472,l),
(641,1476,o),
(625,1477,o),
(594,1477,cs),
(483,1477,o),
(400,1415,o),
(379,1295,cs),
(129,-214,ls),
(121,-263,o),
(105,-305,o),
(80,-339,cs),
(31,-406,o),
(-45,-442,o),
(-136,-442,cs)
);
}
);
width = 541;
}
);
leftKerningGroup = f2;
rightKerningGroup = f;
unicode = 102;
}
{
glyphname = h;
layers = (
{
anchors = (
{
name = m.uni0347;
position = "{559, 0}";
},
{
name = m.uni0302_1;
position = "{448, 1490}";
},
{
name = m.uni0327_3;
position = "{209, 0}";
}
);
layerId = "7120DA8A-778D-4421-9957-14EBB73F7FEE";
shapes = (
{
closed = 1;
nodes = (
(405,0,l),
(4,0,l),
(251,1490,l),
(647,1490,l),
(533,799,l),
(495,799,l),
(524,858,o),
(558,911,o),
(595,957,cs),
(670,1049,o),
(769,1106,o),
(909,1106,cs),
(988,1106,o),
(1053,1089,o),
(1106,1054,cs),
(1210,985,o),
(1256,856,o),
(1228,689,cs),
(1115,0,l),
(713,0,l),
(813,603,ls),
(822,657,o),
(815,699,o),
(794,729,cs),
(773,759,o),
(737,774,o),
(688,774,cs),
(656,774,o),
(627,767,o),
(602,754,cs),
(551,726,o),
(517,673,o),
(504,594,cs)
);
}
);
width = 1298;
},
{
anchors = (
{
name = m.uni0347;
position = "{559, 0}";
},
{
name = m.uni0302_1;
position = "{448, 1490}";
},
{
name = m.uni0327_3;
position = "{209, 0}";
}
);
layerId = "496E469D-EE15-4086-9FDA-F7D1A66ADFFB";
shapes = (
{
closed = 1;
nodes = (
(320,0,l),
(27,0,l),
(274,1490,l),
(564,1490,l),
(451,811,l),
(412,811,l),
(443,874,o),
(479,927,o),
(518,971,cs),
(597,1058,o),
(694,1105,o),
(821,1105,cs),
(897,1105,o),
(962,1089,o),
(1015,1056,cs),
(1121,990,o),
(1172,863,o),
(1141,686,cs),
(1028,0,l),
(735,0,l),
(840,635,ls),
(852,706,o),
(844,761,o),
(815,799,cs),
(786,837,o),
(739,856,o),
(676,856,cs),
(635,856,o),
(596,847,o),
(561,830,cs),
(490,794,o),
(441,725,o),
(422,618,cs)
);
}
);
width = 1235;
},
{
anchors = (
{
name = m.uni0347;
position = "{559, 0}";
},
{
name = m.uni0302_1;
position = "{448, 1490}";
},
{
name = m.uni0327_3;
position = "{209, 0}";
}
);
layerId = "C6CF8F4D-8996-4F76-ABC0-77690A781072";
shapes = (
{
closed = 1;
nodes = (
(227,0,l),
(52,0,l),
(299,1490,l),
(474,1490,l),
(363,824,l),
(322,824,l),
(356,891,o),
(394,945,o),
(435,986,cs),
(518,1068,o),
(614,1104,o),
(725,1104,cs),
(798,1104,o),
(862,1089,o),
(916,1058,cs),
(1024,996,o),
(1079,872,o),
(1047,683,cs),
(934,0,l),
(758,0,l),
(870,670,ls),
(885,759,o),
(874,828,o),
(837,875,cs),
(800,922,o),
(742,945,o),
(663,945,cs),
(611,945,o),
(562,934,o),
(516,912,cs),
(424,868,o),
(357,780,o),
(334,644,cs)
);
}
);
width = 1166;
},
{
anchors = (
{
name = m.uni0347;
position = "{543, 0}";
},
{
name = m.uni0302_1;
position = "{408, 1490}";
},
{
name = m.uni0327_3;
position = "{167, 0}";
}
);
layerId = "CFE5CAE0-9991-40C5-8AD5-14528CBB0784";
shapes = (
{
closed = 1;
nodes = (
(122,0,l),
(76,0,l),
(323,1490,l),
(369,1490,l),
(262,848,l),
(251,848,l),
(276,905,o),
(310,953,o),
(353,990,cs),
(438,1065,o),
(548,1103,o),
(661,1103,cs),
(738,1103,o),
(803,1087,o),
(858,1055,cs),
(966,990,o),
(1020,874,o),
(995,719,cs),
(877,0,l),
(830,0,l),
(950,720,ls),
(967,821,o),
(948,903,o),
(895,965,cs),
(841,1026,o),
(763,1057,o),
(661,1057,cs),
(592,1057,o),
(527,1043,o),
(468,1014,cs),
(348,956,o),
(263,850,o),
(242,719,cs)
);
}
);
width = 1133;
}
);
leftKerningGroup = B2;
rightKerningGroup = a;
unicode = 104;
}
{
glyphname = k;
layers = (
{
anchors = (
{
name = m.uni0347;
position = "{531, 0}";
},
{
name = m.uni0302_1;
position = "{452, 1490}";
}
);
layerId = "327A104B-2E28-4C21-9EEF-F371F9687223";
shapes = (
{
closed = 1;
nodes = (
(405,252,l),
(484,727,l),
(535,727,l),
(864,1087,l),
(1315,1087,l),
(769,516,l),
(656,516,l)
);
},
{
closed = 1;
nodes = (
(4,0,l),
(251,1490,l),
(652,1490,l),
(405,0,l)
);
},
{
closed = 1;
nodes = (
(690,0,l),
(507,427,l),
(814,709,l),
(1147,0,l)
);
}
);
width = 1222;
},
{
anchors = (
{
name = m.uni0347;
position = "{531, 0}";
},
{
name = m.uni0302_1;
position = "{452, 1490}";
}
);
layerId = "E369B2B9-8A8B-4879-8879-CDDEC6ABDA8D";
shapes = (
{
closed = 1;
nodes = (
(345,319,l),
(403,667,l),
(441,667,l),
(883,1087,l),
(1224,1087,l),
(651,543,l),
(584,543,l)
);
},
{
closed = 1;
nodes = (
(27,0,l),
(274,1490,l),
(567,1490,l),
(320,0,l)
);
},
{
closed = 1;
nodes = (
(722,0,l),
(463,478,l),
(692,683,l),
(1067,0,l)
);
}
);
width = 1155;
},
{
anchors = (
{
name = m.uni0347;
position = "{531, 0}";
},
{
name = m.uni0302_1;
position = "{452, 1490}";
}
);
layerId = "844D73DB-7C23-43E4-9FB2-A17A73FD39D0";
shapes = (
{
closed = 1;
nodes = (
(281,391,l),
(316,603,l),
(339,603,l),
(904,1087,l),
(1125,1087,l),
(524,572,l),
(506,572,l)
);
},
{
closed = 1;
nodes = (
(52,0,l),
(299,1490,l),
(474,1490,l),
(227,0,l)
);
},
{
closed = 1;
nodes = (
(756,0,l),
(415,533,l),
(560,655,l),
(980,0,l)
);
}
);
width = 1082;
},
{
anchors = (
{
name = m.uni0347;
position = "{475, 0}";
},
{
name = m.uni0302_1;
position = "{412, 1490}";
}
);
layerId = "AAF7CECC-D58D-4734-9D16-9C2B5AF74B2F";
shapes = (
{
closed = 1;
nodes = (
(184,450,l),
(198,531,l),
(216,531,l),
(871,1087,l),
(937,1087,l),
(382,617,l),
(375,611,l)
);
},
{
closed = 1;
nodes = (
(76,0,l),
(323,1490,l),
(369,1490,l),
(122,0,l)
);
},
{
closed = 1;
nodes = (
(735,0,l),
(346,617,l),
(387,645,l),
(795,0,l)
);
}
);
width = 923;
}
);
leftKerningGroup = B2;
rightKerningGroup = k;
unicode = 107;
}
{
glyphname = l.ss02;
layers = (
{
anchors = (
{
name = m.uni0347;
position = "{260, 0}";
},
{
name = m.uni0302_1;
position = "{452, 1490}";
}
);
layerId = "327A104B-2E28-4C21-9EEF-F371F9687223";
shapes = (
{
closed = 1;
nodes = (
(266,-3,o),
(168,23,o),
(113,75,cs),
(58,127,o),
(40,211,o),
(59,326,cs),
(252,1490,l),
(653,1490,l),
(465,365,l),
(462,342,o),
(465,325,o),
(476,313,cs),
(487,301,o),
(504,295,o),
(529,295,cs),
(549,295,o),
(565,295,o),
(576,298,c),
(557,13,l),
(522,6,o),
(469,-3,o),
(406,-3,cs)
);
}
);
width = 663;
},
{
anchors = (
{
name = m.uni0347;
position = "{260, 0}";
},
{
name = m.uni0302_1;
position = "{452, 1490}";
}
);
layerId = "E369B2B9-8A8B-4879-8879-CDDEC6ABDA8D";
shapes = (
{
closed = 1;
nodes = (
(245,-3,o),
(164,20,o),
(119,67,cs),
(73,113,o),
(58,186,o),
(75,286,cs),
(275,1490,l),
(568,1490,l),
(373,322,ls),
(367,287,o),
(369,263,o),
(380,248,cs),
(391,233,o),
(412,225,o),
(445,225,cs),
(466,225,o),
(484,226,o),
(496,229,c),
(483,9,l),
(454,4,o),
(409,-3,o),
(361,-3,cs)
);
}
);
width = 593;
},
{
anchors = (
{
name = m.uni0347;
position = "{260, 0}";
},
{
name = m.uni0302_1;
position = "{452, 1490}";
}
);
layerId = "844D73DB-7C23-43E4-9FB2-A17A73FD39D0";
shapes = (
{
closed = 1;
nodes = (
(222,-4,o),
(160,16,o),
(125,57,cs),
(90,98,o),
(79,160,o),
(93,243,cs),
(300,1490,l),
(475,1490,l),
(273,275,ls),
(265,227,o),
(266,194,o),
(277,177,c),
(287,159,o),
(312,150,o),
(353,150,cs),
(377,150,o),
(397,151,o),
(410,154,c),
(403,5,l),
(379,0,o),
(345,-4,o),
(313,-4,cs)
);
}
);
width = 517;
},
{
anchors = (
{
name = m.uni0347;
position = "{228, 0}";
},
{
name = m.uni0302_1;
position = "{411, 1490}";
}
);
layerId = "AAF7CECC-D58D-4734-9D16-9C2B5AF74B2F";
shapes = (
{
closed = 1;
nodes = (
(214,-8,o),
(167,2,o),
(136,31,cs),
(105,60,o),
(95,108,o),
(106,176,cs),
(324,1490,l),
(370,1490,l),
(151,176,ls),
(142,120,o),
(150,83,o),
(173,65,cs),
(196,46,o),
(233,40,o),
(284,46,cs),
(292,47,o),
(291,47,o),
(298,47,c),
(296,2,l),
(291,1,o),
(285,0,o),
(278,-1,cs)
);
}
);
width = 416;
}
);
leftKerningGroup = B2;
unicode = (108,57424);
}
{
glyphname = m;
layers = (
{
anchors = (
{
name = m.uni0347;
position = "{866, 0}";
},
{
name = m.uni0302_1;
position = "{1045, 1087}";
}
);
layerId = "7120DA8A-778D-4421-9957-14EBB73F7FEE";
shapes = (
{
closed = 1;
nodes = (
(4,0,l),
(184,1087,l),
(560,1087,l),
(528,808,l),
(505,821,l),
(534,892,o),
(568,948,o),
(608,989,cs),
(688,1072,o),
(783,1106,o),
(878,1106,cs),
(934,1106,o),
(983,1094,o),
(1024,1071,cs),
(1107,1023,o),
(1155,928,o),
(1158,779,c),
(1125,806,l),
(1152,880,o),
(1188,939,o),
(1231,983,cs),
(1318,1070,o),
(1426,1106,o),
(1530,1106,cs),
(1605,1106,o),
(1668,1090,o),
(1719,1057,cs),
(1822,991,o),
(1870,870,o),
(1845,717,cs),
(1726,0,l),
(1326,0,l),
(1432,642,ls),
(1437,675,o),
(1437,702,o),
(1432,723,c),
(1420,765,o),
(1389,785,o),
(1340,785,cs),
(1310,785,o),
(1282,778,o),
(1256,763,cs),
(1204,734,o),
(1170,681,o),
(1159,616,cs),
(1057,0,l),
(675,0,l),
(781,643,ls),
(789,691,o),
(785,727,o),
(769,750,cs),
(752,773,o),
(726,785,o),
(689,785,cs),
(659,785,o),
(631,778,o),
(606,763,c),
(554,734,o),
(519,681,o),
(508,617,cs),
(405,0,l)
);
}
);
width = 1910;
},
{
anchors = (
{
name = m.uni0347;
position = "{866, 0}";
},
{
name = m.uni0302_1;
position = "{1045, 1087}";
}
);
layerId = "496E469D-EE15-4086-9FDA-F7D1A66ADFFB";
shapes = (
{
closed = 1;
nodes = (
(27,0,l),
(207,1087,l),
(485,1087,l),
(450,830,l),
(429,839,l),
(457,903,o),
(491,955,o),
(530,994,cs),
(609,1072,o),
(704,1106,o),
(797,1106,cs),
(853,1106,o),
(902,1094,o),
(943,1071,cs),
(1025,1023,o),
(1071,935,o),
(1074,812,c),
(1043,831,l),
(1068,894,o),
(1102,945,o),
(1143,986,cs),
(1225,1067,o),
(1332,1106,o),
(1441,1106,cs),
(1512,1106,o),
(1573,1091,o),
(1624,1060,cs),
(1726,998,o),
(1775,880,o),
(1748,717,cs),
(1629,0,l),
(1337,0,l),
(1450,683,ls),
(1457,726,o),
(1456,761,o),
(1446,787,cs),
(1425,839,o),
(1379,863,o),
(1316,863,cs),
(1275,863,o),
(1237,854,o),
(1204,836,cs),
(1136,799,o),
(1091,733,o),
(1078,654,cs),
(970,0,l),
(687,0,l),
(802,692,ls),
(811,747,o),
(804,790,o),
(779,819,cs),
(754,848,o),
(717,863,o),
(669,863,cs),
(632,863,o),
(596,854,o),
(562,836,cs),
(493,800,o),
(442,733,o),
(426,641,cs),
(320,0,l)
);
}
);
width = 1836;
},
{
anchors = (
{
name = m.uni0347;
position = "{866, 0}";
},
{
name = m.uni0302_1;
position = "{1045, 1087}";
}
);
layerId = "C6CF8F4D-8996-4F76-ABC0-77690A781072";
shapes = (
{
closed = 1;
nodes = (
(52,0,l),
(232,1087,l),
(403,1087,l),
(365,854,l),
(347,859,l),
(374,916,o),
(407,962,o),
(446,999,cs),
(524,1071,o),
(617,1107,o),
(709,1107,cs),
(766,1107,o),
(814,1095,o),
(855,1072,c),
(935,1024,o),
(979,943,o),
(982,847,c),
(954,859,l),
(977,908,o),
(1008,952,o),
(1047,989,cs),
(1125,1064,o),
(1230,1107,o),
(1345,1107,cs),
(1412,1107,o),
(1470,1093,o),
(1520,1064,cs),
(1620,1006,o),
(1672,890,o),
(1643,717,cs),
(1524,0,l),
(1349,0,l),
(1469,727,ls),
(1478,782,o),
(1476,825,o),
(1461,857,cs),
(1431,921,o),
(1366,947,o),
(1290,947,cs),
(1237,947,o),
(1189,936,o),
(1147,914,cs),
(1062,869,o),
(1007,790,o),
(991,695,cs),
(876,0,l),
(701,0,l),
(824,745,ls),
(835,808,o),
(823,858,o),
(789,894,c),
(754,929,o),
(707,947,o),
(647,947,cs),
(602,947,o),
(557,936,o),
(514,915,cs),
(426,872,o),
(358,788,o),
(338,668,cs),
(227,0,l)
);
}
);
width = 1756;
},
{
anchors = (
{
name = m.uni0347;
position = "{844, 0}";
},
{
name = m.uni0302_1;
position = "{1022, 1087}";
}
);
layerId = "CFE5CAE0-9991-40C5-8AD5-14528CBB0784";
shapes = (
{
closed = 1;
nodes = (
(76,0,l),
(256,1087,l),
(303,1087,l),
(261,835,l),
(245,837,l),
(270,899,o),
(303,950,o),
(346,989,cs),
(431,1067,o),
(537,1103,o),
(634,1103,cs),
(690,1103,o),
(739,1092,o),
(780,1069,cs),
(863,1023,o),
(911,937,o),
(911,817,c),
(893,822,l),
(916,881,o),
(947,932,o),
(988,974,cs),
(1069,1058,o),
(1178,1103,o),
(1294,1103,cs),
(1365,1103,o),
(1423,1087,o),
(1469,1056,cs),
(1561,993,o),
(1600,876,o),
(1573,717,cs),
(1454,0,l),
(1409,0,l),
(1528,721,ls),
(1540,794,o),
(1538,855,o),
(1523,905,cs),
(1492,1004,o),
(1412,1057,o),
(1293,1057,cs),
(1232,1057,o),
(1175,1044,o),
(1121,1017,cs),
(1012,964,o),
(931,861,o),
(907,717,cs),
(789,0,l),
(743,0,l),
(862,722,ls),
(880,830,o),
(868,913,o),
(826,971,cs),
(784,1028,o),
(720,1057,o),
(633,1057,cs),
(570,1057,o),
(510,1042,o),
(455,1013,cs),
(344,954,o),
(264,849,o),
(241,718,cs),
(122,0,l)
);
}
);
width = 1710;
}
);
leftKerningGroup = m;
rightKerningGroup = a;
unicode = 109;
}
{
glyphname = o;
layers = (
{
anchors = (
{
name = m.uni0347;
position = "{542, 0}";
},
{
name = m.uni0302_1;
position = "{722, 1087}";
},
{
name = m.uni0328_4;
position = "{1209, 542}";
}
);
layerId = "327A104B-2E28-4C21-9EEF-F371F9687223";
shapes = (
{
closed = 1;
nodes = (
(452,-22,o),
(360,-3,o),
(284,36,cs),
(132,113,o),
(48,257,o),
(48,448,cs),
(48,632,o),
(111,795,o),
(226,915,cs),
(341,1035,o),
(505,1106,o),
(704,1106,cs),
(811,1106,o),
(903,1087,o),
(979,1049,cs),
(1131,972,o),
(1215,828,o),
(1215,637,cs),
(1215,460,o),
(1155,297,o),
(1042,175,cs),
(929,53,o),
(766,-22,o),
(559,-22,cs)
);
},
{
closed = 1;
nodes = (
(663,285,o),
(721,337,o),
(759,412,cs),
(797,487,o),
(813,576,o),
(813,647,cs),
(813,682,o),
(807,710,o),
(796,733,c),
(772,777,o),
(731,801,o),
(683,801,cs),
(600,801,o),
(541,749,o),
(504,675,cs),
(467,601,o),
(450,512,o),
(450,440,cs),
(450,389,o),
(463,350,o),
(488,324,cs),
(513,298,o),
(544,285,o),
(580,285,cs)
);
}
);
width = 1262;
},
{
anchors = (
{
name = m.uni0347;
position = "{542, 0}";
},
{
name = m.uni0302_1;
position = "{722, 1087}";
},
{
name = m.uni0328_4;
position = "{1209, 542}";
}
);
layerId = "E369B2B9-8A8B-4879-8879-CDDEC6ABDA8D";
shapes = (
{
closed = 1;
nodes = (
(435,-23,o),
(351,-4,o),
(281,34,cs),
(141,110,o),
(63,252,o),
(63,437,cs),
(63,616,o),
(123,781,o),
(232,906,cs),
(341,1030,o),
(497,1106,o),
(688,1106,cs),
(786,1106,o),
(870,1087,o),
(940,1049,cs),
(1080,973,o),
(1158,831,o),
(1158,646,cs),
(1158,470,o),
(1100,304,o),
(991,179,cs),
(882,54,o),
(726,-23,o),
(533,-23,cs)
);
},
{
closed = 1;
nodes = (
(654,213,o),
(733,272,o),
(786,360,cs),
(839,447,o),
(865,556,o),
(865,651,cs),
(865,697,o),
(858,736,o),
(843,769,cs),
(813,834,o),
(755,872,o),
(674,872,cs),
(569,872,o),
(488,813,o),
(435,726,cs),
(382,638,o),
(356,531,o),
(356,432,cs),
(356,364,o),
(373,311,o),
(406,272,cs),
(439,233,o),
(485,213,o),
(546,213,cs)
);
}
);
width = 1221;
},
{
anchors = (
{
name = m.uni0347;
position = "{542, 0}";
},
{
name = m.uni0302_1;
position = "{722, 1087}";
},
{
name = m.uni0328_4;
position = "{1209, 542}";
}
);
layerId = "844D73DB-7C23-43E4-9FB2-A17A73FD39D0";
shapes = (
{
closed = 1;
nodes = (
(416,-24,o),
(340,-5,o),
(277,32,cs),
(150,107,o),
(79,245,o),
(79,425,cs),
(79,597,o),
(135,766,o),
(239,895,cs),
(342,1024,o),
(490,1106,o),
(670,1106,cs),
(759,1106,o),
(835,1087,o),
(899,1050,cs),
(1026,975,o),
(1097,836,o),
(1097,655,cs),
(1097,480,o),
(1040,313,o),
(936,185,cs),
(832,56,o),
(685,-24,o),
(505,-24,cs)
);
},
{
closed = 1;
nodes = (
(644,134,o),
(747,201,o),
(817,303,cs),
(887,405,o),
(922,534,o),
(922,655,cs),
(922,713,o),
(913,764,o),
(894,808,cs),
(857,896,o),
(781,949,o),
(665,949,cs),
(533,949,o),
(431,883,o),
(361,781,cs),
(291,679,o),
(254,549,o),
(254,424,cs),
(254,338,o),
(275,268,o),
(317,215,cs),
(358,161,o),
(422,134,o),
(509,134,cs)
);
}
);
width = 1176;
},
{
anchors = (
{
name = m.uni0347;
position = "{517, 0}";
},
{
name = m.uni0302_1;
position = "{697, 1087}";
},
{
name = m.uni0328_4;
position = "{1146, 545}";
}
);
layerId = "AAF7CECC-D58D-4734-9D16-9C2B5AF74B2F";
shapes = (
{
closed = 1;
nodes = (
(393,-20,o),
(325,-1,o),
(268,37,cs),
(153,112,o),
(88,249,o),
(88,422,cs),
(88,590,o),
(146,757,o),
(247,888,cs),
(348,1019,o),
(489,1103,o),
(653,1103,cs),
(731,1103,o),
(798,1084,o),
(855,1047,cs),
(968,972,o),
(1035,836,o),
(1035,663,cs),
(1035,495,o),
(977,327,o),
(877,196,cs),
(776,64,o),
(635,-20,o),
(471,-20,cs)
);
},
{
closed = 1;
nodes = (
(623,27,o),
(751,106,o),
(844,228,cs),
(936,350,o),
(989,507,o),
(989,662,cs),
(989,741,o),
(976,811,o),
(949,870,cs),
(895,988,o),
(792,1058,o),
(653,1058,cs),
(505,1058,o),
(377,981,o),
(283,861,cs),
(189,740,o),
(134,583,o),
(134,423,cs),
(134,304,o),
(164,208,o),
(225,136,cs),
(285,63,o),
(367,27,o),
(471,27,cs)
);
}
);
width = 1122;
}
);
leftKerningGroup = a2;
rightKerningGroup = b;
unicode = 111;
}
{
glyphname = p;
layers = (
{
anchors = (
{
name = m.uni0347;
position = "{138, -409}";
},
{
name = m.uni0302_1;
position = "{774, 1087}";
}
);
layerId = "7120DA8A-778D-4421-9957-14EBB73F7FEE";
shapes = (
{
closed = 1;
nodes = (
(-65,-418,l),
(184,1087,l),
(581,1087,l),
(553,923,l),
(558,923,l),
(581,962,o),
(609,995,o),
(641,1022,cs),
(704,1077,o),
(783,1106,o),
(876,1106,cs),
(949,1106,o),
(1014,1089,o),
(1071,1056,cs),
(1184,988,o),
(1256,855,o),
(1256,664,cs),
(1256,587,o),
(1245,509,o),
(1224,429,cs),
(1202,348,o),
(1169,274,o),
(1126,207,cs),
(1082,140,o),
(1027,85,o),
(961,44,cs),
(894,2,o),
(816,-19,o),
(727,-19,cs),
(674,-19,o),
(628,-10,o),
(589,8,cs),
(511,44,o),
(460,106,o),
(441,182,c),
(435,182,l),
(336,-418,l)
);
},
{
closed = 1;
nodes = (
(689,292,o),
(751,345,o),
(791,418,cs),
(831,490,o),
(849,577,o),
(849,645,cs),
(849,693,o),
(839,730,o),
(819,757,cs),
(799,784,o),
(769,797,o),
(728,797,cs),
(648,797,o),
(584,751,o),
(540,682,cs),
(496,613,o),
(473,529,o),
(473,453,cs),
(473,403,o),
(485,364,o),
(508,335,cs),
(531,306,o),
(563,292,o),
(604,292,cs)
);
}
);
width = 1301;
},
{
anchors = (
{
name = m.uni0347;
position = "{138, -409}";
},
{
name = m.uni0302_1;
position = "{774, 1087}";
}
);
layerId = "496E469D-EE15-4086-9FDA-F7D1A66ADFFB";
shapes = (
{
closed = 1;
nodes = (
(-42,-418,l),
(207,1087,l),
(495,1087,l),
(468,922,l),
(473,922,l),
(496,957,o),
(523,989,o),
(556,1017,cs),
(620,1072,o),
(704,1105,o),
(808,1105,cs),
(885,1105,o),
(953,1088,o),
(1010,1053,cs),
(1125,984,o),
(1195,850,o),
(1195,665,cs),
(1195,585,o),
(1183,504,o),
(1160,423,cs),
(1136,342,o),
(1101,268,o),
(1056,201,cs),
(1010,134,o),
(953,81,o),
(886,41,cs),
(818,0,o),
(740,-20,o),
(652,-20,cs),
(595,-20,o),
(547,-11,o),
(508,8,cs),
(428,45,o),
(378,107,o),
(357,178,c),
(349,178,l),
(251,-418,l)
);
},
{
closed = 1;
nodes = (
(684,217,o),
(765,276,o),
(819,364,cs),
(873,451,o),
(898,558,o),
(898,654,cs),
(898,721,o),
(883,774,o),
(852,812,cs),
(821,850,o),
(776,869,o),
(716,869,cs),
(612,869,o),
(529,814,o),
(474,729,cs),
(418,644,o),
(389,538,o),
(389,439,cs),
(389,370,o),
(405,316,o),
(438,277,c),
(470,237,o),
(516,217,o),
(577,217,cs)
);
}
);
width = 1255;
},
{
anchors = (
{
name = m.uni0347;
position = "{138, -409}";
},
{
name = m.uni0302_1;
position = "{774, 1087}";
}
);
layerId = "C6CF8F4D-8996-4F76-ABC0-77690A781072";
shapes = (
{
closed = 1;
nodes = (
(-17,-418,l),
(232,1087,l),
(402,1087,l),
(375,921,l),
(380,921,l),
(402,953,o),
(430,983,o),
(463,1011,cs),
(530,1066,o),
(619,1104,o),
(734,1104,cs),
(815,1104,o),
(885,1086,o),
(944,1051,cs),
(1061,979,o),
(1128,846,o),
(1128,666,cs),
(1128,582,o),
(1115,499,o),
(1090,417,cs),
(1065,335,o),
(1028,261,o),
(980,195,cs),
(932,129,o),
(874,76,o),
(805,37,cs),
(736,-2,o),
(657,-22,o),
(570,-22,cs),
(510,-22,o),
(460,-12,o),
(420,8,cs),
(340,47,o),
(292,110,o),
(265,173,c),
(256,173,l),
(158,-418,l)
);
},
{
closed = 1;
nodes = (
(678,135,o),
(779,202,o),
(848,305,cs),
(917,408,o),
(952,538,o),
(952,663,cs),
(952,752,o),
(931,821,o),
(889,872,cs),
(846,923,o),
(785,948,o),
(704,948,cs),
(572,948,o),
(470,882,o),
(402,780,cs),
(333,678,o),
(298,548,o),
(298,424,cs),
(298,335,o),
(319,265,o),
(362,213,cs),
(405,161,o),
(466,135,o),
(547,135,cs)
);
}
);
width = 1206;
},
{
anchors = (
{
name = m.uni0347;
position = "{99, -409}";
},
{
name = m.uni0302_1;
position = "{727, 1087}";
}
);
layerId = "CFE5CAE0-9991-40C5-8AD5-14528CBB0784";
shapes = (
{
closed = 1;
nodes = (
(7,-418,l),
(256,1087,l),
(302,1087,l),
(255,801,l),
(258,801,l),
(284,861,o),
(320,914,o),
(365,959,cs),
(456,1050,o),
(575,1103,o),
(699,1103,cs),
(775,1103,o),
(841,1085,o),
(896,1049,cs),
(1006,977,o),
(1068,845,o),
(1068,672,cs),
(1068,589,o),
(1055,507,o),
(1030,425,cs),
(1004,343,o),
(967,269,o),
(919,202,cs),
(871,135,o),
(813,81,o),
(746,41,cs),
(679,0,o),
(603,-20,o),
(519,-20,cs),
(455,-20,o),
(399,-7,o),
(350,19,cs),
(252,70,o),
(189,164,o),
(173,281,c),
(169,281,l),
(53,-418,l)
);
},
{
closed = 1;
nodes = (
(673,26,o),
(797,108,o),
(886,233,cs),
(974,357,o),
(1022,516,o),
(1022,671,cs),
(1022,788,o),
(993,882,o),
(935,953,cs),
(877,1023,o),
(798,1058,o),
(698,1058,cs),
(543,1058,o),
(420,976,o),
(333,850,cs),
(246,724,o),
(200,564,o),
(200,409,cs),
(200,294,o),
(228,201,o),
(285,131,cs),
(341,61,o),
(419,26,o),
(520,26,cs)
);
}
);
width = 1156;
}
);
leftKerningGroup = m;
rightKerningGroup = b;
unicode = 112;
}
{
glyphname = q;
layers = (
{
anchors = (
{
name = m.uni0347;
position = "{847, -409}";
},
{
name = m.uni0302_1;
position = "{741, 1087}";
}
);
layerId = "327A104B-2E28-4C21-9EEF-F371F9687223";
shapes = (
{
closed = 1;
nodes = (
(1048,-418,l),
(646,-418,l),
(744,161,l),
(736,161,l),
(714,122,o),
(688,89,o),
(658,63,cs),
(598,10,o),
(521,-19,o),
(430,-19,cs),
(353,-19,o),
(285,-2,o),
(228,33,cs),
(113,101,o),
(45,233,o),
(45,421,cs),
(45,588,o),
(93,757,o),
(183,889,cs),
(273,1021,o),
(403,1106,o),
(570,1106,cs),
(625,1106,o),
(672,1097,o),
(711,1080,cs),
(789,1045,o),
(840,982,o),
(864,906,c),
(870,906,l),
(900,1087,l),
(1297,1087,l)
);
},
{
closed = 1;
nodes = (
(654,292,o),
(717,339,o),
(761,408,cs),
(805,477,o),
(829,561,o),
(829,637,cs),
(829,688,o),
(817,727,o),
(794,755,cs),
(771,783,o),
(739,797,o),
(698,797,cs),
(617,797,o),
(555,748,o),
(514,677,cs),
(473,606,o),
(452,520,o),
(452,444,cs),
(452,395,o),
(462,358,o),
(483,332,c),
(503,305,o),
(533,292,o),
(574,292,cs)
);
}
);
width = 1301;
},
{
anchors = (
{
name = m.uni0347;
position = "{847, -409}";
},
{
name = m.uni0302_1;
position = "{741, 1087}";
}
);
layerId = "E369B2B9-8A8B-4879-8879-CDDEC6ABDA8D";
shapes = (
{
closed = 1;
nodes = (
(979,-418,l),
(686,-418,l),
(783,162,l),
(775,162,l),
(752,126,o),
(725,94,o),
(694,67,cs),
(632,12,o),
(550,-20,o),
(450,-20,cs),
(371,-20,o),
(302,-3,o),
(244,33,cs),
(128,103,o),
(61,235,o),
(61,419,cs),
(61,588,o),
(111,757,o),
(204,889,cs),
(297,1021,o),
(431,1105,o),
(602,1105,cs),
(659,1105,o),
(708,1096,o),
(748,1078,cs),
(828,1042,o),
(878,978,o),
(905,909,c),
(911,909,l),
(940,1087,l),
(1228,1087,l)
);
},
{
closed = 1;
nodes = (
(644,217,o),
(725,273,o),
(781,358,cs),
(837,443,o),
(867,549,o),
(867,649,cs),
(867,718,o),
(851,772,o),
(819,811,cs),
(786,850,o),
(740,869,o),
(679,869,cs),
(574,869,o),
(494,811,o),
(440,726,cs),
(386,641,o),
(357,534,o),
(357,434,cs),
(357,366,o),
(373,313,o),
(404,275,cs),
(435,236,o),
(480,217,o),
(539,217,cs)
);
}
);
width = 1255;
},
{
anchors = (
{
name = m.uni0347;
position = "{847, -409}";
},
{
name = m.uni0302_1;
position = "{741, 1087}";
}
);
layerId = "844D73DB-7C23-43E4-9FB2-A17A73FD39D0";
shapes = (
{
closed = 1;
nodes = (
(905,-418,l),
(729,-418,l),
(826,163,l),
(817,163,l),
(793,130,o),
(765,100,o),
(733,72,cs),
(668,16,o),
(583,-22,o),
(471,-22,cs),
(390,-22,o),
(320,-4,o),
(261,32,cs),
(144,104,o),
(78,238,o),
(78,417,cs),
(78,588,o),
(130,757,o),
(227,889,cs),
(323,1020,o),
(463,1104,o),
(636,1104,cs),
(697,1104,o),
(748,1095,o),
(789,1076,cs),
(871,1038,o),
(921,973,o),
(949,912,c),
(955,912,l),
(984,1087,l),
(1154,1087,l)
);
},
{
closed = 1;
nodes = (
(633,135,o),
(734,201,o),
(803,304,cs),
(872,407,o),
(909,537,o),
(909,662,cs),
(909,750,o),
(888,820,o),
(845,871,cs),
(802,922,o),
(740,948,o),
(658,948,cs),
(527,948,o),
(427,881,o),
(359,780,cs),
(290,679,o),
(254,550,o),
(254,423,cs),
(254,334,o),
(275,263,o),
(318,212,cs),
(361,161,o),
(422,135,o),
(502,135,cs)
);
}
);
width = 1206;
},
{
anchors = (
{
name = m.uni0347;
position = "{836, -409}";
},
{
name = m.uni0302_1;
position = "{716, 1087}";
}
);
layerId = "AAF7CECC-D58D-4734-9D16-9C2B5AF74B2F";
shapes = (
{
closed = 1;
nodes = (
(830,-418,l),
(784,-418,l),
(900,280,l),
(896,280,l),
(869,221,o),
(833,169,o),
(788,124,cs),
(699,34,o),
(582,-20,o),
(457,-20,cs),
(381,-20,o),
(315,-2,o),
(260,34,cs),
(149,105,o),
(87,238,o),
(87,411,cs),
(87,579,o),
(141,750,o),
(238,883,cs),
(334,1016,o),
(471,1103,o),
(636,1103,cs),
(700,1103,o),
(757,1090,o),
(806,1065,cs),
(905,1014,o),
(969,919,o),
(982,802,c),
(986,802,l),
(1034,1087,l),
(1079,1087,l)
);
},
{
closed = 1;
nodes = (
(613,26,o),
(738,109,o),
(824,236,cs),
(910,363,o),
(956,523,o),
(956,676,cs),
(956,791,o),
(928,884,o),
(872,954,cs),
(816,1023,o),
(738,1058,o),
(638,1058,cs),
(486,1058,o),
(360,976,o),
(271,852,cs),
(182,727,o),
(133,568,o),
(133,412,cs),
(133,295,o),
(162,202,o),
(220,132,cs),
(277,61,o),
(356,26,o),
(457,26,cs)
);
}
);
width = 1155;
}
);
leftKerningGroup = a2;
rightKerningGroup = g;
unicode = 113;
}
{
glyphname = r;
layers = (
{
anchors = (
{
name = m.uniF6C3;
position = "{206, 0}";
},
{
name = m.uni030F_1;
position = "{592, 1288}";
}
);
layerId = "327A104B-2E28-4C21-9EEF-F371F9687223";
shapes = (
{
closed = 1;
nodes = (
(4,0,l),
(186,1087,l),
(572,1087,l),
(538,877,l),
(548,877,l),
(583,954,o),
(625,1011,o),
(674,1047,cs),
(723,1083,o),
(777,1101,o),
(836,1101,cs),
(896,1101,o),
(946,1088,o),
(986,1061,c),
(820,737,l),
(789,752,o),
(755,765,o),
(712,765,cs),
(681,765,o),
(650,757,o),
(620,740,cs),
(559,707,o),
(511,643,o),
(494,559,c),
(402,0,l)
);
}
);
width = 900;
},
{
anchors = (
{
name = m.uniF6C3;
position = "{213, 0}";
},
{
name = m.uni030F_1;
position = "{599, 1288}";
}
);
layerId = "E369B2B9-8A8B-4879-8879-CDDEC6ABDA8D";
shapes = (
{
closed = 1;
nodes = (
(27,0,l),
(209,1087,l),
(488,1087,l),
(456,898,l),
(467,898,l),
(499,964,o),
(542,1015,o),
(596,1050,cs),
(649,1085,o),
(708,1102,o),
(771,1102,cs),
(831,1102,o),
(878,1089,o),
(912,1062,c),
(786,826,l),
(762,839,o),
(729,849,o),
(685,849,cs),
(644,849,o),
(604,839,o),
(566,820,cs),
(490,780,o),
(434,709,o),
(417,617,c),
(315,0,l)
);
}
);
width = 831;
},
{
anchors = (
{
name = m.uniF6C3;
position = "{220, 0}";
},
{
name = m.uni030F_1;
position = "{606, 1288}";
}
);
layerId = "844D73DB-7C23-43E4-9FB2-A17A73FD39D0";
shapes = (
{
closed = 1;
nodes = (
(52,0,l),
(233,1086,l),
(397,1086,l),
(367,920,l),
(379,920,l),
(408,975,o),
(452,1019,o),
(511,1053,cs),
(570,1086,o),
(632,1103,o),
(699,1104,c),
(759,1103,o),
(803,1090,o),
(831,1064,c),
(749,922,l),
(732,934,o),
(700,939,o),
(655,940,c),
(602,940,o),
(553,929,o),
(508,906,cs),
(416,861,o),
(349,780,o),
(333,680,cs),
(220,0,l)
);
}
);
width = 756;
},
{
anchors = (
{
name = m.uniF6C3;
position = "{184, 0}";
},
{
name = m.uni030F_1;
position = "{616, 1288}";
}
);
layerId = "AAF7CECC-D58D-4734-9D16-9C2B5AF74B2F";
shapes = (
{
closed = 1;
nodes = (
(76,0,l),
(258,1087,l),
(304,1087,l),
(274,911,l),
(280,911,l),
(315,969,o),
(366,1015,o),
(431,1050,cs),
(496,1084,o),
(567,1101,o),
(642,1101,cs),
(689,1101,o),
(729,1094,o),
(764,1081,c),
(740,1039,l),
(713,1050,o),
(678,1055,o),
(634,1055,cs),
(569,1055,o),
(510,1041,o),
(455,1013,cs),
(345,956,o),
(265,853,o),
(244,725,cs),
(122,0,l)
);
}
);
width = 694;
}
);
leftKerningGroup = m;
rightKerningGroup = r;
unicode = (114,57439);
}
{
glyphname = s;
layers = (
{
anchors = (
{
name = m.uni0347;
position = "{498, 0}";
},
{
name = m.uni0302_1;
position = "{676, 1087}";
},
{
name = m.uni0327_3;
position = "{500, 0}";
}
);
layerId = "7120DA8A-778D-4421-9957-14EBB73F7FEE";
shapes = (
{
closed = 1;
nodes = (
(415,-23,o),
(326,-8,o),
(251,22,cs),
(99,82,o),
(13,195,o),
(12,340,cs),
(12,343,o),
(12,346,o),
(12,347,c),
(393,361,l),
(398,282,o),
(437,246,o),
(536,246,cs),
(561,246,o),
(584,249,o),
(607,255,cs),
(652,266,o),
(686,290,o),
(686,327,cs),
(686,360,o),
(658,380,o),
(587,392,cs),
(395,426,ls),
(202,461,o),
(99,564,o),
(99,713,cs),
(99,796,o),
(124,866,o),
(173,925,cs),
(271,1042,o),
(444,1105,o),
(652,1105,cs),
(802,1105,o),
(919,1076,o),
(1004,1017,cs),
(1089,958,o),
(1132,879,o),
(1133,780,cs),
(1133,772,o),
(1132,760,o),
(1131,751,c),
(772,739,l),
(772,774,o),
(762,799,o),
(741,815,cs),
(720,831,o),
(689,839,o),
(649,839,cs),
(626,839,o),
(604,836,o),
(581,830,cs),
(536,818,o),
(504,793,o),
(504,754,cs),
(504,726,o),
(522,704,o),
(581,693,cs),
(802,654,ls),
(1001,621,o),
(1100,534,o),
(1100,391,cs),
(1100,264,o),
(1035,161,o),
(927,89,cs),
(819,17,o),
(675,-23,o),
(516,-23,cs)
);
}
);
width = 1174;
},
{
anchors = (
{
name = m.uni0347;
position = "{498, 0}";
},
{
name = m.uni0302_1;
position = "{676, 1087}";
},
{
name = m.uni0327_3;
position = "{500, 0}";
}
);
layerId = "496E469D-EE15-4086-9FDA-F7D1A66ADFFB";
shapes = (
{
closed = 1;
nodes = (
(388,-23,o),
(311,-10,o),
(245,16,cs),
(112,68,o),
(35,167,o),
(31,303,c),
(31,310,o),
(31,316,o),
(31,323,c),
(311,337,l),
(314,237,o),
(371,189,o),
(487,189,cs),
(524,189,o),
(559,195,o),
(591,206,cs),
(655,228,o),
(700,267,o),
(703,322,cs),
(706,371,o),
(668,401,o),
(587,418,cs),
(405,456,ls),
(217,495,o),
(122,595,o),
(129,743,cs),
(132,818,o),
(156,882,o),
(201,937,cs),
(291,1045,o),
(447,1105,o),
(628,1105,cs),
(757,1105,o),
(858,1079,o),
(931,1026,cs),
(1004,973,o),
(1043,901,o),
(1048,811,c),
(1048,800,o),
(1048,786,o),
(1047,774,c),
(782,761,l),
(782,803,o),
(769,836,o),
(743,860,cs),
(716,884,o),
(677,896,o),
(625,896,cs),
(590,896,o),
(558,890,o),
(528,879,cs),
(467,856,o),
(426,815,o),
(423,763,cs),
(420,715,o),
(453,684,o),
(534,667,cs),
(727,627,ls),
(918,588,o),
(1009,497,o),
(1004,356,cs),
(1000,240,o),
(940,146,o),
(843,80,cs),
(746,14,o),
(617,-23,o),
(476,-23,cs)
);
}
);
width = 1103;
},
{
anchors = (
{
name = m.uni0347;
position = "{498, 0}";
},
{
name = m.uni0302_1;
position = "{676, 1087}";
},
{
name = m.uni0327_3;
position = "{500, 0}";
}
);
layerId = "C6CF8F4D-8996-4F76-ABC0-77690A781072";
shapes = (
{
closed = 1;
nodes = (
(359,-24,o),
(294,-13,o),
(238,9,cs),
(126,52,o),
(58,137,o),
(51,262,c),
(51,274,o),
(51,285,o),
(51,297,c),
(222,311,l),
(223,187,o),
(298,128,o),
(433,128,cs),
(484,128,o),
(531,136,o),
(574,153,cs),
(658,185,o),
(716,244,o),
(721,316,cs),
(726,383,o),
(680,423,o),
(587,446,cs),
(416,488,ls),
(235,532,o),
(148,628,o),
(161,775,cs),
(166,841,o),
(190,899,o),
(231,949,cs),
(313,1049,o),
(449,1106,o),
(602,1106,cs),
(707,1106,o),
(790,1082,o),
(851,1035,cs),
(911,988,o),
(946,924,o),
(955,845,c),
(956,830,o),
(958,815,o),
(957,799,c),
(792,784,l),
(792,834,o),
(776,875,o),
(745,908,cs),
(713,941,o),
(664,957,o),
(599,957,cs),
(552,957,o),
(509,949,o),
(470,932,cs),
(392,899,o),
(341,840,o),
(336,772,c),
(329,703,o),
(376,665,o),
(483,638,cs),
(646,598,ls),
(829,554,o),
(912,459,o),
(899,318,cs),
(891,214,o),
(837,129,o),
(752,69,cs),
(667,9,o),
(556,-24,o),
(432,-24,cs)
);
}
);
width = 1027;
},
{
anchors = (
{
name = m.uni0347;
position = "{472, 0}";
},
{
name = m.uni0302_1;
position = "{652, 1087}";
},
{
name = m.uni0327_3;
position = "{472, 0}";
}
);
layerId = "CFE5CAE0-9991-40C5-8AD5-14528CBB0784";
shapes = (
{
closed = 1;
nodes = (
(324,-19,o),
(266,-8,o),
(218,15,cs),
(122,59,o),
(69,143,o),
(65,256,c),
(65,269,o),
(66,272,o),
(66,288,c),
(111,290,l),
(103,118,o),
(209,27,o),
(393,27,cs),
(461,27,o),
(524,40,o),
(581,66,cs),
(696,117,o),
(771,211,o),
(771,327,cs),
(771,420,o),
(705,469,o),
(581,501,cs),
(410,544,ls),
(259,583,o),
(179,654,o),
(179,767,cs),
(179,833,o),
(197,891,o),
(234,942,cs),
(307,1042,o),
(435,1102,o),
(582,1102,cs),
(675,1102,o),
(747,1080,o),
(799,1035,cs),
(851,990,o),
(881,924,o),
(888,837,c),
(888,828,o),
(888,823,o),
(887,812,c),
(842,807,l),
(841,890,o),
(819,952,o),
(776,994,cs),
(733,1036,o),
(668,1057,o),
(582,1057,cs),
(518,1057,o),
(459,1045,o),
(405,1021,cs),
(296,972,o),
(226,882,o),
(226,769,cs),
(226,677,o),
(293,620,o),
(422,587,cs),
(596,544,ls),
(739,509,o),
(817,442,o),
(817,330,cs),
(817,227,o),
(769,141,o),
(690,79,cs),
(611,17,o),
(507,-19,o),
(392,-19,cs)
);
}
);
width = 964;
}
);
leftKerningGroup = s2;
rightKerningGroup = s;
unicode = 115;
}
{
glyphname = t;
layers = (
{
anchors = (
{
name = m.uni0347;
position = "{382, 0}";
},
{
name = m.uni0302_1;
position = "{518, 1364}";
},
{
name = m.uni0327_3;
position = "{429, 0}";
}
);
layerId = "7120DA8A-778D-4421-9957-14EBB73F7FEE";
shapes = (
{
closed = 1;
nodes = (
(877,1087,l),
(827,789,l),
(61,789,l),
(111,1087,l)
);
},
{
closed = 1;
nodes = (
(317,1364,l),
(718,1364,l),
(555,373,ls),
(546,318,o),
(563,297,o),
(626,297,cs),
(641,297,o),
(662,298,o),
(687,299,cs),
(712,300,o),
(730,302,o),
(739,303,c),
(714,8,l),
(649,-4,o),
(560,-8,o),
(479,-8,cs),
(347,-8,o),
(254,19,o),
(199,73,cs),
(144,127,o),
(126,209,o),
(145,319,cs)
);
}
);
width = 839;
},
{
anchors = (
{
name = m.uni0347;
position = "{382, 0}";
},
{
name = m.uni0302_1;
position = "{518, 1364}";
},
{
name = m.uni0327_3;
position = "{429, 0}";
}
);
layerId = "496E469D-EE15-4086-9FDA-F7D1A66ADFFB";
shapes = (
{
closed = 1;
nodes = (
(784,1087,l),
(746,860,l),
(72,860,l),
(110,1087,l)
);
},
{
closed = 1;
nodes = (
(324,1364,l),
(617,1364,l),
(446,325,ls),
(433,253,o),
(456,225,o),
(532,225,cs),
(546,225,o),
(564,226,o),
(586,227,cs),
(607,228,o),
(624,230,o),
(637,231,c),
(620,6,l),
(569,-3,o),
(501,-8,o),
(438,-8,cs),
(325,-8,o),
(244,17,o),
(195,67,cs),
(146,117,o),
(130,191,o),
(147,289,cs)
);
}
);
width = 751;
},
{
anchors = (
{
name = m.uni0347;
position = "{382, 0}";
},
{
name = m.uni0302_1;
position = "{518, 1364}";
},
{
name = m.uni0327_3;
position = "{429, 0}";
}
);
layerId = "C6CF8F4D-8996-4F76-ABC0-77690A781072";
shapes = (
{
closed = 1;
nodes = (
(683,1087,l),
(658,937,l),
(83,937,l),
(108,1087,l)
);
},
{
closed = 1;
nodes = (
(332,1364,l),
(507,1364,l),
(327,273,ls),
(311,181,o),
(341,146,o),
(430,146,cs),
(443,146,o),
(459,147,o),
(477,148,cs),
(494,149,o),
(511,151,o),
(526,152,c),
(519,3,l),
(484,-2,o),
(437,-7,o),
(394,-7,cs),
(300,-7,o),
(232,16,o),
(191,62,cs),
(149,107,o),
(135,172,o),
(149,257,cs)
);
}
);
width = 655;
},
{
anchors = (
{
name = m.uni0347;
position = "{310, 0}";
},
{
name = m.uni0302_1;
position = "{428, 1364}";
},
{
name = m.uni0327_3;
position = "{319, 0}";
}
);
layerId = "CFE5CAE0-9991-40C5-8AD5-14528CBB0784";
shapes = (
{
closed = 1;
nodes = (
(538,1087,l),
(530,1041,l),
(88,1041,l),
(96,1087,l)
);
},
{
closed = 1;
nodes = (
(306,1364,l),
(352,1364,l),
(161,207,ls),
(141,83,o),
(189,28,o),
(305,43,cs),
(314,44,o),
(324,45,o),
(334,46,cs),
(343,47,o),
(353,47,o),
(362,48,c),
(359,2,l),
(340,2,o),
(321,-1,o),
(301,-2,c),
(230,-11,o),
(179,4,o),
(146,43,cs),
(113,82,o),
(103,136,o),
(115,207,cs)
);
}
);
width = 485;
}
);
leftKerningGroup = t2;
rightKerningGroup = t;
unicode = 116;
}
{
glyphname = u;
layers = (
{
anchors = (
{
name = m.uni0347;
position = "{580, 0}";
},
{
name = m.uni0302_1;
position = "{740, 1087}";
},
{
name = m.uni0328_4;
position = "{1114, 0}";
}
);
layerId = "327A104B-2E28-4C21-9EEF-F371F9687223";
shapes = (
{
closed = 1;
nodes = (
(296,-19,o),
(232,-2,o),
(182,34,cs),
(82,104,o),
(43,233,o),
(71,398,cs),
(185,1087,l),
(586,1087,l),
(485,486,l),
(477,431,o),
(484,389,o),
(506,359,c),
(527,328,o),
(562,313,o),
(611,313,cs),
(644,313,o),
(673,320,o),
(698,334,cs),
(748,362,o),
(782,417,o),
(795,493,cs),
(894,1087,l),
(1294,1087,l),
(1114,0,l),
(728,0,l),
(772,289,l),
(804,289,l),
(761,200,o),
(705,127,o),
(636,69,cs),
(567,10,o),
(480,-19,o),
(375,-19,cs)
);
}
);
width = 1299;
},
{
anchors = (
{
name = m.uni0347;
position = "{580, 0}";
},
{
name = m.uni0302_1;
position = "{740, 1087}";
},
{
name = m.uni0328_4;
position = "{1114, 0}";
}
);
layerId = "E369B2B9-8A8B-4879-8879-CDDEC6ABDA8D";
shapes = (
{
closed = 1;
nodes = (
(328,-18,o),
(264,-2,o),
(213,32,cs),
(109,98,o),
(66,225,o),
(95,401,cs),
(208,1087,l),
(501,1087,l),
(395,453,ls),
(384,382,o),
(393,328,o),
(422,289,cs),
(451,250,o),
(496,231,o),
(559,231,cs),
(601,231,o),
(640,240,o),
(675,258,cs),
(745,293,o),
(796,365,o),
(813,469,cs),
(916,1087,l),
(1208,1087,l),
(1028,0,l),
(745,0,l),
(789,277,l),
(823,277,l),
(776,183,o),
(718,110,o),
(649,59,cs),
(579,8,o),
(497,-18,o),
(403,-18,cs)
);
}
);
width = 1236;
},
{
anchors = (
{
name = m.uni0347;
position = "{580, 0}";
},
{
name = m.uni0302_1;
position = "{740, 1087}";
},
{
name = m.uni0328_4;
position = "{1114, 0}";
}
);
layerId = "844D73DB-7C23-43E4-9FB2-A17A73FD39D0";
shapes = (
{
closed = 1;
nodes = (
(361,-17,o),
(299,-2,o),
(246,30,cs),
(140,92,o),
(89,216,o),
(120,404,cs),
(233,1087,l),
(408,1087,l),
(297,418,ls),
(283,329,o),
(294,261,o),
(331,214,cs),
(367,166,o),
(424,142,o),
(503,142,cs),
(555,142,o),
(604,153,o),
(650,175,cs),
(742,219,o),
(810,308,o),
(833,443,cs),
(939,1087,l),
(1114,1087,l),
(934,0,l),
(764,0,l),
(808,264,l),
(844,264,l),
(793,164,o),
(733,92,o),
(663,49,cs),
(593,5,o),
(517,-17,o),
(434,-17,cs)
);
}
);
width = 1167;
},
{
anchors = (
{
name = m.uni0347;
position = "{559, 0}";
},
{
name = m.uni0302_1;
position = "{724, 1087}";
},
{
name = m.uni0328_4;
position = "{1057, 0}";
}
);
layerId = "AAF7CECC-D58D-4734-9D16-9C2B5AF74B2F";
shapes = (
{
closed = 1;
nodes = (
(396,-16,o),
(331,0,o),
(276,33,cs),
(167,98,o),
(113,216,o),
(138,368,cs),
(257,1087,l),
(303,1087,l),
(184,369,ls),
(167,267,o),
(186,185,o),
(240,123,cs),
(293,61,o),
(371,30,o),
(472,30,cs),
(541,30,o),
(606,45,o),
(666,74,cs),
(785,133,o),
(871,239,o),
(892,368,cs),
(1011,1087,l),
(1057,1087,l),
(877,0,l),
(831,0,l),
(871,241,l),
(883,241,l),
(844,155,o),
(788,91,o),
(713,48,cs),
(638,5,o),
(557,-16,o),
(472,-16,cs)
);
}
);
width = 1134;
}
);
leftKerningGroup = u2;
rightKerningGroup = u;
unicode = 117;
}
{
glyphname = v;
layers = (
{
anchors = (
{
name = m.uni0347;
position = "{536, 0}";
},
{
name = m.uni0302_1;
position = "{711, 1087}";
}
);
layerId = "327A104B-2E28-4C21-9EEF-F371F9687223";
shapes = (
{
closed = 1;
nodes = (
(303,0,l),
(94,1087,l),
(497,1087,l),
(555,609,ls),
(574,461,o),
(582,313,o),
(590,149,c),
(511,149,l),
(572,313,o),
(628,461,o),
(695,609,cs),
(908,1087,l),
(1338,1087,l),
(768,0,l)
);
}
);
width = 1252;
},
{
anchors = (
{
name = m.uni0347;
position = "{536, 0}";
},
{
name = m.uni0302_1;
position = "{711, 1087}";
}
);
layerId = "E369B2B9-8A8B-4879-8879-CDDEC6ABDA8D";
shapes = (
{
closed = 1;
nodes = (
(335,0,l),
(112,1087,l),
(409,1087,l),
(500,534,ls),
(521,399,o),
(533,265,o),
(545,125,c),
(476,125,l),
(536,265,o),
(591,399,o),
(656,534,cs),
(928,1087,l),
(1247,1087,l),
(663,0,l)
);
}
);
width = 1179;
},
{
anchors = (
{
name = m.uni0347;
position = "{536, 0}";
},
{
name = m.uni0302_1;
position = "{711, 1087}";
}
);
layerId = "844D73DB-7C23-43E4-9FB2-A17A73FD39D0";
shapes = (
{
closed = 1;
nodes = (
(370,0,l),
(132,1087,l),
(313,1087,l),
(441,452,ls),
(465,332,o),
(479,213,o),
(496,98,c),
(439,98,l),
(495,213,o),
(549,332,o),
(613,452,cs),
(950,1087,l),
(1148,1087,l),
(550,0,l)
);
}
);
width = 1100;
},
{
anchors = (
{
name = m.uni0347;
position = "{515, 0}";
},
{
name = m.uni0302_1;
position = "{690, 1087}";
}
);
layerId = "AAF7CECC-D58D-4734-9D16-9C2B5AF74B2F";
shapes = (
{
closed = 1;
nodes = (
(410,0,l),
(158,1087,l),
(204,1087,l),
(378,337,ls),
(402,234,o),
(424,132,o),
(448,31,c),
(434,31,l),
(494,132,o),
(547,236,o),
(606,337,cs),
(1028,1087,l),
(1079,1087,l),
(467,0,l)
);
}
);
width = 1057;
}
);
leftKerningGroup = v2;
rightKerningGroup = v;
unicode = 118;
}
{
glyphname = w;
layers = (
{
anchors = (
{
name = m.uni0347;
position = "{802, 0}";
},
{
name = m.uni0302_1;
position = "{986, 1087}";
}
);
layerId = "7120DA8A-778D-4421-9957-14EBB73F7FEE";
shapes = (
{
closed = 1;
nodes = (
(231,0,l),
(87,1087,l),
(508,1087,l),
(519,768,ls),
(526,609,o),
(532,433,o),
(531,244,c),
(486,244,l),
(553,433,o),
(623,609,o),
(686,768,cs),
(813,1087,l),
(1161,1087,l),
(1180,768,ls),
(1191,609,o),
(1205,433,o),
(1208,244,c),
(1165,244,l),
(1224,432,o),
(1284,609,o),
(1344,768,cs),
(1460,1087,l),
(1887,1087,l),
(1383,0,l),
(970,0,l),
(924,368,ls),
(920,404,o),
(917,444,o),
(914,489,cs),
(909,577,o),
(905,673,o),
(898,749,c),
(962,749,l),
(946,710,o),
(930,668,o),
(913,623,cs),
(879,531,o),
(844,438,o),
(811,369,cs),
(642,0,l)
);
}
);
width = 1794;
},
{
anchors = (
{
name = m.uni0347;
position = "{802, 0}";
},
{
name = m.uni0302_1;
position = "{986, 1087}";
}
);
layerId = "496E469D-EE15-4086-9FDA-F7D1A66ADFFB";
shapes = (
{
closed = 1;
nodes = (
(261,0,l),
(112,1087,l),
(418,1087,l),
(450,693,ls),
(462,544,o),
(472,376,o),
(477,192,c),
(440,192,l),
(507,373,o),
(575,541,o),
(639,693,cs),
(807,1087,l),
(1075,1087,l),
(1110,693,ls),
(1123,544,o),
(1137,376,o),
(1144,192,c),
(1107,192,l),
(1171,373,o),
(1235,541,o),
(1296,693,cs),
(1460,1087,l),
(1772,1087,l),
(1264,0,l),
(963,0,l),
(911,428,ls),
(906,470,o),
(902,515,o),
(898,562,cs),
(890,657,o),
(884,759,o),
(876,850,c),
(929,850,l),
(910,804,o),
(891,756,o),
(872,707,cs),
(832,608,o),
(794,510,o),
(755,429,c),
(559,0,l)
);
}
);
width = 1705;
},
{
anchors = (
{
name = m.uni0347;
position = "{802, 0}";
},
{
name = m.uni0302_1;
position = "{986, 1087}";
}
);
layerId = "C6CF8F4D-8996-4F76-ABC0-77690A781072";
shapes = (
{
closed = 1;
nodes = (
(294,0,l),
(140,1087,l),
(321,1087,l),
(376,611,ls),
(392,474,o),
(406,315,o),
(418,135,c),
(390,135,l),
(458,310,o),
(524,468,o),
(588,611,cs),
(801,1087,l),
(981,1087,l),
(1034,611,ls),
(1050,474,o),
(1063,315,o),
(1074,135,c),
(1044,135,l),
(1113,310,o),
(1180,468,o),
(1245,611,cs),
(1460,1087,l),
(1648,1087,l),
(1135,0,l),
(956,0,l),
(896,493,ls),
(891,541,o),
(886,591,o),
(881,642,cs),
(871,744,o),
(861,852,o),
(852,960,c),
(894,960,l),
(872,906,o),
(850,852,o),
(828,799,cs),
(783,692,o),
(739,589,o),
(695,493,cs),
(470,0,l)
);
}
);
width = 1608;
},
{
anchors = (
{
name = m.uni0347;
position = "{782, 0}";
},
{
name = m.uni0302_1;
position = "{966, 1087}";
}
);
layerId = "CFE5CAE0-9991-40C5-8AD5-14528CBB0784";
shapes = (
{
closed = 1;
nodes = (
(290,0,l),
(152,1087,l),
(200,1087,l),
(300,288,ls),
(311,199,o),
(320,112,o),
(331,20,c),
(317,20,l),
(361,112,o),
(402,199,o),
(447,288,cs),
(841,1087,l),
(902,1087,l),
(1031,288,ls),
(1046,199,o),
(1060,112,o),
(1073,20,c),
(1060,20,l),
(1100,111,o),
(1139,199,o),
(1180,288,cs),
(1545,1087,l),
(1593,1087,l),
(1096,0,l),
(1032,0,l),
(892,864,l),
(889,888,o),
(885,911,o),
(882,934,c),
(874,978,o),
(868,1023,o),
(860,1070,c),
(879,1070,l),
(868,1047,o),
(857,1024,o),
(846,1001,cs),
(825,956,o),
(803,910,o),
(780,865,cs),
(353,0,l)
);
}
);
width = 1565;
}
);
leftKerningGroup = w2;
rightKerningGroup = w;
unicode = 119;
}
{
glyphname = x;
layers = (
{
anchors = (
{
name = m.uni0347;
position = "{510, 0}";
},
{
name = m.uni0302_1;
position = "{690, 1087}";
}
);
layerId = "7120DA8A-778D-4421-9957-14EBB73F7FEE";
shapes = (
{
closed = 1;
nodes = (
(-80,0,l),
(450,671,l),
(408,448,l),
(125,1087,l),
(538,1087,l),
(578,969,ls),
(614,861,o),
(639,754,o),
(668,653,c),
(551,653,l),
(616,754,o),
(678,861,o),
(753,969,cs),
(835,1087,l),
(1266,1087,l),
(756,449,l),
(798,671,l),
(1101,0,l),
(689,0,l),
(641,137,ls),
(602,244,o),
(576,350,o),
(543,450,c),
(648,450,l),
(584,350,o),
(520,244,o),
(447,137,cs),
(353,0,l)
);
}
);
width = 1200;
},
{
anchors = (
{
name = m.uni0347;
position = "{510, 0}";
},
{
name = m.uni0302_1;
position = "{690, 1087}";
}
);
layerId = "496E469D-EE15-4086-9FDA-F7D1A66ADFFB";
shapes = (
{
closed = 1;
nodes = (
(-62,0,l),
(475,648,l),
(442,468,l),
(142,1087,l),
(452,1087,l),
(523,924,ls),
(566,821,o),
(595,722,o),
(630,629,c),
(527,629,l),
(595,722,o),
(657,821,o),
(734,924,c),
(863,1087,l),
(1188,1087,l),
(673,466,l),
(706,646,l),
(1024,0,l),
(715,0,l),
(630,189,l),
(587,290,o),
(558,386,o),
(519,478,c),
(617,478,l),
(552,386,o),
(489,290,o),
(413,189,c),
(264,0,l)
);
}
);
width = 1141;
},
{
anchors = (
{
name = m.uni0347;
position = "{510, 0}";
},
{
name = m.uni0302_1;
position = "{690, 1087}";
}
);
layerId = "C6CF8F4D-8996-4F76-ABC0-77690A781072";
shapes = (
{
closed = 1;
nodes = (
(-42,0,l),
(503,624,l),
(479,489,l),
(161,1087,l),
(358,1087,l),
(464,875,ls),
(512,778,o),
(548,689,o),
(589,602,c),
(500,602,l),
(572,689,o),
(634,778,o),
(714,875,cs),
(893,1087,l),
(1103,1087,l),
(584,485,l),
(606,618,l),
(941,0,l),
(743,0,l),
(618,246,ls),
(570,341,o),
(537,425,o),
(494,509,c),
(584,509,l),
(516,425,o),
(456,341,o),
(376,246,cs),
(167,0,l)
);
}
);
width = 1078;
},
{
anchors = (
{
name = m.uni0347;
position = "{471, 0}";
},
{
name = m.uni0302_1;
position = "{651, 1087}";
}
);
layerId = "CFE5CAE0-9991-40C5-8AD5-14528CBB0784";
shapes = (
{
closed = 1;
nodes = (
(-42,0,l),
(488,574,l),
(482,539,l),
(157,1087,l),
(211,1087,l),
(385,793,ls),
(428,721,o),
(470,647,o),
(513,575,c),
(489,575,l),
(557,647,o),
(622,721,o),
(689,793,cs),
(961,1087,l),
(1023,1087,l),
(516,539,l),
(522,574,l),
(862,0,l),
(808,0,l),
(610,337,ls),
(569,405,o),
(531,470,o),
(491,538,c),
(515,538,l),
(452,470,o),
(392,405,o),
(329,337,cs),
(19,0,l)
);
}
);
width = 999;
}
);
leftKerningGroup = x2;
rightKerningGroup = x;
unicode = 120;
}
{
glyphname = y;
layers = (
{
anchors = (
{
name = m.uni0347;
position = "{919, 0}";
},
{
name = m.uni0302_1;
position = "{704, 1087}";
},
{
name = m.uni0328_4;
position = "{750, 0}";
}
);
layerId = "7120DA8A-778D-4421-9957-14EBB73F7FEE";
shapes = (
{
closed = 1;
nodes = (
(52,-107,l),
(156,-114,l),
(189,-120,o),
(218,-120,o),
(242,-115,c),
(289,-103,o),
(316,-71,o),
(323,-24,c),
(324,0,l),
(94,1087,l),
(501,1087,l),
(561,609,ls),
(580,460,o),
(581,314,o),
(590,149,c),
(495,149,l),
(556,314,o),
(617,462,o),
(688,609,cs),
(916,1087,l),
(1342,1087,l),
(689,-117,ls),
(654,-182,o),
(615,-237,o),
(572,-283,cs),
(485,-374,o),
(374,-422,o),
(217,-422,cs),
(126,-422,o),
(32,-415,o),
(-41,-402,c)
);
}
);
width = 1256;
},
{
anchors = (
{
name = m.uni0347;
position = "{919, 0}";
},
{
name = m.uni0302_1;
position = "{704, 1087}";
},
{
name = m.uni0328_4;
position = "{750, 0}";
}
);
layerId = "496E469D-EE15-4086-9FDA-F7D1A66ADFFB";
shapes = (
{
closed = 1;
nodes = (
(40,-179,l),
(123,-184,l),
(154,-189,o),
(182,-189,o),
(207,-183,cs),
(255,-171,o),
(291,-134,o),
(315,-70,c),
(346,1,l),
(112,1087,l),
(411,1087,l),
(504,534,ls),
(525,398,o),
(532,265,o),
(545,125,c),
(470,125,l),
(527,265,o),
(585,399,o),
(652,534,cs),
(933,1087,l),
(1249,1087,l),
(574,-148,ls),
(542,-207,o),
(506,-257,o),
(466,-298,cs),
(386,-380,o),
(286,-422,o),
(158,-422,cs),
(89,-422,o),
(20,-415,o),
(-31,-406,c)
);
}
);
width = 1181;
},
{
anchors = (
{
name = m.uni0347;
position = "{919, 0}";
},
{
name = m.uni0302_1;
position = "{704, 1087}";
},
{
name = m.uni0328_4;
position = "{750, 0}";
}
);
layerId = "C6CF8F4D-8996-4F76-ABC0-77690A781072";
shapes = (
{
closed = 1;
nodes = (
(28,-258,l),
(88,-260,l),
(117,-265,o),
(145,-264,o),
(170,-257,cs),
(220,-244,o),
(263,-201,o),
(306,-120,cs),
(370,2,l),
(132,1087,l),
(314,1087,l),
(442,452,ls),
(466,332,o),
(480,213,o),
(497,98,c),
(442,98,l),
(497,213,o),
(550,332,o),
(614,452,cs),
(951,1087,l),
(1148,1087,l),
(449,-181,ls),
(420,-233,o),
(388,-277,o),
(351,-313,cs),
(278,-385,o),
(191,-422,o),
(95,-422,cs),
(48,-422,o),
(6,-416,o),
(-21,-411,c)
);
}
);
width = 1100;
},
{
anchors = (
{
name = m.uni0347;
position = "{803, 0}";
},
{
name = m.uni0302_1;
position = "{686, 1087}";
},
{
name = m.uni0328_4;
position = "{672, 0}";
}
);
layerId = "CFE5CAE0-9991-40C5-8AD5-14528CBB0784";
shapes = (
{
closed = 1;
nodes = (
(-16,-364,l),
(32,-366,l),
(71,-376,o),
(106,-377,o),
(137,-369,cs),
(200,-353,o),
(253,-296,o),
(310,-195,cs),
(413,-10,l),
(158,1087,l),
(204,1087,l),
(378,337,ls),
(402,232,o),
(425,128,o),
(446,24,c),
(433,24,l),
(489,128,o),
(546,232,o),
(606,337,cs),
(1027,1087,l),
(1079,1087,l),
(350,-211,ls),
(322,-262,o),
(294,-303,o),
(267,-334,cs),
(211,-396,o),
(151,-422,o),
(71,-422,cs),
(34,-422,o),
(7,-418,o),
(-33,-407,c)
);
}
);
width = 1057;
}
);
leftKerningGroup = v2;
rightKerningGroup = v;
unicode = 121;
}
{
glyphname = z;
layers = (
{
anchors = (
{
name = m.uni0347;
position = "{502, 0}";
},
{
name = m.uni0302_1;
position = "{680, 1087}";
}
);
layerId = "327A104B-2E28-4C21-9EEF-F371F9687223";
shapes = (
{
closed = 1;
nodes = (
(16,0,l),
(56,239,l),
(619,778,l),
(620,783,l),
(153,783,l),
(204,1087,l),
(1149,1087,l),
(1105,829,l),
(573,308,l),
(573,305,l),
(1033,305,l),
(983,0,l)
);
}
);
width = 1179;
},
{
anchors = (
{
name = m.uni0347;
position = "{502, 0}";
},
{
name = m.uni0302_1;
position = "{680, 1087}";
}
);
layerId = "E369B2B9-8A8B-4879-8879-CDDEC6ABDA8D";
shapes = (
{
closed = 1;
nodes = (
(18,0,l),
(50,188,l),
(690,846,l),
(692,853,l),
(168,853,l),
(207,1087,l),
(1089,1087,l),
(1055,886,l),
(437,240,l),
(436,235,l),
(961,235,l),
(922,0,l)
);
}
);
width = 1120;
},
{
anchors = (
{
name = m.uni0347;
position = "{502, 0}";
},
{
name = m.uni0302_1;
position = "{680, 1087}";
}
);
layerId = "844D73DB-7C23-43E4-9FB2-A17A73FD39D0";
shapes = (
{
closed = 1;
nodes = (
(20,0,l),
(43,132,l),
(767,920,l),
(769,928,l),
(184,928,l),
(210,1087,l),
(1024,1087,l),
(1000,948,l),
(289,167,l),
(288,160,l),
(882,160,l),
(856,0,l)
);
}
);
width = 1056;
},
{
anchors = (
{
name = m.uni0347;
position = "{464, 0}";
},
{
name = m.uni0302_1;
position = "{648, 1087}";
}
);
layerId = "AAF7CECC-D58D-4734-9D16-9C2B5AF74B2F";
shapes = (
{
closed = 1;
nodes = (
(29,0,l),
(37,46,l),
(878,1038,l),
(879,1042,l),
(227,1042,l),
(235,1087,l),
(947,1087,l),
(939,1040,l),
(99,50,l),
(99,47,l),
(793,47,l),
(785,0,l)
);
}
);
width = 994;
}
);
leftKerningGroup = z2;
rightKerningGroup = z;
unicode = 122;
}
{
glyphname = braceleft.tf;
layers = (
{
layerId = "7120DA8A-778D-4421-9957-14EBB73F7FEE";
shapes = (
{
closed = 1;
nodes = (
(37,818,l),
(113,818,o),
(168,835,o),
(203,869,cs),
(238,902,o),
(260,955,o),
(271,1026,cs),
(291,1154,ls),
(306,1259,o),
(333,1340,o),
(371,1398,cs),
(409,1455,o),
(455,1496,o),
(509,1521,cs),
(562,1546,o),
(621,1561,o),
(685,1566,cs),
(749,1571,o),
(815,1574,o),
(882,1574,c),
(838,1280,l),
(764,1280,o),
(713,1267,o),
(684,1240,cs),
(655,1213,o),
(636,1167,o),
(626,1102,cs),
(601,934,ls),
(590,862,o),
(556,782,o),
(470,719,cs),
(384,655,o),
(238,612,o),
(6,612,c)
);
},
{
closed = 1;
nodes = (
(605,-286,l),
(538,-286,o),
(473,-283,o),
(411,-278,cs),
(348,-273,o),
(294,-258,o),
(247,-233,cs),
(200,-208,o),
(167,-167,o),
(146,-110,cs),
(125,-52,o),
(123,29,o),
(139,134,cs),
(157,262,ls),
(168,333,o),
(161,386,o),
(136,420,cs),
(111,453,o),
(61,470,o),
(-15,470,c),
(15,676,l),
(248,676,o),
(381,633,o),
(448,570,cs),
(515,506,o),
(526,426,o),
(515,354,cs),
(490,186,ls),
(481,121,o),
(486,75,o),
(507,48,cs),
(528,21,o),
(575,8,o),
(649,8,c)
);
},
{
closed = 1;
nodes = (
(-15,470,l),
(37,818,l),
(352,818,l),
(300,470,l)
);
}
);
width = 800;
},
{
layerId = "496E469D-EE15-4086-9FDA-F7D1A66ADFFB";
shapes = (
{
closed = 1;
nodes = (
(84,777,l),
(163,777,o),
(220,794,o),
(257,828,cs),
(293,861,o),
(317,915,o),
(329,990,cs),
(357,1168,ls),
(370,1255,o),
(392,1325,o),
(422,1379,cs),
(452,1432,o),
(489,1473,o),
(534,1501,cs),
(579,1529,o),
(630,1548,o),
(688,1559,cs),
(746,1569,o),
(810,1574,o),
(879,1574,c),
(844,1350,l),
(765,1350,o),
(710,1334,o),
(677,1301,cs),
(644,1268,o),
(622,1215,o),
(610,1140,cs),
(574,914,ls),
(563,841,o),
(531,768,o),
(456,712,cs),
(381,655,o),
(257,619,o),
(60,619,c)
);
},
{
closed = 1;
nodes = (
(587,-286,l),
(518,-286,o),
(456,-281,o),
(401,-271,cs),
(346,-261,o),
(301,-242,o),
(266,-214,cs),
(230,-186,o),
(205,-145,o),
(192,-92,cs),
(179,-38,o),
(179,33,o),
(192,120,cs),
(220,297,ls),
(232,372,o),
(225,426,o),
(200,460,cs),
(174,494,o),
(122,511,o),
(44,511,c),
(67,668,l),
(264,668,o),
(379,632,o),
(436,576,cs),
(492,520,o),
(502,446,o),
(490,373,cs),
(454,148,ls),
(443,73,o),
(448,19,o),
(470,-14,cs),
(492,-47,o),
(543,-63,o),
(622,-63,c)
);
},
{
closed = 1;
nodes = (
(43,511,l),
(85,777,l),
(333,777,l),
(292,511,l)
);
}
);
width = 800;
},
{
layerId = "C6CF8F4D-8996-4F76-ABC0-77690A781072";
shapes = (
{
closed = 1;
nodes = (
(135,732,l),
(217,732,o),
(277,749,o),
(315,783,cs),
(352,816,o),
(378,872,o),
(391,951,cs),
(429,1183,ls),
(440,1250,o),
(457,1309,o),
(478,1358,cs),
(499,1407,o),
(527,1448,o),
(562,1480,cs),
(597,1511,o),
(640,1535,o),
(691,1551,cs),
(742,1566,o),
(804,1574,o),
(876,1574,c),
(851,1425,l),
(766,1426,o),
(706,1406,o),
(669,1367,cs),
(632,1328,o),
(607,1266,o),
(593,1182,cs),
(545,893,ls),
(533,817,o),
(505,752,o),
(442,704,cs),
(379,655,o),
(278,627,o),
(118,627,c)
);
},
{
closed = 1;
nodes = (
(568,-286,l),
(497,-286,o),
(438,-278,o),
(392,-263,cs),
(345,-248,o),
(310,-224,o),
(286,-193,cs),
(261,-162,o),
(246,-121,o),
(241,-72,cs),
(236,-22,o),
(239,37,o),
(250,104,cs),
(288,334,ls),
(301,413,o),
(295,469,o),
(269,504,c),
(242,538,o),
(188,555,o),
(107,556,c),
(124,660,l),
(283,660,o),
(376,631,o),
(422,583,cs),
(468,535,o),
(475,468,o),
(462,393,cs),
(415,106,ls),
(401,21,o),
(406,-42,o),
(430,-81,cs),
(454,-120,o),
(508,-139,o),
(593,-139,c)
);
},
{
closed = 1;
nodes = (
(106,555,l),
(136,733,l),
(313,733,l),
(283,555,l)
);
}
);
width = 800;
},
{
layerId = "CFE5CAE0-9991-40C5-8AD5-14528CBB0784";
shapes = (
{
closed = 1;
nodes = (
(183,668,l),
(267,668,o),
(327,683,o),
(362,713,cs),
(397,743,o),
(421,799,o),
(435,882,cs),
(498,1264,ls),
(507,1317,o),
(520,1363,o),
(537,1402,cs),
(554,1441,o),
(575,1473,o),
(601,1499,cs),
(627,1524,o),
(658,1543,o),
(693,1556,cs),
(728,1569,o),
(768,1575,o),
(813,1575,c),
(805,1529,l),
(729,1529,o),
(670,1508,o),
(629,1467,cs),
(588,1425,o),
(559,1357,o),
(544,1264,cs),
(481,882,ls),
(465,786,o),
(437,721,o),
(389,681,cs),
(341,640,o),
(272,622,o),
(175,622,c)
);
},
{
closed = 1;
nodes = (
(505,-287,l),
(460,-287,o),
(422,-281,o),
(391,-268,cs),
(360,-255,o),
(335,-236,o),
(318,-211,cs),
(301,-185,o),
(290,-153,o),
(286,-114,cs),
(281,-75,o),
(284,-29,o),
(293,24,cs),
(355,406,ls),
(369,489,o),
(364,546,o),
(339,577,cs),
(314,607,o),
(260,622,o),
(176,622,c),
(183,668,l),
(280,668,o),
(344,650,o),
(377,609,cs),
(410,568,o),
(418,502,o),
(402,406,cs),
(339,24,ls),
(324,-69,o),
(330,-136,o),
(358,-178,cs),
(385,-220,o),
(437,-241,o),
(513,-241,c)
);
},
{
closed = 1;
nodes = (
(175,622,l),
(183,668,l),
(335,668,l),
(328,622,l)
);
}
);
width = 800;
}
);
unicode = (123,61002);
}
{
glyphname = bar;
layers = (
{
layerId = "7120DA8A-778D-4421-9957-14EBB73F7FEE";
shapes = (
{
closed = 1;
nodes = (
(840,1970,l),
(434,-480,l),
(41,-480,l),
(447,1970,l)
);
}
);
width = 815;
},
{
layerId = "496E469D-EE15-4086-9FDA-F7D1A66ADFFB";
shapes = (
{
closed = 1;
nodes = (
(741,1970,l),
(335,-480,l),
(58,-480,l),
(464,1970,l)
);
}
);
width = 733;
},
{
layerId = "C6CF8F4D-8996-4F76-ABC0-77690A781072";
shapes = (
{
closed = 1;
nodes = (
(633,1970,l),
(228,-480,l),
(77,-480,l),
(482,1970,l)
);
}
);
width = 644;
},
{
layerId = "CFE5CAE0-9991-40C5-8AD5-14528CBB0784";
shapes = (
{
closed = 1;
nodes = (
(507,1970,l),
(101,-480,l),
(55,-480,l),
(461,1970,l)
);
}
);
width = 495;
}
);
leftKerningGroup = B2;
rightKerningGroup = H;
unicode = 124;
}
{
glyphname = braceright.tf;
layers = (
{
layerId = "327A104B-2E28-4C21-9EEF-F371F9687223";
shapes = (
{
closed = 1;
nodes = (
(817,612,l),
(585,612,o),
(453,655,o),
(386,719,cs),
(319,782,o),
(308,862,o),
(319,934,cs),
(344,1102,ls),
(353,1167,o),
(348,1213,o),
(328,1240,cs),
(307,1267,o),
(260,1280,o),
(186,1280,c),
(229,1574,l),
(296,1574,o),
(361,1571,o),
(424,1566,cs),
(487,1561,o),
(541,1546,o),
(588,1521,cs),
(634,1496,o),
(667,1455,o),
(688,1398,cs),
(709,1340,o),
(711,1259,o),
(695,1154,cs),
(676,1026,ls),
(665,955,o),
(673,902,o),
(698,869,cs),
(723,835,o),
(773,818,o),
(849,818,c)
);
},
{
closed = 1;
nodes = (
(-4,8,l),
(71,8,o),
(122,21,o),
(150,48,cs),
(178,75,o),
(197,121,o),
(207,186,cs),
(232,354,ls),
(244,426,o),
(278,506,o),
(364,570,cs),
(450,633,o),
(595,676,o),
(827,676,c),
(797,470,l),
(721,470,o),
(666,453,o),
(631,420,cs),
(596,386,o),
(573,333,o),
(563,262,cs),
(544,134,ls),
(528,29,o),
(501,-52,o),
(463,-110,cs),
(425,-167,o),
(379,-208,o),
(326,-233,cs),
(272,-258,o),
(213,-273,o),
(149,-278,cs),
(85,-283,o),
(19,-286,o),
(-48,-286,c)
);
},
{
closed = 1;
nodes = (
(797,470,l),
(482,470,l),
(534,818,l),
(849,818,l)
);
}
);
width = 800;
},
{
layerId = "E369B2B9-8A8B-4879-8879-CDDEC6ABDA8D";
shapes = (
{
closed = 1;
nodes = (
(765,619,l),
(568,619,o),
(454,655,o),
(398,712,cs),
(341,768,o),
(332,841,o),
(343,914,cs),
(380,1140,ls),
(391,1215,o),
(386,1268,o),
(364,1301,cs),
(342,1334,o),
(291,1350,o),
(212,1350,c),
(246,1574,l),
(316,1574,o),
(378,1569,o),
(433,1559,cs),
(488,1548,o),
(533,1529,o),
(569,1501,cs),
(604,1473,o),
(629,1432,o),
(642,1379,cs),
(655,1325,o),
(655,1255,o),
(641,1168,cs),
(613,990,ls),
(602,915,o),
(609,861,o),
(635,828,c),
(660,794,o),
(712,777,o),
(790,777,c)
);
},
{
closed = 1;
nodes = (
(-11,-63,l),
(68,-63,o),
(124,-47,o),
(157,-14,cs),
(189,19,o),
(211,73,o),
(223,148,cs),
(258,373,l),
(271,446,o),
(302,520,o),
(377,576,cs),
(452,632,o),
(576,668,o),
(773,668,c),
(749,511,l),
(670,511,o),
(613,494,o),
(577,460,cs),
(540,426,o),
(516,372,o),
(505,297,cs),
(477,120,ls),
(464,33,o),
(442,-38,o),
(412,-91,cs),
(382,-144,o),
(345,-185,o),
(300,-214,cs),
(255,-242,o),
(204,-261,o),
(146,-271,cs),
(88,-281,o),
(24,-286,o),
(-46,-286,c)
);
},
{
closed = 1;
nodes = (
(749,511,l),
(501,511,l),
(542,777,l),
(790,777,l)
);
}
);
width = 800;
},
{
layerId = "844D73DB-7C23-43E4-9FB2-A17A73FD39D0";
shapes = (
{
closed = 1;
nodes = (
(709,627,l),
(549,627,o),
(457,655,o),
(411,704,cs),
(365,752,o),
(358,817,o),
(370,893,cs),
(418,1182,ls),
(432,1266,o),
(427,1328,o),
(404,1367,cs),
(380,1406,o),
(326,1426,o),
(241,1425,c),
(265,1574,l),
(337,1574,o),
(396,1566,o),
(443,1551,cs),
(489,1535,o),
(524,1511,o),
(549,1480,c),
(573,1448,o),
(588,1407,o),
(593,1358,cs),
(598,1309,o),
(594,1250,o),
(583,1183,cs),
(545,951,ls),
(532,872,o),
(539,816,o),
(566,783,c),
(592,749,o),
(645,732,o),
(726,732,c)
);
},
{
closed = 1;
nodes = (
(-18,-139,l),
(67,-139,o),
(127,-120,o),
(164,-81,cs),
(201,-42,o),
(226,21,o),
(240,106,cs),
(287,393,ls),
(300,468,o),
(328,535,o),
(391,583,cs),
(454,631,o),
(555,660,o),
(715,660,c),
(698,556,l),
(616,555,o),
(556,538,o),
(519,504,cs),
(481,469,o),
(456,413,o),
(443,334,cs),
(405,104,ls),
(394,37,o),
(378,-22,o),
(357,-71,cs),
(336,-120,o),
(308,-160,o),
(273,-192,cs),
(238,-224,o),
(194,-248,o),
(143,-263,cs),
(91,-278,o),
(29,-286,o),
(-43,-286,c)
);
},
{
closed = 1;
nodes = (
(698,556,l),
(521,555,l),
(550,733,l),
(726,732,l)
);
}
);
width = 800;
},
{
layerId = "AAF7CECC-D58D-4734-9D16-9C2B5AF74B2F";
shapes = (
{
closed = 1;
nodes = (
(651,622,l),
(554,622,o),
(492,640,o),
(458,681,cs),
(424,721,o),
(416,786,o),
(432,882,cs),
(495,1264,ls),
(510,1357,o),
(504,1425,o),
(477,1467,cs),
(450,1508,o),
(398,1529,o),
(322,1529,c),
(329,1575,l),
(374,1575,o),
(413,1569,o),
(444,1556,cs),
(475,1543,o),
(499,1524,o),
(516,1499,cs),
(533,1473,o),
(544,1441,o),
(549,1402,cs),
(553,1363,o),
(551,1317,o),
(542,1264,cs),
(478,882,ls),
(465,799,o),
(471,743,o),
(496,713,cs),
(521,683,o),
(575,668,o),
(659,668,c)
);
},
{
closed = 1;
nodes = (
(29,-241,l),
(105,-241,o),
(164,-220,o),
(206,-178,cs),
(247,-136,o),
(275,-69,o),
(290,24,cs),
(353,406,ls),
(369,502,o),
(397,568,o),
(445,609,cs),
(493,650,o),
(562,668,o),
(659,668,c),
(652,622,l),
(568,622,o),
(508,607,o),
(473,577,cs),
(438,546,o),
(413,489,o),
(400,406,cs),
(337,24,ls),
(328,-29,o),
(315,-75,o),
(298,-114,cs),
(281,-153,o),
(259,-185,o),
(233,-211,cs),
(207,-236,o),
(177,-255,o),
(142,-268,cs),
(107,-281,o),
(66,-287,o),
(21,-287,c)
);
},
{
closed = 1;
nodes = (
(652,622,l),
(500,622,l),
(507,668,l),
(659,668,l)
);
}
);
width = 800;
}
);
unicode = (125,61003);
}
{
glyphname = exclamdown;
layers = (
{
layerId = "327A104B-2E28-4C21-9EEF-F371F9687223";
shapes = (
{
closed = 1;
nodes = (
(-34,-394,l),
(169,621,l),
(524,621,l),
(390,-394,l)
);
},
{
closed = 1;
nodes = (
(299,705,o),
(251,724,o),
(218,762,cs),
(185,800,o),
(173,849,o),
(183,908,cs),
(192,967,o),
(220,1016,o),
(267,1054,cs),
(313,1092,o),
(367,1111,o),
(428,1111,cs),
(489,1111,o),
(537,1092,o),
(570,1054,cs),
(603,1016,o),
(614,967,o),
(604,908,cs),
(595,849,o),
(567,800,o),
(521,762,cs),
(475,724,o),
(421,705,o),
(360,705,cs)
);
}
);
width = 667;
},
{
layerId = "E369B2B9-8A8B-4879-8879-CDDEC6ABDA8D";
shapes = (
{
closed = 1;
nodes = (
(-13,-392,l),
(181,636,l),
(450,636,l),
(304,-392,l)
);
},
{
closed = 1;
nodes = (
(288,773,o),
(249,789,o),
(222,821,cs),
(194,853,o),
(184,893,o),
(193,942,c),
(200,991,o),
(223,1031,o),
(262,1063,cs),
(301,1095,o),
(345,1111,o),
(394,1111,cs),
(443,1111,o),
(482,1095,o),
(510,1063,cs),
(537,1031,o),
(547,991,o),
(539,942,cs),
(531,893,o),
(508,853,o),
(470,821,cs),
(431,789,o),
(387,773,o),
(337,773,cs)
);
}
);
width = 599;
},
{
layerId = "844D73DB-7C23-43E4-9FB2-A17A73FD39D0";
shapes = (
{
closed = 1;
nodes = (
(9,-389,l),
(195,652,l),
(369,652,l),
(210,-389,l)
);
},
{
closed = 1;
nodes = (
(276,846,o),
(247,859,o),
(226,885,cs),
(204,911,o),
(196,942,o),
(203,978,c),
(209,1015,o),
(227,1047,o),
(257,1073,cs),
(287,1098,o),
(320,1111,o),
(357,1111,cs),
(394,1111,o),
(423,1098,o),
(445,1073,c),
(466,1047,o),
(474,1015,o),
(468,978,cs),
(462,942,o),
(444,911,o),
(414,885,cs),
(383,859,o),
(350,846,o),
(313,846,cs)
);
}
);
width = 526;
},
{
layerId = "AAF7CECC-D58D-4734-9D16-9C2B5AF74B2F";
shapes = (
{
closed = 1;
nodes = (
(61,-391,l),
(243,707,l),
(288,707,l),
(107,-391,l)
);
},
{
closed = 1;
nodes = (
(298,997,o),
(287,1002,o),
(278,1013,cs),
(269,1023,o),
(266,1035,o),
(269,1050,cs),
(271,1065,o),
(278,1078,o),
(291,1088,cs),
(303,1098,o),
(316,1103,o),
(331,1103,cs),
(346,1103,o),
(358,1098,o),
(367,1088,cs),
(375,1078,o),
(378,1065,o),
(376,1050,cs),
(373,1035,o),
(366,1023,o),
(354,1013,cs),
(342,1002,o),
(328,997,o),
(313,997,cs)
);
}
);
width = 478;
}
);
unicode = 161;
}
{
glyphname = cent;
layers = (
{
anchors = (
{
name = m.uni0347;
position = "{569, 204}";
},
{
name = m.uni0302_1;
position = "{749, 1291}";
},
{
name = m.uni0327_3;
position = "{569, 204}";
}
);
layerId = "327A104B-2E28-4C21-9EEF-F371F9687223";
shapes = (
{
closed = 1;
nodes = (
(484,0,l),
(731,1490,l),
(843,1490,l),
(596,0,l)
);
},
{
closed = 1;
nodes = (
(481,182,o),
(391,202,o),
(316,241,cs),
(165,319,o),
(82,465,o),
(82,654,cs),
(82,826,o),
(140,987,o),
(250,1111,cs),
(360,1234,o),
(523,1310,o),
(732,1310,cs),
(883,1310,o),
(1009,1266,o),
(1097,1190,cs),
(1185,1113,o),
(1230,1002,o),
(1217,866,c),
(836,839,l),
(839,888,o),
(834,930,o),
(818,959,cs),
(801,988,o),
(774,1005,o),
(729,1005,cs),
(644,1005,o),
(582,955,o),
(543,880,cs),
(503,805,o),
(485,716,o),
(485,640,cs),
(485,607,o),
(489,579,o),
(498,556,cs),
(514,511,o),
(550,487,o),
(602,487,cs),
(647,487,o),
(692,505,o),
(729,535,cs),
(765,565,o),
(793,607,o),
(806,658,c),
(1178,631,l),
(1149,494,o),
(1079,383,o),
(976,304,cs),
(873,225,o),
(741,182,o),
(586,182,cs)
);
}
);
width = 1214;
},
{
anchors = (
{
name = m.uni0347;
position = "{569, 204}";
},
{
name = m.uni0302_1;
position = "{749, 1291}";
},
{
name = m.uni0327_3;
position = "{569, 204}";
}
);
layerId = "E369B2B9-8A8B-4879-8879-CDDEC6ABDA8D";
shapes = (
{
closed = 1;
nodes = (
(455,0,l),
(702,1490,l),
(824,1490,l),
(577,0,l)
);
},
{
closed = 1;
nodes = (
(466,181,o),
(383,200,o),
(314,238,cs),
(174,314,o),
(96,456,o),
(96,640,cs),
(96,812,o),
(153,976,o),
(260,1104,cs),
(367,1231,o),
(522,1310,o),
(719,1310,cs),
(852,1310,o),
(964,1270,o),
(1044,1202,cs),
(1124,1133,o),
(1168,1035,o),
(1164,915,c),
(882,892,l),
(882,947,o),
(869,992,o),
(842,1025,c),
(814,1057,o),
(775,1076,o),
(715,1076,cs),
(607,1076,o),
(526,1018,o),
(472,930,cs),
(418,842,o),
(390,734,o),
(390,634,cs),
(390,589,o),
(397,551,o),
(410,518,cs),
(436,453,o),
(491,415,o),
(574,415,cs),
(634,415,o),
(690,435,o),
(735,469,cs),
(780,503,o),
(815,550,o),
(834,606,c),
(1110,578,l),
(1075,458,o),
(1007,360,o),
(912,290,cs),
(817,220,o),
(698,181,o),
(563,181,cs)
);
}
);
width = 1169;
},
{
anchors = (
{
name = m.uni0347;
position = "{569, 204}";
},
{
name = m.uni0302_1;
position = "{749, 1291}";
},
{
name = m.uni0327_3;
position = "{569, 204}";
}
);
layerId = "844D73DB-7C23-43E4-9FB2-A17A73FD39D0";
shapes = (
{
closed = 1;
nodes = (
(424,0,l),
(671,1490,l),
(803,1490,l),
(556,0,l)
);
},
{
closed = 1;
nodes = (
(451,179,o),
(375,198,o),
(311,235,cs),
(183,309,o),
(112,446,o),
(112,625,cs),
(112,797,o),
(168,965,o),
(271,1096,cs),
(374,1227,o),
(521,1309,o),
(704,1309,cs),
(819,1309,o),
(916,1275,o),
(987,1215,cs),
(1058,1155,o),
(1101,1071,o),
(1106,968,c),
(932,949,l),
(928,1009,o),
(907,1059,o),
(868,1095,cs),
(829,1131,o),
(775,1152,o),
(699,1152,cs),
(567,1152,o),
(465,1087,o),
(395,985,cs),
(325,883,o),
(288,755,o),
(288,628,cs),
(288,571,o),
(297,521,o),
(315,477,cs),
(351,389,o),
(427,337,o),
(543,337,cs),
(620,337,o),
(688,359,o),
(743,397,cs),
(798,435,o),
(838,488,o),
(865,549,c),
(1036,520,l),
(997,419,o),
(930,334,o),
(843,274,cs),
(756,214,o),
(651,179,o),
(538,179,cs)
);
}
);
width = 1121;
},
{
anchors = (
{
name = m.uni0347;
position = "{543, 205}";
},
{
name = m.uni0302_1;
position = "{727, 1292}";
},
{
name = m.uni0327_3;
position = "{544, 205}";
}
);
layerId = "AAF7CECC-D58D-4734-9D16-9C2B5AF74B2F";
shapes = (
{
closed = 1;
nodes = (
(438,0,l),
(685,1490,l),
(731,1490,l),
(484,0,l)
);
},
{
closed = 1;
nodes = (
(422,188,o),
(350,209,o),
(290,252,cs),
(170,337,o),
(110,494,o),
(127,687,cs),
(140,851,o),
(204,1005,o),
(304,1121,cs),
(403,1236,o),
(536,1307,o),
(685,1307,cs),
(801,1307,o),
(888,1264,o),
(946,1202,cs),
(1004,1140,o),
(1034,1067,o),
(1038,1008,c),
(994,998,l),
(990,1053,o),
(964,1117,o),
(913,1171,cs),
(862,1225,o),
(788,1261,o),
(685,1261,cs),
(544,1261,o),
(424,1194,o),
(333,1085,cs),
(242,976,o),
(185,833,o),
(173,680,cs),
(165,591,o),
(173,514,o),
(198,447,cs),
(247,313,o),
(355,234,o),
(506,234,cs),
(610,234,o),
(701,272,o),
(771,328,cs),
(841,383,o),
(891,447,o),
(912,502,c),
(956,488,l),
(933,428,o),
(879,354,o),
(801,293,cs),
(723,232,o),
(622,188,o),
(506,188,cs)
);
}
);
width = 1058;
}
);
leftKerningGroup = a2;
rightKerningGroup = b;
unicode = 162;
}
{
glyphname = sterling;
layers = (
{
layerId = "7120DA8A-778D-4421-9957-14EBB73F7FEE";
shapes = (
{
closed = 1;
nodes = (
(31,329,l),
(135,329,o),
(203,368,o),
(211,448,cs),
(260,964,ls),
(271,1085,o),
(306,1186,o),
(365,1268,cs),
(424,1349,o),
(498,1411,o),
(587,1452,cs),
(676,1493,o),
(772,1514,o),
(875,1514,cs),
(974,1514,o),
(1060,1495,o),
(1134,1456,cs),
(1281,1379,o),
(1364,1232,o),
(1345,1033,c),
(964,1004,l),
(971,1069,o),
(965,1116,o),
(944,1145,cs),
(923,1173,o),
(890,1187,o),
(844,1187,cs),
(810,1187,o),
(780,1180,o),
(755,1167,cs),
(703,1139,o),
(670,1081,o),
(658,989,cs),
(598,525,ls),
(585,420,o),
(518,358,o),
(428,324,cs),
(383,307,o),
(335,295,o),
(285,288,cs),
(185,274,o),
(87,274,o),
(22,274,c)
);
},
{
closed = 1;
nodes = (
(-24,0,l),
(30,329,l),
(838,329,ls),
(857,329,o),
(870,340,o),
(873,359,cs),
(882,409,l),
(1255,409,l),
(1244,346,ls),
(1205,126,o),
(1051,0,o),
(807,0,cs)
);
},
{
closed = 1;
nodes = (
(75,599,l),
(119,866,l),
(927,866,l),
(883,599,l)
);
}
);
width = 1336;
},
{
layerId = "496E469D-EE15-4086-9FDA-F7D1A66ADFFB";
shapes = (
{
closed = 1;
nodes = (
(31,250,l),
(138,250,o),
(209,297,o),
(222,408,cs),
(289,1006,ls),
(301,1112,o),
(333,1203,o),
(386,1279,cs),
(439,1354,o),
(506,1412,o),
(587,1452,cs),
(668,1492,o),
(758,1512,o),
(855,1512,cs),
(945,1512,o),
(1024,1494,o),
(1091,1457,cs),
(1225,1384,o),
(1299,1245,o),
(1282,1064,c),
(1001,1042,l),
(1008,1115,o),
(997,1171,o),
(968,1208,cs),
(939,1245,o),
(894,1264,o),
(833,1264,cs),
(788,1264,o),
(747,1255,o),
(712,1236,cs),
(640,1199,o),
(594,1126,o),
(581,1022,cs),
(507,451,ls),
(495,352,o),
(440,292,o),
(367,256,cs),
(330,238,o),
(291,225,o),
(250,217,cs),
(167,201,o),
(84,198,o),
(23,198,c)
);
},
{
closed = 1;
nodes = (
(-10,0,l),
(31,250,l),
(824,250,ls),
(861,250,o),
(884,267,o),
(889,306,c),
(899,362,l),
(1173,362,l),
(1164,307,ls),
(1129,107,o),
(1002,0,o),
(793,0,cs)
);
},
{
closed = 1;
nodes = (
(95,634,l),
(130,843,l),
(927,843,l),
(893,634,l)
);
}
);
width = 1281;
},
{
layerId = "C6CF8F4D-8996-4F76-ABC0-77690A781072";
shapes = (
{
closed = 1;
nodes = (
(32,164,l),
(140,164,o),
(216,220,o),
(233,364,cs),
(321,1052,ls),
(333,1142,o),
(362,1222,o),
(409,1291,cs),
(455,1360,o),
(515,1413,o),
(588,1452,cs),
(661,1491,o),
(742,1510,o),
(833,1510,cs),
(914,1510,o),
(985,1493,o),
(1045,1458,cs),
(1164,1389,o),
(1230,1261,o),
(1214,1097,c),
(1041,1083,l),
(1048,1165,o),
(1033,1230,o),
(994,1277,cs),
(955,1324,o),
(898,1347,o),
(822,1347,cs),
(763,1347,o),
(711,1335,o),
(665,1312,cs),
(573,1264,o),
(513,1176,o),
(497,1057,cs),
(409,370,ls),
(397,279,o),
(357,220,o),
(302,183,cs),
(274,164,o),
(244,150,o),
(212,141,c),
(148,121,o),
(81,116,o),
(25,116,c)
);
},
{
closed = 1;
nodes = (
(6,0,l),
(32,164,l),
(808,164,ls),
(868,164,o),
(898,188,o),
(907,249,cs),
(917,311,l),
(1085,311,l),
(1077,264,ls),
(1046,87,o),
(950,0,o),
(777,0,cs)
);
},
{
closed = 1;
nodes = (
(117,671,l),
(141,819,l),
(928,819,l),
(903,671,l)
);
}
);
width = 1222;
},
{
layerId = "CFE5CAE0-9991-40C5-8AD5-14528CBB0784";
shapes = (
{
closed = 1;
nodes = (
(27,47,l),
(158,47,o),
(238,142,o),
(258,315,cs),
(344,1055,ls),
(355,1144,o),
(382,1222,o),
(425,1290,cs),
(468,1358,o),
(523,1411,o),
(592,1449,cs),
(660,1487,o),
(736,1506,o),
(820,1506,cs),
(899,1506,o),
(964,1490,o),
(1017,1457,cs),
(1122,1391,o),
(1170,1269,o),
(1145,1118,c),
(1099,1118,l),
(1116,1219,o),
(1100,1301,o),
(1052,1365,cs),
(1003,1429,o),
(926,1461,o),
(821,1461,cs),
(748,1461,o),
(680,1444,o),
(618,1410,cs),
(494,1342,o),
(409,1218,o),
(390,1058,cs),
(304,318,ls),
(295,239,o),
(274,176,o),
(240,125,cs),
(223,100,o),
(203,78,o),
(181,61,cs),
(137,26,o),
(83,8,o),
(20,8,c)
);
},
{
closed = 1;
nodes = (
(11,0,l),
(19,47,l),
(763,47,ls),
(875,47,o),
(929,94,o),
(948,206,cs),
(956,252,l),
(1002,252,l),
(994,205,ls),
(971,69,o),
(892,0,o),
(755,0,cs)
);
},
{
closed = 1;
nodes = (
(129,711,l),
(136,757,l),
(857,757,l),
(850,711,l)
);
}
);
width = 1163;
}
);
unicode = 163;
}
{
glyphname = currency;
layers = (
{
layerId = "327A104B-2E28-4C21-9EEF-F371F9687223";
shapes = (
{
closed = 1;
nodes = (
(541,-20,o),
(397,47,o),
(302,161,cs),
(206,275,o),
(164,431,o),
(193,608,cs),
(221,785,o),
(316,941,o),
(449,1054,cs),
(582,1167,o),
(748,1234,o),
(921,1234,cs),
(1090,1234,o),
(1233,1169,o),
(1329,1055,cs),
(1425,941,o),
(1469,785,o),
(1441,609,cs),
(1410,430,o),
(1316,275,o),
(1182,161,cs),
(1048,47,o),
(882,-20,o),
(713,-20,cs)
);
},
{
closed = 1;
nodes = (
(864,190,o),
(976,234,o),
(1066,310,cs),
(1156,386,o),
(1220,488,o),
(1240,608,cs),
(1253,689,o),
(1246,761,o),
(1218,824,cs),
(1190,887,o),
(1147,936,o),
(1090,973,cs),
(1033,1009,o),
(965,1027,o),
(888,1026,c),
(808,1027,o),
(733,1009,o),
(664,973,cs),
(594,937,o),
(535,887,o),
(488,824,cs),
(440,761,o),
(409,689,o),
(396,608,cs),
(382,529,o),
(388,458,o),
(415,395,cs),
(442,331,o),
(484,281,o),
(542,245,cs),
(600,208,o),
(669,190,o),
(748,190,cs)
);
},
{
closed = 1;
nodes = (
(1325,909,l),
(1197,1065,l),
(1440,1273,l),
(1571,1115,l)
);
},
{
closed = 1;
nodes = (
(1223,-31,l),
(1049,175,l),
(1229,329,l),
(1406,127,l)
);
},
{
closed = 1;
nodes = (
(199,-31,l),
(71,127,l),
(315,329,l),
(445,175,l)
);
},
{
closed = 1;
nodes = (
(411,909,l),
(236,1115,l),
(416,1273,l),
(594,1065,l)
);
}
);
width = 1608;
},
{
layerId = "E369B2B9-8A8B-4879-8879-CDDEC6ABDA8D";
shapes = (
{
closed = 1;
nodes = (
(504,-20,o),
(363,47,o),
(271,161,cs),
(179,275,o),
(138,431,o),
(167,608,cs),
(195,785,o),
(289,941,o),
(419,1054,cs),
(549,1167,o),
(711,1234,o),
(880,1234,cs),
(1045,1234,o),
(1186,1169,o),
(1280,1055,cs),
(1374,941,o),
(1416,785,o),
(1387,609,cs),
(1358,430,o),
(1264,275,o),
(1133,161,cs),
(1001,47,o),
(839,-20,o),
(672,-20,cs)
);
},
{
closed = 1;
nodes = (
(820,166,o),
(934,214,o),
(1026,295,cs),
(1117,375,o),
(1183,484,o),
(1203,608,cs),
(1217,691,o),
(1210,766,o),
(1183,833,cs),
(1155,900,o),
(1112,953,o),
(1055,992,cs),
(997,1031,o),
(929,1050,o),
(850,1050,cs),
(770,1050,o),
(695,1031,o),
(624,992,cs),
(553,953,o),
(493,901,o),
(444,834,cs),
(395,767,o),
(363,691,o),
(349,608,cs),
(335,527,o),
(342,452,o),
(369,385,cs),
(396,318,o),
(438,264,o),
(497,225,cs),
(555,186,o),
(624,166,o),
(703,166,cs)
);
},
{
closed = 1;
nodes = (
(1268,917,l),
(1155,1057,l),
(1394,1264,l),
(1511,1123,l)
);
},
{
closed = 1;
nodes = (
(1180,-23,l),
(1010,183,l),
(1170,321,l),
(1343,118,l)
);
},
{
closed = 1;
nodes = (
(165,-23,l),
(52,118,l),
(291,321,l),
(407,183,l)
);
},
{
closed = 1;
nodes = (
(390,917,l),
(220,1123,l),
(379,1264,l),
(553,1057,l)
);
}
);
width = 1532;
},
{
layerId = "844D73DB-7C23-43E4-9FB2-A17A73FD39D0";
shapes = (
{
closed = 1;
nodes = (
(464,-20,o),
(327,47,o),
(238,161,cs),
(149,275,o),
(110,431,o),
(138,608,cs),
(167,785,o),
(258,941,o),
(386,1054,cs),
(513,1167,o),
(670,1234,o),
(835,1234,cs),
(998,1234,o),
(1135,1168,o),
(1227,1055,cs),
(1318,942,o),
(1358,786,o),
(1329,609,cs),
(1300,430,o),
(1208,275,o),
(1080,161,cs),
(951,47,o),
(792,-20,o),
(628,-20,cs)
);
},
{
closed = 1;
nodes = (
(773,141,o),
(889,193,o),
(982,279,cs),
(1074,365,o),
(1142,479,o),
(1162,607,cs),
(1177,694,o),
(1171,772,o),
(1144,843,cs),
(1117,914,o),
(1074,970,o),
(1016,1012,cs),
(957,1054,o),
(888,1075,o),
(809,1075,cs),
(729,1075,o),
(653,1054,o),
(581,1013,cs),
(509,971,o),
(448,915,o),
(397,844,cs),
(346,773,o),
(314,695,o),
(299,608,cs),
(285,523,o),
(292,446,o),
(319,375,cs),
(346,304,o),
(389,247,o),
(448,205,cs),
(506,162,o),
(575,141,o),
(654,141,cs)
);
},
{
closed = 1;
nodes = (
(1207,926,l),
(1110,1049,l),
(1345,1255,l),
(1446,1132,l)
);
},
{
closed = 1;
nodes = (
(1134,-14,l),
(968,192,l),
(1106,313,l),
(1275,109,l)
);
},
{
closed = 1;
nodes = (
(128,-14,l),
(31,109,l),
(266,313,l),
(366,192,l)
);
},
{
closed = 1;
nodes = (
(368,926,l),
(202,1132,l),
(339,1255,l),
(508,1049,l)
);
}
);
width = 1450;
},
{
layerId = "AAF7CECC-D58D-4734-9D16-9C2B5AF74B2F";
shapes = (
{
closed = 1;
nodes = (
(409,-20,o),
(275,47,o),
(189,162,cs),
(103,277,o),
(65,432,o),
(94,608,cs),
(123,788,o),
(211,943,o),
(335,1056,cs),
(458,1168,o),
(610,1234,o),
(774,1234,cs),
(938,1234,o),
(1071,1167,o),
(1158,1054,cs),
(1245,941,o),
(1280,785,o),
(1252,609,cs),
(1223,430,o),
(1136,275,o),
(1013,161,cs),
(889,47,o),
(734,-20,o),
(570,-20,cs)
);
},
{
closed = 1;
nodes = (
(725,26,o),
(867,88,o),
(982,195,cs),
(1097,302,o),
(1178,445,o),
(1206,608,cs),
(1225,719,o),
(1218,818,o),
(1185,905,cs),
(1152,992,o),
(1100,1061,o),
(1028,1112,cs),
(956,1162,o),
(870,1187,o),
(769,1186,c),
(670,1187,o),
(576,1162,o),
(487,1112,cs),
(398,1061,o),
(323,992,o),
(261,905,cs),
(199,817,o),
(159,718,o),
(140,608,cs),
(122,499,o),
(129,400,o),
(162,312,cs),
(195,224,o),
(247,154,o),
(319,103,cs),
(390,52,o),
(475,26,o),
(574,26,cs)
);
},
{
closed = 1;
nodes = (
(1154,1003,l),
(1127,1039,l),
(1332,1219,l),
(1359,1184,l)
);
},
{
closed = 1;
nodes = (
(1132,1,l),
(986,181,l),
(1021,214,l),
(1165,34,l)
);
},
{
closed = 1;
nodes = (
(13,1,l),
(-14,36,l),
(190,216,l),
(216,181,l)
);
},
{
closed = 1;
nodes = (
(324,1005,l),
(179,1185,l),
(214,1218,l),
(358,1038,l)
);
}
);
width = 1330;
}
);
unicode = 164;
}
{
glyphname = yen;
layers = (
{
layerId = "327A104B-2E28-4C21-9EEF-F371F9687223";
shapes = (
{
closed = 1;
nodes = (
(583,1490,l),
(725,792,l),
(426,562,l),
(179,1490,l)
);
},
{
closed = 1;
nodes = (
(553,802,l),
(920,1490,l),
(1325,1490,l),
(765,562,l)
);
},
{
closed = 1;
nodes = (
(827,786,l),
(697,0,l),
(298,0,l),
(429,786,l)
);
},
{
closed = 1;
nodes = (
(1101,786,l),
(1066,574,l),
(82,574,l),
(117,786,l)
);
},
{
closed = 1;
nodes = (
(1053,498,l),
(1018,286,l),
(33,286,l),
(70,498,l)
);
}
);
width = 1189;
},
{
layerId = "E369B2B9-8A8B-4879-8879-CDDEC6ABDA8D";
shapes = (
{
closed = 1;
nodes = (
(484,1490,l),
(674,730,l),
(445,581,l),
(176,1490,l)
);
},
{
closed = 1;
nodes = (
(536,735,l),
(975,1490,l),
(1283,1490,l),
(709,581,l)
);
},
{
closed = 1;
nodes = (
(757,784,l),
(627,0,l),
(331,0,l),
(461,784,l)
);
},
{
closed = 1;
nodes = (
(1052,765,l),
(1023,591,l),
(110,591,l),
(139,765,l)
);
},
{
closed = 1;
nodes = (
(1004,477,l),
(976,303,l),
(62,303,l),
(92,477,l)
);
}
);
width = 1143;
},
{
layerId = "844D73DB-7C23-43E4-9FB2-A17A73FD39D0";
shapes = (
{
closed = 1;
nodes = (
(377,1490,l),
(618,663,l),
(466,601,l),
(172,1490,l)
);
},
{
closed = 1;
nodes = (
(518,663,l),
(1034,1490,l),
(1238,1490,l),
(649,601,l)
);
},
{
closed = 1;
nodes = (
(681,782,l),
(551,0,l),
(366,0,l),
(496,782,l)
);
},
{
closed = 1;
nodes = (
(998,743,l),
(977,609,l),
(141,609,l),
(162,743,l)
);
},
{
closed = 1;
nodes = (
(951,455,l),
(930,321,l),
(94,321,l),
(116,455,l)
);
}
);
width = 1094;
},
{
layerId = "AAF7CECC-D58D-4734-9D16-9C2B5AF74B2F";
shapes = (
{
closed = 1;
nodes = (
(220,1490,l),
(542,642,l),
(491,642,l),
(169,1490,l)
);
},
{
closed = 1;
nodes = (
(495,642,l),
(1097,1490,l),
(1152,1490,l),
(549,642,l)
);
},
{
closed = 1;
nodes = (
(552,692,l),
(437,0,l),
(390,0,l),
(506,692,l)
);
},
{
closed = 1;
nodes = (
(898,670,l),
(890,624,l),
(144,624,l),
(153,670,l)
);
},
{
closed = 1;
nodes = (
(867,488,l),
(860,442,l),
(113,442,l),
(122,488,l)
);
}
);
width = 1007;
}
);
leftKerningGroup = yen;
unicode = 165;
}
{
glyphname = brokenbar;
layers = (
{
layerId = "7120DA8A-778D-4421-9957-14EBB73F7FEE";
shapes = (
{
closed = 1;
nodes = (
(202,425,l),
(557,425,l),
(441,-280,l),
(85,-280,l)
);
},
{
closed = 1;
nodes = (
(733,1490,l),
(617,789,l),
(263,789,l),
(379,1490,l)
);
}
);
width = 799;
},
{
layerId = "496E469D-EE15-4086-9FDA-F7D1A66ADFFB";
shapes = (
{
closed = 1;
nodes = (
(178,414,l),
(442,414,l),
(327,-280,l),
(63,-280,l)
);
},
{
closed = 1;
nodes = (
(620,1490,l),
(505,800,l),
(242,800,l),
(357,1490,l)
);
}
);
width = 664;
},
{
layerId = "C6CF8F4D-8996-4F76-ABC0-77690A781072";
shapes = (
{
closed = 1;
nodes = (
(153,403,l),
(317,403,l),
(204,-280,l),
(39,-280,l)
);
},
{
closed = 1;
nodes = (
(497,1490,l),
(384,812,l),
(220,812,l),
(333,1490,l)
);
}
);
width = 517;
},
{
layerId = "CFE5CAE0-9991-40C5-8AD5-14528CBB0784";
shapes = (
{
closed = 1;
nodes = (
(112,387,l),
(157,387,l),
(46,-280,l),
(-1,-280,l)
);
},
{
closed = 1;
nodes = (
(339,1490,l),
(229,827,l),
(182,827,l),
(293,1490,l)
);
}
);
width = 319;
}
);
unicode = 166;
}
{
glyphname = section;
layers = (
{
layerId = "7120DA8A-778D-4421-9957-14EBB73F7FEE";
shapes = (
{
closed = 1;
nodes = (
(828,1109,l),
(831,1130,o),
(824,1147,o),
(805,1161,cs),
(786,1174,o),
(757,1181,o),
(718,1182,c),
(704,1182,o),
(688,1181,o),
(670,1180,c),
(633,1176,o),
(601,1161,o),
(594,1114,cs),
(591,1095,o),
(595,1078,o),
(606,1063,cs),
(628,1034,o),
(669,1015,o),
(701,1006,c),
(961,903,l),
(997,887,o),
(1057,858,o),
(1105,805,cs),
(1153,752,o),
(1180,672,o),
(1145,556,c),
(1131,513,o),
(1111,480,o),
(1084,458,cs),
(1057,435,o),
(1031,420,o),
(1005,411,cs),
(979,402,o),
(960,396,o),
(949,392,c),
(942,390,l),
(980,351,o),
(1007,308,o),
(1024,261,cs),
(1040,213,o),
(1043,158,o),
(1033,97,cs),
(1019,18,o),
(987,-52,o),
(938,-112,cs),
(838,-232,o),
(682,-300,o),
(495,-300,cs),
(397,-300,o),
(314,-283,o),
(246,-248,cs),
(110,-178,o),
(45,-51,o),
(73,116,c),
(416,116,l),
(412,87,o),
(422,65,o),
(445,49,cs),
(468,33,o),
(506,27,o),
(557,32,c),
(582,33,o),
(609,39,o),
(637,48,cs),
(664,57,o),
(680,74,o),
(685,97,cs),
(688,114,o),
(683,129,o),
(672,144,c),
(648,172,o),
(610,192,o),
(583,204,c),
(323,307,l),
(284,320,o),
(222,351,o),
(175,404,cs),
(127,457,o),
(101,536,o),
(136,655,cs),
(149,700,o),
(168,733,o),
(194,755,cs),
(245,798,o),
(303,811,o),
(335,818,c),
(334,819,l),
(266,898,o),
(227,989,o),
(248,1114,cs),
(261,1190,o),
(291,1258,o),
(340,1318,cs),
(436,1438,o),
(591,1510,o),
(772,1510,cs),
(864,1510,o),
(942,1493,o),
(1006,1458,cs),
(1134,1389,o),
(1196,1262,o),
(1172,1109,c)
);
},
{
closed = 1;
nodes = (
(827,539,o),
(829,548,o),
(826,559,cs),
(820,580,o),
(793,602,o),
(734,622,c),
(531,697,ls),
(517,702,o),
(505,704,o),
(496,704,cs),
(486,704,o),
(478,702,o),
(472,698,cs),
(465,693,o),
(460,688,o),
(455,681,cs),
(447,670,o),
(450,655,o),
(463,638,cs),
(476,620,o),
(503,603,o),
(545,588,cs),
(756,513,ls),
(767,509,o),
(776,507,o),
(784,507,cs),
(792,507,o),
(799,509,o),
(806,513,cs),
(812,516,o),
(817,522,o),
(822,531,cs)
);
}
);
width = 1257;
},
{
layerId = "496E469D-EE15-4086-9FDA-F7D1A66ADFFB";
shapes = (
{
closed = 1;
nodes = (
(835,1123,l),
(842,1164,o),
(834,1197,o),
(812,1224,c),
(789,1250,o),
(752,1263,o),
(700,1264,c),
(672,1264,o),
(646,1260,o),
(622,1251,cs),
(574,1234,o),
(541,1202,o),
(533,1154,cs),
(529,1130,o),
(533,1108,o),
(545,1089,c),
(568,1049,o),
(612,1021,o),
(648,1002,cs),
(906,870,l),
(942,850,o),
(994,819,o),
(1037,767,cs),
(1080,714,o),
(1103,639,o),
(1078,535,cs),
(1068,495,o),
(1050,461,o),
(1024,432,cs),
(998,403,o),
(970,380,o),
(940,363,cs),
(909,346,o),
(882,333,o),
(858,325,c),
(854,323,l),
(889,288,o),
(913,249,o),
(926,205,cs),
(939,160,o),
(941,111,o),
(932,57,cs),
(919,-18,o),
(890,-83,o),
(844,-137,cs),
(751,-244,o),
(609,-301,o),
(448,-301,cs),
(361,-301,o),
(286,-285,o),
(225,-252,cs),
(101,-187,o),
(41,-65,o),
(68,95,c),
(329,95,l),
(322,47,o),
(333,10,o),
(363,-17,cs),
(392,-43,o),
(436,-55,o),
(494,-52,c),
(533,-51,o),
(570,-42,o),
(606,-25,cs),
(642,-8,o),
(663,20,o),
(670,57,c),
(674,83,o),
(670,106,o),
(658,125,cs),
(634,164,o),
(591,189,o),
(558,208,c),
(300,340,l),
(263,357,o),
(209,390,o),
(167,443,cs),
(125,496,o),
(101,571,o),
(126,676,cs),
(135,716,o),
(152,750,o),
(177,779,cs),
(226,836,o),
(291,871,o),
(347,886,c),
(347,889,l),
(288,960,o),
(253,1044,o),
(272,1153,cs),
(283,1222,o),
(311,1283,o),
(355,1337,cs),
(442,1445,o),
(580,1510,o),
(740,1510,cs),
(824,1510,o),
(895,1493,o),
(952,1460,cs),
(1067,1393,o),
(1119,1272,o),
(1095,1123,c)
);
},
{
closed = 1;
nodes = (
(837,539,o),
(836,557,o),
(830,574,cs),
(818,608,o),
(787,636,o),
(735,659,c),
(507,777,ls),
(491,785,o),
(473,786,o),
(454,781,cs),
(435,776,o),
(417,765,o),
(402,749,cs),
(387,732,o),
(376,713,o),
(370,690,cs),
(363,662,o),
(368,636,o),
(386,613,c),
(403,589,o),
(431,568,o),
(469,550,c),
(695,437,ls),
(710,429,o),
(727,428,o),
(746,433,cs),
(765,438,o),
(782,449,o),
(799,465,cs),
(816,480,o),
(827,499,o),
(832,522,c)
);
}
);
width = 1182;
},
{
layerId = "C6CF8F4D-8996-4F76-ABC0-77690A781072";
shapes = (
{
closed = 1;
nodes = (
(842,1138,l),
(852,1200,o),
(844,1251,o),
(819,1292,cs),
(794,1332,o),
(747,1352,o),
(680,1352,cs),
(637,1352,o),
(601,1344,o),
(571,1329,cs),
(510,1297,o),
(476,1246,o),
(467,1197,cs),
(462,1168,o),
(466,1141,o),
(478,1116,cs),
(502,1065,o),
(550,1026,o),
(591,998,c),
(847,834,ls),
(882,811,o),
(927,776,o),
(964,724,cs),
(1000,672,o),
(1021,604,o),
(1006,513,cs),
(999,476,o),
(984,440,o),
(959,405,cs),
(934,370,o),
(904,339,o),
(869,312,cs),
(834,285,o),
(797,265,o),
(759,253,c),
(759,251,l),
(790,220,o),
(810,184,o),
(820,144,c),
(829,103,o),
(830,60,o),
(823,14,cs),
(811,-57,o),
(784,-117,o),
(741,-164,cs),
(656,-258,o),
(530,-302,o),
(398,-302,cs),
(321,-302,o),
(256,-287,o),
(201,-257,cs),
(91,-196,o),
(38,-82,o),
(63,73,c),
(235,73,l),
(224,3,o),
(236,-51,o),
(273,-88,cs),
(310,-125,o),
(360,-144,o),
(425,-144,cs),
(478,-144,o),
(528,-131,o),
(573,-105,cs),
(618,-78,o),
(644,-39,o),
(653,14,cs),
(659,50,o),
(656,80,o),
(644,105,cs),
(619,154,o),
(571,185,o),
(530,212,cs),
(275,375,l),
(240,396,o),
(193,433,o),
(157,486,cs),
(121,538,o),
(99,608,o),
(115,699,cs),
(121,734,o),
(136,770,o),
(159,806,cs),
(206,877,o),
(278,938,o),
(361,959,c),
(361,965,l),
(312,1028,o),
(282,1103,o),
(297,1196,c),
(308,1257,o),
(332,1311,o),
(371,1358,cs),
(447,1453,o),
(567,1510,o),
(706,1510,cs),
(781,1510,o),
(844,1494,o),
(894,1463,cs),
(993,1399,o),
(1035,1283,o),
(1012,1138,c)
);
},
{
closed = 1;
nodes = (
(847,540,o),
(845,566,o),
(836,589,cs),
(818,636,o),
(780,672,o),
(737,700,cs),
(481,863,l),
(462,876,o),
(438,876,o),
(409,865,cs),
(380,853,o),
(352,832,o),
(327,803,cs),
(302,774,o),
(285,739,o),
(278,699,cs),
(271,653,o),
(279,615,o),
(302,586,cs),
(325,556,o),
(353,530,o),
(386,508,cs),
(629,354,ls),
(648,342,o),
(673,342,o),
(704,353,cs),
(735,364,o),
(765,384,o),
(792,413,cs),
(819,441,o),
(836,474,o),
(842,513,cs)
);
}
);
width = 1100;
},
{
layerId = "CFE5CAE0-9991-40C5-8AD5-14528CBB0784";
shapes = (
{
closed = 1;
nodes = (
(896,1191,l),
(905,1270,o),
(889,1336,o),
(848,1388,cs),
(807,1439,o),
(747,1465,o),
(666,1465,cs),
(613,1465,o),
(563,1453,o),
(518,1430,cs),
(426,1383,o),
(362,1301,o),
(345,1204,c),
(339,1163,o),
(342,1127,o),
(355,1096,cs),
(380,1033,o),
(441,982,o),
(524,926,cs),
(634,853,ls),
(726,790,o),
(800,737,o),
(851,682,cs),
(902,627,o),
(924,568,o),
(913,497,cs),
(906,454,o),
(888,416,o),
(860,383,cs),
(831,349,o),
(796,323,o),
(754,304,cs),
(712,285,o),
(667,275,o),
(619,274,c),
(619,270,l),
(686,220,o),
(731,174,o),
(752,131,cs),
(773,88,o),
(779,42,o),
(771,-7,cs),
(760,-66,o),
(737,-117,o),
(700,-162,cs),
(626,-251,o),
(510,-302,o),
(374,-302,cs),
(305,-302,o),
(245,-288,o),
(196,-261,cs),
(96,-206,o),
(46,-105,o),
(59,24,c),
(106,24,l),
(98,-61,o),
(118,-129,o),
(167,-180,cs),
(216,-231,o),
(285,-256,o),
(376,-256,cs),
(464,-256,o),
(541,-233,o),
(607,-187,cs),
(673,-140,o),
(712,-79,o),
(724,-4,cs),
(729,27,o),
(728,56,o),
(719,84,cs),
(702,140,o),
(646,199,o),
(529,274,cs),
(407,354,ls),
(298,423,o),
(222,482,o),
(179,538,cs),
(135,593,o),
(119,649,o),
(130,714,cs),
(137,759,o),
(154,798,o),
(181,833,cs),
(234,901,o),
(321,942,o),
(424,934,c),
(424,941,l),
(329,1010,o),
(280,1096,o),
(300,1208,cs),
(309,1265,o),
(332,1316,o),
(367,1362,cs),
(438,1453,o),
(546,1510,o),
(669,1510,cs),
(732,1510,o),
(785,1497,o),
(828,1470,cs),
(914,1416,o),
(955,1316,o),
(942,1191,c)
);
},
{
closed = 1;
nodes = (
(871,540,o),
(865,576,o),
(846,609,cs),
(807,675,o),
(724,736,o),
(613,808,cs),
(477,899,l),
(421,904,o),
(372,898,o),
(329,883,cs),
(286,868,o),
(252,845,o),
(226,816,cs),
(199,787,o),
(183,753,o),
(176,714,cs),
(167,658,o),
(183,607,o),
(223,560,cs),
(262,513,o),
(330,459,o),
(427,396,cs),
(556,315,l),
(606,311,o),
(653,316,o),
(698,330,cs),
(742,344,o),
(779,366,o),
(810,395,cs),
(840,424,o),
(858,459,o),
(864,501,c)
);
}
);
width = 1022;
}
);
unicode = 167;
}
